<?xml version="1.0" encoding="UTF-8" standalone="no"?><svg xmlns="http://www.w3.org/2000/svg" xmlns:xlink="http://www.w3.org/1999/xlink" contentScriptType="application/ecmascript" contentStyleType="text/css" height="698.4375px" preserveAspectRatio="none" style="width:525px;height:698px;" version="1.1" viewBox="0 0 525 698" width="525px" zoomAndPan="magnify"><defs><filter height="300%" id="fxqne67zbtqd7" width="300%" x="-1" y="-1"><feGaussianBlur result="blurOut" stdDeviation="3.125"/><feColorMatrix in="blurOut" result="blurOut2" type="matrix" values="0 0 0 0 0 0 0 0 0 0 0 0 0 0 0 0 0 0 .4 0"/><feOffset dx="6.25" dy="6.25" in="blurOut2" result="blurOut3"/><feBlend in="SourceGraphic" in2="blurOut3" mode="normal"/></filter></defs><g><!--entity Utils--><rect fill="#F8F8F8" filter="url(#fxqne67zbtqd7)" height="54.834" style="stroke: #383838; stroke-width: 2.34375;" width="70.3125" x="107.0313" y="626.5625"/><rect fill="#F8F8F8" height="7.8125" style="stroke: #383838; stroke-width: 2.34375;" width="15.625" x="99.2188" y="634.375"/><rect fill="#F8F8F8" height="7.8125" style="stroke: #383838; stroke-width: 2.34375;" width="15.625" x="99.2188" y="665.7715"/><text fill="#000000" font-family="sans-serif" font-size="18.75" lengthAdjust="spacingAndGlyphs" textLength="39.0625" x="122.6563" y="661.6516">Utils</text><!--entity Assertions--><rect fill="#F8F8F8" filter="url(#fxqne67zbtqd7)" height="54.834" style="stroke: #383838; stroke-width: 2.34375;" width="123.4375" x="49.2188" y="381.25"/><rect fill="#F8F8F8" height="7.8125" style="stroke: #383838; stroke-width: 2.34375;" width="15.625" x="41.4063" y="389.0625"/><rect fill="#F8F8F8" height="7.8125" style="stroke: #383838; stroke-width: 2.34375;" width="15.625" x="41.4063" y="420.459"/><text fill="#000000" font-family="sans-serif" font-size="18.75" lengthAdjust="spacingAndGlyphs" textLength="92.1875" x="64.8438" y="416.3391">Assertions</text><!--entity UndoLogUtils--><rect fill="#F8F8F8" filter="url(#fxqne67zbtqd7)" height="54.834" style="stroke: #383838; stroke-width: 2.34375;" width="150" x="193.75" y="539.0625"/><rect fill="#F8F8F8" height="7.8125" style="stroke: #383838; stroke-width: 2.34375;" width="15.625" x="185.9375" y="546.875"/><rect fill="#F8F8F8" height="7.8125" style="stroke: #383838; stroke-width: 2.34375;" width="15.625" x="185.9375" y="578.2715"/><text fill="#000000" font-family="sans-serif" font-size="18.75" lengthAdjust="spacingAndGlyphs" textLength="118.75" x="209.375" y="574.1516">UndoLogUtils</text><!--entity UndoLogAssertions--><rect fill="#F8F8F8" filter="url(#fxqne67zbtqd7)" height="54.834" style="stroke: #383838; stroke-width: 2.34375;" width="203.125" x="9.375" y="198.4375"/><rect fill="#F8F8F8" height="7.8125" style="stroke: #383838; stroke-width: 2.34375;" width="15.625" x="1.5625" y="206.25"/><rect fill="#F8F8F8" height="7.8125" style="stroke: #383838; stroke-width: 2.34375;" width="15.625" x="1.5625" y="237.6465"/><text fill="#000000" font-family="sans-serif" font-size="18.75" lengthAdjust="spacingAndGlyphs" textLength="171.875" x="25" y="233.5266">UndoLogAssertions</text><!--entity UndoLogSetup--><rect fill="#F8F8F8" filter="url(#fxqne67zbtqd7)" height="54.834" style="stroke: #383838; stroke-width: 2.34375;" width="160.9375" x="183.5938" y="381.25"/><rect fill="#F8F8F8" height="7.8125" style="stroke: #383838; stroke-width: 2.34375;" width="15.625" x="175.7813" y="389.0625"/><rect fill="#F8F8F8" height="7.8125" style="stroke: #383838; stroke-width: 2.34375;" width="15.625" x="175.7813" y="420.459"/><text fill="#000000" font-family="sans-serif" font-size="18.75" lengthAdjust="spacingAndGlyphs" textLength="129.6875" x="199.2188" y="416.3391">UndoLogSetup</text><!--entity UndoLog--><rect fill="#F8F8F8" filter="url(#fxqne67zbtqd7)" height="54.834" style="stroke: #383838; stroke-width: 2.34375;" width="110.9375" x="352.3438" y="451.5625"/><rect fill="#F8F8F8" height="7.8125" style="stroke: #383838; stroke-width: 2.34375;" width="15.625" x="344.5313" y="459.375"/><rect fill="#F8F8F8" height="7.8125" style="stroke: #383838; stroke-width: 2.34375;" width="15.625" x="344.5313" y="490.7715"/><text fill="#000000" font-family="sans-serif" font-size="18.75" lengthAdjust="spacingAndGlyphs" textLength="79.6875" x="367.9688" y="486.6516">UndoLog</text><!--entity UndoLogPublic--><rect fill="#F8F8F8" filter="url(#fxqne67zbtqd7)" height="54.834" style="stroke: #383838; stroke-width: 2.34375;" width="164.0625" x="344.5313" y="310.9375"/><rect fill="#F8F8F8" height="7.8125" style="stroke: #383838; stroke-width: 2.34375;" width="15.625" x="336.7188" y="318.75"/><rect fill="#F8F8F8" height="7.8125" style="stroke: #383838; stroke-width: 2.34375;" width="15.625" x="336.7188" y="350.1465"/><text fill="#000000" font-family="sans-serif" font-size="18.75" lengthAdjust="spacingAndGlyphs" textLength="132.8125" x="360.1563" y="346.0266">UndoLogPublic</text><!--entity UndoLogSetupPublic--><rect fill="#F8F8F8" filter="url(#fxqne67zbtqd7)" height="54.834" style="stroke: #383838; stroke-width: 2.34375;" width="214.0625" x="267.9688" y="198.4375"/><rect fill="#F8F8F8" height="7.8125" style="stroke: #383838; stroke-width: 2.34375;" width="15.625" x="260.1563" y="206.25"/><rect fill="#F8F8F8" height="7.8125" style="stroke: #383838; stroke-width: 2.34375;" width="15.625" x="260.1563" y="237.6465"/><text fill="#000000" font-family="sans-serif" font-size="18.75" lengthAdjust="spacingAndGlyphs" textLength="182.8125" x="283.5938" y="233.5266">UndoLogSetupPublic</text><!--entity User--><ellipse cx="375" cy="28.125" fill="#F8F8F8" filter="url(#fxqne67zbtqd7)" rx="12.5" ry="12.5" style="stroke: #383838; stroke-width: 3.125;"/><path d="M375,40.625 L375,82.8125 M354.6875,53.125 L395.3125,53.125 M375,82.8125 L354.6875,106.25 M375,82.8125 L395.3125,106.25 " fill="none" filter="url(#fxqne67zbtqd7)" style="stroke: #383838; stroke-width: 3.125;"/><text fill="#000000" font-family="sans-serif" font-size="18.75" lengthAdjust="spacingAndGlyphs" textLength="42.1875" x="353.9063" y="136.6516">User</text><!--entity Tester--><ellipse cx="231.25" cy="28.125" fill="#F8F8F8" filter="url(#fxqne67zbtqd7)" rx="12.5" ry="12.5" style="stroke: #383838; stroke-width: 3.125;"/><path d="M231.25,40.625 L231.25,82.8125 M210.9375,53.125 L251.5625,53.125 M231.25,82.8125 L210.9375,106.25 M231.25,82.8125 L251.5625,106.25 " fill="none" filter="url(#fxqne67zbtqd7)" style="stroke: #383838; stroke-width: 3.125;"/><text fill="#000000" font-family="sans-serif" font-size="18.75" lengthAdjust="spacingAndGlyphs" textLength="54.6875" x="203.9063" y="136.6516">Tester</text><!--link Assertions to Utils--><path d="M114.2813,436.0781 C119.9375,479.9063 131.3906,568.6875 137.7344,617.7813 " fill="none" id="Assertions-Utils" style="stroke: #383838; stroke-width: 1.09375;"/><polygon fill="#383838" points="138.7656,625.875,143.1552,611.1255,137.7609,618.1274,130.759,612.7331,138.7656,625.875" style="stroke: #383838; stroke-width: 1.09375;"/><!--link UndoLogUtils to Utils--><path d="M229.4063,594.2031 C215.0469,603.7656 198.7813,614.6094 184.2031,624.3281 " fill="none" id="UndoLogUtils-Utils" style="stroke: #383838; stroke-width: 1.09375;"/><polygon fill="#383838" points="177.6406,628.7031,192.802,626.0669,184.1307,624.3541,185.8436,615.6828,177.6406,628.7031" style="stroke: #383838; stroke-width: 1.09375;"/><!--link UndoLogAssertions to Assertions--><path d="M110.9375,253.8594 C110.9375,285.4844 110.9375,338.4375 110.9375,373.0469 " fill="none" id="UndoLogAssertions-Assertions" style="stroke: #383838; stroke-width: 1.09375;"/><polygon fill="#383838" points="110.9375,381,117.1875,366.9375,110.9375,373.1875,104.6875,366.9375,110.9375,381" style="stroke: #383838; stroke-width: 1.09375;"/><!--link UndoLogSetup to UndoLogUtils--><path d="M264.8594,436.3906 C265.6406,462.3281 266.8438,502.1406 267.7188,530.5625 " fill="none" id="UndoLogSetup-UndoLogUtils" style="stroke: #383838; stroke-width: 1.09375;"/><polygon fill="#383838" points="267.9688,538.9844,273.7739,524.7325,267.7233,531.1757,261.2801,525.1251,267.9688,538.9844" style="stroke: #383838; stroke-width: 1.09375;"/><!--link UndoLog to UndoLogUtils--><path d="M364.5781,506.7031 C349.9219,515.5938 333.4375,525.5938 318.3125,534.7656 " fill="none" id="UndoLog-UndoLogUtils" style="stroke: #383838; stroke-width: 1.09375;"/><polygon fill="#383838" points="311.4844,538.9219,326.751,536.9862,318.1677,534.8761,320.2778,526.2928,311.4844,538.9219" style="stroke: #383838; stroke-width: 1.09375;"/><!--link UndoLogPublic to UndoLog--><path d="M423.0313,365.7031 C420.0469,387.6563 415.7344,419.3125 412.4531,443.3125 " fill="none" id="UndoLogPublic-UndoLog" style="stroke: #383838; stroke-width: 1.09375;"/><polygon fill="#383838" points="411.3906,451.125,419.5086,438.0515,412.4611,443.3862,407.1265,436.3387,411.3906,451.125" style="stroke: #383838; stroke-width: 1.09375;"/><!--link UndoLogSetupPublic to UndoLogSetup--><path d="M356.0938,253.25 C344.4531,269.5313 329.4688,291.1406 317.1875,310.9375 C304.5,331.3906 291.4063,355.0313 281.3906,373.7656 " fill="none" id="UndoLogSetupPublic-UndoLogSetup" style="stroke: #383838; stroke-width: 1.09375;"/><polygon fill="#383838" points="277.5781,380.9375,289.728,371.4931,281.2674,374.0509,278.7095,365.5903,277.5781,380.9375" style="stroke: #383838; stroke-width: 1.09375;"/><!--link UndoLogSetupPublic to UndoLogPublic--><path d="M387.2188,253.2656 C394.25,268.1719 403.1406,287.0469 410.7031,303.0781 " fill="none" id="UndoLogSetupPublic-UndoLogPublic" style="stroke: #383838; stroke-width: 1.09375;"/><polygon fill="#383838" points="414.0781,310.2188,413.7128,294.8342,410.7366,303.1569,402.4139,300.1807,414.0781,310.2188" style="stroke: #383838; stroke-width: 1.09375;"/><text fill="#000000" font-family="sans-serif" font-size="18.75" lengthAdjust="spacingAndGlyphs" textLength="64.0625" x="409.375" y="289.7766">creates</text><!--link Tester to UndoLogSetupPublic--><path d="M258.6563,106.75 C278.9844,127.8906 307.4531,157.3125 332.8125,182.8125 C337.7344,187.7656 343.0156,193 348.125,198.0313 " fill="none" id="Tester-UndoLogSetupPublic" style="stroke: #383838; stroke-width: 1.09375; stroke-dasharray: 7.0,7.0;"/><text fill="#000000" font-family="sans-serif" font-size="18.75" lengthAdjust="spacingAndGlyphs" textLength="26.5625" x="334.375" y="177.2766">api</text><!--link Tester to UndoLogAssertions--><path d="M203.3437,112.0156 C181.6875,138.3125 152.1094,174.2188 132.3125,198.2656 " fill="none" id="Tester-UndoLogAssertions" style="stroke: #383838; stroke-width: 1.09375; stroke-dasharray: 7.0,7.0;"/><!--link User to UndoLogSetupPublic--><path d="M375,140.9375 C375,161.0313 375,182.2031 375,198.1563 " fill="none" id="User-UndoLogSetupPublic" style="stroke: #383838; stroke-width: 1.09375; stroke-dasharray: 7.0,7.0;"/><text fill="#000000" font-family="sans-serif" font-size="18.75" lengthAdjust="spacingAndGlyphs" textLength="26.5625" x="376.5625" y="177.2766">api</text><!--
@startuml
skinparam monochrome true
skinparam ranksep 20
skinparam dpi 150
skinparam arrowThickness 0.7
skinparam packageTitleAlignment left
skinparam usecaseBorderThickness 0.4
skinparam defaultFontSize 12
skinparam rectangleBorderThickness 1

component Utils
component Assertions
component UndoLogUtils
component UndoLogAssertions
component UndoLogSetup
component UndoLog
component UndoLogPublic
component UndoLogSetupPublic
actor User
actor Tester

Assertions - -> Utils
UndoLogUtils - -> Utils
UndoLogAssertions - -> Assertions
UndoLogSetup - -> UndoLogUtils
UndoLog - -> UndoLogUtils
UndoLogPublic - -> UndoLog
UndoLogSetupPublic - -> UndoLogSetup
UndoLogSetupPublic - -> UndoLogPublic : creates

Tester .. UndoLogSetupPublic : api 
Tester .. UndoLogAssertions
User .. UndoLogSetupPublic : api

@enduml

PlantUML version 1.2019.06(Fri May 24 19:10:25 CEST 2019)
(GPL source distribution)
Java Runtime: OpenJDK Runtime Environment
JVM: OpenJDK 64-Bit Server VM
Java Version: 18.0.1+10
Operating System: Windows 10
OS Version: 10.0
Default Encoding: UTF-8
Language: de
Country: DE
--></g></svg>