<?xml version="1.0" encoding="UTF-8" standalone="no"?><svg xmlns="http://www.w3.org/2000/svg" xmlns:xlink="http://www.w3.org/1999/xlink" contentScriptType="application/ecmascript" contentStyleType="text/css" height="835.9375px" preserveAspectRatio="none" style="width:525px;height:835px;background:#FFFFFF;" version="1.1" viewBox="0 0 525 835" width="525px" zoomAndPan="magnify"><defs><filter height="300%" id="ftx8vnbbq0eo0" width="300%" x="-1" y="-1"><feGaussianBlur result="blurOut" stdDeviation="3.125"/><feColorMatrix in="blurOut" result="blurOut2" type="matrix" values="0 0 0 0 0 0 0 0 0 0 0 0 0 0 0 0 0 0 .4 0"/><feOffset dx="6.25" dy="6.25" in="blurOut2" result="blurOut3"/><feBlend in="SourceGraphic" in2="blurOut3" mode="normal"/></filter></defs><g><!--MD5=[a7f6aa54ae49cc2795570b14dddb15c5]
class UndoActionCategory--><rect codeLine="10" fill="#F8F8F8" filter="url(#ftx8vnbbq0eo0)" height="104.3753" id="UndoActionCategory" style="stroke:#383838;stroke-width:2.34375;" width="215.625" x="137.5" y="10.9375"/><ellipse cx="159.375" cy="34.375" fill="#C2C2C2" rx="15.625" ry="15.625" style="stroke:#383838;stroke-width:1.5625;"/><path d="M160.083,38.2324 Q160.9863,38.2324 161.5967,38.0127 Q162.2314,37.793 162.4756,37.5488 Q162.7441,37.3047 163.0127,37.085 Q163.3057,36.8652 163.5498,36.8652 Q163.916,36.8652 164.1846,37.1582 Q164.4775,37.4268 164.4775,37.793 Q164.4775,38.5986 163.1836,39.3555 Q161.9141,40.1123 160.0342,40.1123 Q157.666,40.1123 156.0791,38.7207 Q154.5166,37.3047 154.5166,35.1807 L154.5166,33.9355 Q154.5166,31.6895 155.9814,30.1758 Q157.4463,28.6621 159.6191,28.6621 Q160.9375,28.6621 162.2803,29.2969 L162.4756,29.3701 Q162.793,28.9063 163.2568,28.9063 Q163.8184,28.9063 164.0137,29.2236 Q164.209,29.541 164.209,30.1514 L164.209,31.7139 Q164.209,32.959 163.2568,32.959 Q162.915,32.959 162.6953,32.7881 Q162.5,32.5928 162.4512,32.4463 Q162.4023,32.2754 162.3535,31.958 Q162.2314,31.3965 161.6455,31.0547 Q161.084,30.7129 160.5957,30.6152 Q160.1074,30.5176 159.6924,30.5176 Q158.2764,30.5176 157.3242,31.4941 Q156.3965,32.4463 156.3965,33.9355 L156.3965,35.1318 Q156.3965,36.5479 157.3975,37.4023 Q158.3984,38.2324 160.083,38.2324 Z " fill="#000000"/><text fill="#000000" font-family="sans-serif" font-size="18.75" lengthAdjust="spacing" textLength="168.75" x="179.6875" y="41.8751">UndoActionCategory</text><line style="stroke:#383838;stroke-width:2.34375;" x1="139.0625" x2="351.5625" y1="57.8125" y2="57.8125"/><text fill="#000000" font-family="sans-serif" font-size="18.75" lengthAdjust="spacing" textLength="100" x="146.875" y="82.8126">name: string</text><text fill="#000000" font-family="sans-serif" font-size="18.75" lengthAdjust="spacing" textLength="87.5" x="146.875" y="105.3128">icon: string</text><!--MD5=[3a090017e917e1006b0be52269017f37]
class UndoAction--><rect codeLine="15" fill="#F8F8F8" filter="url(#ftx8vnbbq0eo0)" height="81.8752" id="UndoAction" style="stroke:#383838;stroke-width:2.34375;" width="143.75" x="173.4375" y="146.875"/><ellipse cx="196.7188" cy="170.3125" fill="#C2C2C2" rx="15.625" ry="15.625" style="stroke:#383838;stroke-width:1.5625;"/><path d="M197.4268,174.1699 Q198.3301,174.1699 198.9404,173.9502 Q199.5752,173.7305 199.8193,173.4863 Q200.0879,173.2422 200.3564,173.0225 Q200.6494,172.8027 200.8936,172.8027 Q201.2598,172.8027 201.5283,173.0957 Q201.8213,173.3643 201.8213,173.7305 Q201.8213,174.5361 200.5273,175.293 Q199.2578,176.0498 197.3779,176.0498 Q195.0098,176.0498 193.4229,174.6582 Q191.8604,173.2422 191.8604,171.1182 L191.8604,169.873 Q191.8604,167.627 193.3252,166.1133 Q194.79,164.5996 196.9629,164.5996 Q198.2813,164.5996 199.624,165.2344 L199.8193,165.3076 Q200.1367,164.8438 200.6006,164.8438 Q201.1621,164.8438 201.3574,165.1611 Q201.5527,165.4785 201.5527,166.0889 L201.5527,167.6514 Q201.5527,168.8965 200.6006,168.8965 Q200.2588,168.8965 200.0391,168.7256 Q199.8438,168.5303 199.7949,168.3838 Q199.7461,168.2129 199.6973,167.8955 Q199.5752,167.334 198.9893,166.9922 Q198.4277,166.6504 197.9395,166.5527 Q197.4512,166.4551 197.0361,166.4551 Q195.6201,166.4551 194.668,167.4316 Q193.7402,168.3838 193.7402,169.873 L193.7402,171.0693 Q193.7402,172.4854 194.7412,173.3398 Q195.7422,174.1699 197.4268,174.1699 Z " fill="#000000"/><text fill="#000000" font-family="sans-serif" font-size="18.75" lengthAdjust="spacing" textLength="93.75" x="217.3438" y="177.8126">UndoAction</text><line style="stroke:#383838;stroke-width:2.34375;" x1="175" x2="315.625" y1="193.75" y2="193.75"/><text fill="#000000" font-family="sans-serif" font-size="18.75" lengthAdjust="spacing" textLength="125" x="182.8125" y="218.7501">createdAt: Date</text><!--MD5=[60a7ed90818c1a3dac410e325cd46a7d]
class UndoChange--><rect codeLine="19" fill="#F8F8F8" filter="url(#ftx8vnbbq0eo0)" height="126.8755" id="UndoChange" style="stroke:#383838;stroke-width:2.34375;" width="267.1875" x="111.7188" y="259.375"/><ellipse cx="185.1563" cy="282.8125" fill="#C2C2C2" rx="15.625" ry="15.625" style="stroke:#383838;stroke-width:1.5625;"/><path d="M185.8643,286.6699 Q186.7676,286.6699 187.3779,286.4502 Q188.0127,286.2305 188.2568,285.9863 Q188.5254,285.7422 188.7939,285.5225 Q189.0869,285.3027 189.3311,285.3027 Q189.6973,285.3027 189.9658,285.5957 Q190.2588,285.8643 190.2588,286.2305 Q190.2588,287.0361 188.9648,287.793 Q187.6953,288.5498 185.8154,288.5498 Q183.4473,288.5498 181.8604,287.1582 Q180.2979,285.7422 180.2979,283.6182 L180.2979,282.373 Q180.2979,280.127 181.7627,278.6133 Q183.2275,277.0996 185.4004,277.0996 Q186.7188,277.0996 188.0615,277.7344 L188.2568,277.8076 Q188.5742,277.3438 189.0381,277.3438 Q189.5996,277.3438 189.7949,277.6611 Q189.9902,277.9785 189.9902,278.5889 L189.9902,280.1514 Q189.9902,281.3965 189.0381,281.3965 Q188.6963,281.3965 188.4766,281.2256 Q188.2813,281.0303 188.2324,280.8838 Q188.1836,280.7129 188.1348,280.3955 Q188.0127,279.834 187.4268,279.4922 Q186.8652,279.1504 186.377,279.0527 Q185.8887,278.9551 185.4736,278.9551 Q184.0576,278.9551 183.1055,279.9316 Q182.1777,280.8838 182.1777,282.373 L182.1777,283.5693 Q182.1777,284.9854 183.1787,285.8398 Q184.1797,286.6699 185.8643,286.6699 Z " fill="#000000"/><text fill="#000000" font-family="sans-serif" font-size="18.75" lengthAdjust="spacing" textLength="107.8125" x="214.8438" y="290.3126">UndoChange</text><line style="stroke:#383838;stroke-width:2.34375;" x1="113.2813" x2="377.3438" y1="306.25" y2="306.25"/><text fill="#000000" font-family="sans-serif" font-size="18.75" lengthAdjust="spacing" textLength="193.75" x="121.0938" y="331.2501">type: UndoChangeType</text><text fill="#000000" font-family="sans-serif" font-size="18.75" lengthAdjust="spacing" textLength="248.4375" x="121.0938" y="353.7503">category: UndoActionCategory</text><text fill="#000000" font-family="sans-serif" font-size="18.75" lengthAdjust="spacing" textLength="73.4375" x="121.0938" y="376.2504">rowId: int</text><!--MD5=[b0f7da3fbf83ea747c39c888a040c30b]
class UndoChangeType--><rect codeLine="25" fill="#F8F8F8" filter="url(#ftx8vnbbq0eo0)" height="126.8755" id="UndoChangeType" style="stroke:#383838;stroke-width:2.34375;" width="196.875" x="10.9375" y="417.1875"/><ellipse cx="32.8125" cy="440.625" fill="#ABABAB" rx="15.625" ry="15.625" style="stroke:#383838;stroke-width:1.5625;"/><path d="M36.5723,443.2373 Q36.5723,441.9922 37.5,441.9922 Q38.4277,441.9922 38.4277,443.2373 L38.4277,446.0938 L29.6143,446.0938 Q28.3691,446.0938 28.3691,445.166 Q28.3691,444.2139 29.6143,444.2139 L29.8828,444.2139 L29.8828,437.0361 L29.6143,437.0361 Q28.3691,437.0361 28.3691,436.1084 Q28.3691,435.5469 28.6865,435.3516 Q29.0039,435.1563 29.6143,435.1563 L38.0371,435.1563 L38.0371,437.9639 Q38.0371,439.2334 37.085,439.2334 Q36.1572,439.2334 36.1572,437.9639 L36.1572,437.0361 L31.7627,437.0361 L31.7627,439.6729 L33.3496,439.6729 L33.3496,439.5508 Q33.3496,438.3057 34.2773,438.3057 Q35.2051,438.3057 35.2051,439.5508 L35.2051,441.6748 Q35.2051,442.8955 34.3018,442.8955 Q33.3496,442.8955 33.3496,441.6748 L33.3496,441.5283 L31.7627,441.5283 L31.7627,444.2139 L36.5723,444.2139 L36.5723,443.2373 Z " fill="#000000"/><text fill="#000000" font-family="sans-serif" font-size="18.75" lengthAdjust="spacing" textLength="150" x="53.125" y="448.1251">UndoChangeType</text><line style="stroke:#383838;stroke-width:2.34375;" x1="12.5" x2="206.25" y1="464.0625" y2="464.0625"/><text fill="#000000" font-family="sans-serif" font-size="18.75" lengthAdjust="spacing" textLength="43.75" x="20.3125" y="489.0626">Insert</text><text fill="#000000" font-family="sans-serif" font-size="18.75" lengthAdjust="spacing" textLength="60.9375" x="20.3125" y="511.5628">Update</text><text fill="#000000" font-family="sans-serif" font-size="18.75" lengthAdjust="spacing" textLength="50" x="20.3125" y="534.0629">Delete</text><!--MD5=[48d4d432a231173466d7cba880631b08]
class UndoTable--><rect codeLine="31" fill="#F8F8F8" filter="url(#ftx8vnbbq0eo0)" height="81.8752" id="UndoTable" style="stroke:#383838;stroke-width:2.34375;" width="139.0625" x="313.2813" y="732.8125"/><ellipse cx="335.1563" cy="756.25" fill="#C2C2C2" rx="15.625" ry="15.625" style="stroke:#383838;stroke-width:1.5625;"/><path d="M335.8643,760.1074 Q336.7676,760.1074 337.3779,759.8877 Q338.0127,759.668 338.2568,759.4238 Q338.5254,759.1797 338.7939,758.96 Q339.0869,758.7402 339.3311,758.7402 Q339.6973,758.7402 339.9658,759.0332 Q340.2588,759.3018 340.2588,759.668 Q340.2588,760.4736 338.9648,761.2305 Q337.6953,761.9873 335.8154,761.9873 Q333.4473,761.9873 331.8604,760.5957 Q330.2979,759.1797 330.2979,757.0557 L330.2979,755.8105 Q330.2979,753.5645 331.7627,752.0508 Q333.2275,750.5371 335.4004,750.5371 Q336.7188,750.5371 338.0615,751.1719 L338.2568,751.2451 Q338.5742,750.7813 339.0381,750.7813 Q339.5996,750.7813 339.7949,751.0986 Q339.9902,751.416 339.9902,752.0264 L339.9902,753.5889 Q339.9902,754.834 339.0381,754.834 Q338.6963,754.834 338.4766,754.6631 Q338.2813,754.4678 338.2324,754.3213 Q338.1836,754.1504 338.1348,753.833 Q338.0127,753.2715 337.4268,752.9297 Q336.8652,752.5879 336.377,752.4902 Q335.8887,752.3926 335.4736,752.3926 Q334.0576,752.3926 333.1055,753.3691 Q332.1777,754.3213 332.1777,755.8105 L332.1777,757.0068 Q332.1777,758.4229 333.1787,759.2773 Q334.1797,760.1074 335.8643,760.1074 Z " fill="#000000"/><text fill="#000000" font-family="sans-serif" font-size="18.75" lengthAdjust="spacing" textLength="92.1875" x="355.4688" y="763.7501">UndoTable</text><line style="stroke:#383838;stroke-width:2.34375;" x1="314.8438" x2="450.7813" y1="779.6875" y2="779.6875"/><text fill="#000000" font-family="sans-serif" font-size="18.75" lengthAdjust="spacing" textLength="100" x="322.6563" y="804.6876">name: string</text><!--MD5=[b0f00ded1da05b42d797ce39ddbcbc27]
class UndoTableColumn--><rect codeLine="35" fill="#F8F8F8" filter="url(#ftx8vnbbq0eo0)" height="126.8755" id="UndoTableColumn" style="stroke:#383838;stroke-width:2.34375;" width="201.5625" x="282.0313" y="575"/><ellipse cx="303.9063" cy="598.4375" fill="#C2C2C2" rx="15.625" ry="15.625" style="stroke:#383838;stroke-width:1.5625;"/><path d="M304.6143,602.2949 Q305.5176,602.2949 306.1279,602.0752 Q306.7627,601.8555 307.0068,601.6113 Q307.2754,601.3672 307.5439,601.1475 Q307.8369,600.9277 308.0811,600.9277 Q308.4473,600.9277 308.7158,601.2207 Q309.0088,601.4893 309.0088,601.8555 Q309.0088,602.6611 307.7148,603.418 Q306.4453,604.1748 304.5654,604.1748 Q302.1973,604.1748 300.6104,602.7832 Q299.0479,601.3672 299.0479,599.2432 L299.0479,597.998 Q299.0479,595.752 300.5127,594.2383 Q301.9775,592.7246 304.1504,592.7246 Q305.4688,592.7246 306.8115,593.3594 L307.0068,593.4326 Q307.3242,592.9688 307.7881,592.9688 Q308.3496,592.9688 308.5449,593.2861 Q308.7402,593.6035 308.7402,594.2139 L308.7402,595.7764 Q308.7402,597.0215 307.7881,597.0215 Q307.4463,597.0215 307.2266,596.8506 Q307.0313,596.6553 306.9824,596.5088 Q306.9336,596.3379 306.8848,596.0205 Q306.7627,595.459 306.1768,595.1172 Q305.6152,594.7754 305.127,594.6777 Q304.6387,594.5801 304.2236,594.5801 Q302.8076,594.5801 301.8555,595.5566 Q300.9277,596.5088 300.9277,597.998 L300.9277,599.1943 Q300.9277,600.6104 301.9287,601.4648 Q302.9297,602.2949 304.6143,602.2949 Z " fill="#000000"/><text fill="#000000" font-family="sans-serif" font-size="18.75" lengthAdjust="spacing" textLength="154.6875" x="324.2188" y="605.9376">UndoTableColumn</text><line style="stroke:#383838;stroke-width:2.34375;" x1="283.5938" x2="482.0313" y1="621.875" y2="621.875"/><text fill="#000000" font-family="sans-serif" font-size="18.75" lengthAdjust="spacing" textLength="100" x="291.4063" y="646.8751">name: string</text><text fill="#000000" font-family="sans-serif" font-size="18.75" lengthAdjust="spacing" textLength="89.0625" x="291.4063" y="669.3753">type: string</text><text fill="#000000" font-family="sans-serif" font-size="18.75" lengthAdjust="spacing" textLength="142.1875" x="291.4063" y="691.8754">table: UndoTable</text><!--MD5=[e6bc2e158a1fa22b5582f2a3e93c751a]
class UndoTableValue--><rect codeLine="41" fill="#F8F8F8" filter="url(#ftx8vnbbq0eo0)" height="126.8755" id="UndoTableValue" style="stroke:#383838;stroke-width:2.34375;" width="240.625" x="262.5" y="417.1875"/><ellipse cx="308.9844" cy="440.625" fill="#C2C2C2" rx="15.625" ry="15.625" style="stroke:#383838;stroke-width:1.5625;"/><path d="M309.6924,444.4824 Q310.5957,444.4824 311.2061,444.2627 Q311.8408,444.043 312.085,443.7988 Q312.3535,443.5547 312.6221,443.335 Q312.915,443.1152 313.1592,443.1152 Q313.5254,443.1152 313.7939,443.4082 Q314.0869,443.6768 314.0869,444.043 Q314.0869,444.8486 312.793,445.6055 Q311.5234,446.3623 309.6436,446.3623 Q307.2754,446.3623 305.6885,444.9707 Q304.126,443.5547 304.126,441.4307 L304.126,440.1855 Q304.126,437.9395 305.5908,436.4258 Q307.0557,434.9121 309.2285,434.9121 Q310.5469,434.9121 311.8896,435.5469 L312.085,435.6201 Q312.4023,435.1563 312.8662,435.1563 Q313.4277,435.1563 313.623,435.4736 Q313.8184,435.791 313.8184,436.4014 L313.8184,437.9639 Q313.8184,439.209 312.8662,439.209 Q312.5244,439.209 312.3047,439.0381 Q312.1094,438.8428 312.0605,438.6963 Q312.0117,438.5254 311.9629,438.208 Q311.8408,437.6465 311.2549,437.3047 Q310.6934,436.9629 310.2051,436.8652 Q309.7168,436.7676 309.3018,436.7676 Q307.8857,436.7676 306.9336,437.7441 Q306.0059,438.6963 306.0059,440.1855 L306.0059,441.3818 Q306.0059,442.7979 307.0068,443.6523 Q308.0078,444.4824 309.6924,444.4824 Z " fill="#000000"/><text fill="#000000" font-family="sans-serif" font-size="18.75" lengthAdjust="spacing" textLength="139.0625" x="334.7656" y="448.1251">UndoTableValue</text><line style="stroke:#383838;stroke-width:2.34375;" x1="264.0625" x2="501.5625" y1="464.0625" y2="464.0625"/><text fill="#000000" font-family="sans-serif" font-size="18.75" lengthAdjust="spacing" textLength="221.875" x="271.875" y="489.0626">column: UndoTableColumn</text><text fill="#000000" font-family="sans-serif" font-size="18.75" lengthAdjust="spacing" textLength="126.5625" x="271.875" y="511.5628">oldValue: string</text><text fill="#000000" font-family="sans-serif" font-size="18.75" lengthAdjust="spacing" textLength="134.375" x="271.875" y="534.0629">newValue: string</text><!--MD5=[5e0710945428d04fa95cffb1855863bb]
link UndoActionCategory to UndoAction--><path codeLine="47" d="M245.3125,116.2031 C245.3125,119.3438 245.3125,122.5156 245.3125,125.6875 " fill="none" id="UndoActionCategory-to-UndoAction" style="stroke:#383838;stroke-width:1.5625;"/><polygon fill="#383838" points="245.3125,146.2656,251.5625,136.8906,245.3125,127.5156,239.0625,136.8906,245.3125,146.2656" style="stroke:#383838;stroke-width:1.5625;"/><!--MD5=[c002c9c8da36a496d03e2b7c23687394]
reverse link UndoAction to UndoChange--><path codeLine="48" d="M245.3125,249.3437 C245.3125,252.5625 245.3125,255.7969 245.3125,259.0312 " fill="none" id="UndoAction-backto-UndoChange" style="stroke:#383838;stroke-width:1.5625;"/><polygon fill="#383838" points="245.3125,228.6719,239.0625,238.0469,245.3125,247.4219,251.5625,238.0469,245.3125,228.6719" style="stroke:#383838;stroke-width:1.5625;"/><!--MD5=[3164230bdb99e7771de5a9f1bb61cd05]
reverse link UndoChange to UndoTableValue--><path codeLine="49" d="M314.0625,401.5625 C318.625,406.6875 323.1875,411.8281 327.6719,416.8594 " fill="none" id="UndoChange-backto-UndoTableValue" style="stroke:#383838;stroke-width:1.5625;"/><polygon fill="#383838" points="300.4531,386.25,302.0153,397.4085,312.9163,400.2582,311.3541,389.0997,300.4531,386.25" style="stroke:#383838;stroke-width:1.5625;"/><!--MD5=[9fae8c79969f95c04158f081bce84f97]
reverse link UndoChange to UndoChangeType--><path codeLine="50" d="M177.3438,401.5625 C172.8438,406.6875 168.3281,411.8281 163.8906,416.8594 " fill="none" id="UndoChange-backto-UndoChangeType" style="stroke:#383838;stroke-width:1.5625;"/><polygon fill="#383838" points="190.8125,386.25,179.9273,389.1594,178.4262,400.3263,189.3114,397.4169,190.8125,386.25" style="stroke:#383838;stroke-width:1.5625;"/><!--MD5=[efb67fa7e0538872183b64fe4ae446eb]
reverse link UndoTableColumn to UndoTable--><path codeLine="51" d="M382.8125,722.4063 C382.8125,725.8906 382.8125,729.3125 382.8125,732.6406 " fill="none" id="UndoTableColumn-backto-UndoTable" style="stroke:#383838;stroke-width:1.5625;"/><polygon fill="#383838" points="382.8125,702,376.5625,711.375,382.8125,720.75,389.0625,711.375,382.8125,702" style="stroke:#383838;stroke-width:1.5625;"/><!--MD5=[3cec1327cc45dd9c94ebccfc70173fa5]
reverse link UndoTableValue to UndoTableColumn--><path codeLine="52" d="M382.8125,564.6563 C382.8125,568.0156 382.8125,571.375 382.8125,574.6719 " fill="none" id="UndoTableValue-backto-UndoTableColumn" style="stroke:#383838;stroke-width:1.5625;"/><polygon fill="#383838" points="382.8125,544.0625,376.5625,553.4375,382.8125,562.8125,389.0625,553.4375,382.8125,544.0625" style="stroke:#383838;stroke-width:1.5625;"/><!--MD5=[ec00fe2cd1eb75568bdce642a9ad8c46]
@startuml
skinparam monochrome true
skinparam ranksep 20
skinparam dpi 150
skinparam packageTitleAlignment left
skinparam usecaseBorderThickness 0.4
skinparam defaultFontSize 12
skinparam rectangleBorderThickness 1
hide methods

class UndoActionCategory {
  name: string
  icon: string
}

class UndoAction {
  createdAt: Date
}

class UndoChange {
  type: UndoChangeType
  category: UndoActionCategory
  rowId: int
}

enum UndoChangeType {
  Insert
  Update
  Delete
}

class UndoTable {
  name: string
}

class UndoTableColumn {
  name: string
  type: string
  table: UndoTable
}

class UndoTableValue {
  column: UndoTableColumn
  oldValue: string
  newValue: string
}

UndoActionCategory - -* UndoAction
UndoAction *- - UndoChange
UndoChange *- - UndoTableValue
UndoChange *- - UndoChangeType
UndoTable -up-* UndoTableColumn
UndoTableValue *- - UndoTableColumn
@enduml

PlantUML version 1.2021.16(Wed Dec 08 17:25:22 GMT 2021)
(GPL source distribution)
Java Runtime: OpenJDK Runtime Environment
JVM: OpenJDK 64-Bit Server VM
Default Encoding: UTF-8
Language: en
Country: US
--></g></svg>