<?xml version="1.0" encoding="UTF-8" standalone="no"?><svg xmlns="http://www.w3.org/2000/svg" xmlns:xlink="http://www.w3.org/1999/xlink" contentScriptType="application/ecmascript" contentStyleType="text/css" height="756.25px" preserveAspectRatio="none" style="width:829px;height:756px;" version="1.1" viewBox="0 0 829 756" width="829.6875px" zoomAndPan="magnify"><defs><filter height="300%" id="f13tyyhgb4t6nb" width="300%" x="-1" y="-1"><feGaussianBlur result="blurOut" stdDeviation="3.125"/><feColorMatrix in="blurOut" result="blurOut2" type="matrix" values="0 0 0 0 0 0 0 0 0 0 0 0 0 0 0 0 0 0 .4 0"/><feOffset dx="6.25" dy="6.25" in="blurOut2" result="blurOut3"/><feBlend in="SourceGraphic" in2="blurOut3" mode="normal"/></filter></defs><g><!--class Category--><rect fill="#F8F8F8" filter="url(#f13tyyhgb4t6nb)" height="82.959" id="Category" style="stroke: #383838; stroke-width: 2.34375;" width="126.5625" x="274.2188" y="471.875"/><ellipse cx="297.5" cy="495.3125" fill="#C2C2C2" rx="15.625" ry="15.625" style="stroke: #383838; stroke-width: 1.5625;"/><path d="M299.8193,490.9424 Q299.9902,490.6982 300.1855,490.5762 Q300.4053,490.4541 300.6494,490.4541 Q301.0645,490.4541 301.3086,490.7471 Q301.5771,491.04 301.5771,491.6992 L301.5771,493.3105 Q301.5771,493.9697 301.3086,494.2627 Q301.0645,494.5557 300.6494,494.5557 Q300.2588,494.5557 300.0391,494.3359 Q299.8193,494.1406 299.6973,493.5547 Q299.6484,493.1641 299.4531,492.9688 Q299.0625,492.5537 298.3789,492.3096 Q297.7197,492.0654 297.0361,492.0654 Q296.2061,492.0654 295.498,492.4316 Q294.79,492.7979 294.2529,493.6279 Q293.7158,494.4336 293.7158,495.5811 L293.7158,496.8018 Q293.7158,498.1445 294.6924,499.0479 Q295.6934,499.9512 297.4268,499.9512 Q298.4766,499.9512 299.209,499.6826 Q299.624,499.5117 300.0879,499.0234 Q300.3809,498.7305 300.5518,498.6572 Q300.7227,498.5596 300.918,498.5596 Q301.3086,498.5596 301.5771,498.8525 Q301.8701,499.1211 301.8701,499.5117 Q301.8701,499.9023 301.4795,500.3418 Q300.918,500.9766 300.0391,501.3428 Q298.8672,501.8311 297.4512,501.8311 Q295.7666,501.8311 294.4482,501.1475 Q293.3496,500.6104 292.5928,499.4141 Q291.8359,498.2178 291.8359,496.8262 L291.8359,495.5566 Q291.8359,494.0918 292.5195,492.8223 Q293.2031,491.5527 294.3994,490.8691 Q295.6201,490.1855 296.9629,490.1855 Q297.793,490.1855 298.501,490.3809 Q299.209,490.5518 299.8193,490.9424 Z "/><text fill="#000000" font-family="sans-serif" font-size="18.75" lengthAdjust="spacingAndGlyphs" textLength="76.5625" x="318.125" y="502.9846">Category</text><line style="stroke: #383838; stroke-width: 2.34375;" x1="275.7813" x2="399.2188" y1="518.75" y2="518.75"/><text fill="#000000" font-family="sans-serif" font-size="18.75" lengthAdjust="spacingAndGlyphs" textLength="107.8125" x="283.5938" y="544.4641">name: string</text><!--class Action--><rect fill="#F8F8F8" filter="url(#f13tyyhgb4t6nb)" height="130.127" id="Action" style="stroke: #383838; stroke-width: 2.34375;" width="164.0625" x="255.4688" y="310.9375"/><ellipse cx="306.875" cy="334.375" fill="#C2C2C2" rx="15.625" ry="15.625" style="stroke: #383838; stroke-width: 1.5625;"/><path d="M309.1943,330.0049 Q309.3652,329.7607 309.5605,329.6387 Q309.7803,329.5166 310.0244,329.5166 Q310.4395,329.5166 310.6836,329.8096 Q310.9521,330.1025 310.9521,330.7617 L310.9521,332.373 Q310.9521,333.0322 310.6836,333.3252 Q310.4395,333.6182 310.0244,333.6182 Q309.6338,333.6182 309.4141,333.3984 Q309.1943,333.2031 309.0723,332.6172 Q309.0234,332.2266 308.8281,332.0313 Q308.4375,331.6162 307.7539,331.3721 Q307.0947,331.1279 306.4111,331.1279 Q305.5811,331.1279 304.873,331.4941 Q304.165,331.8604 303.6279,332.6904 Q303.0908,333.4961 303.0908,334.6436 L303.0908,335.8643 Q303.0908,337.207 304.0674,338.1104 Q305.0684,339.0137 306.8018,339.0137 Q307.8516,339.0137 308.584,338.7451 Q308.999,338.5742 309.4629,338.0859 Q309.7559,337.793 309.9268,337.7197 Q310.0977,337.6221 310.293,337.6221 Q310.6836,337.6221 310.9521,337.915 Q311.2451,338.1836 311.2451,338.5742 Q311.2451,338.9648 310.8545,339.4043 Q310.293,340.0391 309.4141,340.4053 Q308.2422,340.8936 306.8262,340.8936 Q305.1416,340.8936 303.8232,340.21 Q302.7246,339.6729 301.9678,338.4766 Q301.2109,337.2803 301.2109,335.8887 L301.2109,334.6191 Q301.2109,333.1543 301.8945,331.8848 Q302.5781,330.6152 303.7744,329.9316 Q304.9951,329.248 306.3379,329.248 Q307.168,329.248 307.876,329.4434 Q308.584,329.6143 309.1943,330.0049 Z "/><text fill="#000000" font-family="sans-serif" font-size="18.75" lengthAdjust="spacingAndGlyphs" textLength="51.5625" x="333.75" y="342.0471">Action</text><line style="stroke: #383838; stroke-width: 2.34375;" x1="257.0313" x2="417.9688" y1="357.8125" y2="357.8125"/><text fill="#000000" font-family="sans-serif" font-size="18.75" lengthAdjust="spacingAndGlyphs" textLength="129.6875" x="264.8438" y="383.5266">createdAt: Date</text><text fill="#000000" font-family="sans-serif" font-size="18.75" lengthAdjust="spacingAndGlyphs" textLength="120.3125" x="264.8438" y="407.1106">orderIndex: int</text><text fill="#000000" font-family="sans-serif" font-size="18.75" lengthAdjust="spacingAndGlyphs" textLength="145.3125" x="264.8438" y="430.6946">undone: boolean</text><!--class Change--><rect fill="#F8F8F8" filter="url(#f13tyyhgb4t6nb)" height="106.543" id="Change" style="stroke: #383838; stroke-width: 2.34375;" width="139.0625" x="485.1563" y="161.7188"/><ellipse cx="517.5781" cy="185.1563" fill="#C2C2C2" rx="15.625" ry="15.625" style="stroke: #383838; stroke-width: 1.5625;"/><path d="M519.8975,180.7861 Q520.0684,180.542 520.2637,180.4199 Q520.4834,180.2979 520.7275,180.2979 Q521.1426,180.2979 521.3867,180.5908 Q521.6553,180.8838 521.6553,181.543 L521.6553,183.1543 Q521.6553,183.8135 521.3867,184.1064 Q521.1426,184.3994 520.7275,184.3994 Q520.3369,184.3994 520.1172,184.1797 Q519.8975,183.9844 519.7754,183.3984 Q519.7266,183.0078 519.5313,182.8125 Q519.1406,182.3975 518.457,182.1533 Q517.7979,181.9092 517.1143,181.9092 Q516.2842,181.9092 515.5762,182.2754 Q514.8682,182.6416 514.3311,183.4717 Q513.7939,184.2773 513.7939,185.4248 L513.7939,186.6455 Q513.7939,187.9883 514.7705,188.8916 Q515.7715,189.7949 517.5049,189.7949 Q518.5547,189.7949 519.2871,189.5264 Q519.7021,189.3555 520.166,188.8672 Q520.459,188.5742 520.6299,188.501 Q520.8008,188.4033 520.9961,188.4033 Q521.3867,188.4033 521.6553,188.6963 Q521.9482,188.9648 521.9482,189.3555 Q521.9482,189.7461 521.5576,190.1855 Q520.9961,190.8203 520.1172,191.1865 Q518.9453,191.6748 517.5293,191.6748 Q515.8447,191.6748 514.5264,190.9912 Q513.4277,190.4541 512.6709,189.2578 Q511.9141,188.0615 511.9141,186.6699 L511.9141,185.4004 Q511.9141,183.9355 512.5977,182.666 Q513.2813,181.3965 514.4775,180.7129 Q515.6982,180.0293 517.041,180.0293 Q517.8711,180.0293 518.5791,180.2246 Q519.2871,180.3955 519.8975,180.7861 Z "/><text fill="#000000" font-family="sans-serif" font-size="18.75" lengthAdjust="spacingAndGlyphs" textLength="68.75" x="540.2344" y="192.8284">Change</text><line style="stroke: #383838; stroke-width: 2.34375;" x1="486.7188" x2="622.6563" y1="208.5938" y2="208.5938"/><text fill="#000000" font-family="sans-serif" font-size="18.75" lengthAdjust="spacingAndGlyphs" textLength="76.5625" x="494.5313" y="234.3079">rowId: int</text><text fill="#000000" font-family="sans-serif" font-size="18.75" lengthAdjust="spacingAndGlyphs" textLength="120.3125" x="494.5313" y="257.8918">orderIndex: int</text><!--class ChangeType--><rect fill="#F8F8F8" filter="url(#f13tyyhgb4t6nb)" height="130.127" id="ChangeType" style="stroke: #383838; stroke-width: 2.34375;" width="156.25" x="475" y="310.9375"/><ellipse cx="496.875" cy="334.375" fill="#ABABAB" rx="15.625" ry="15.625" style="stroke: #383838; stroke-width: 1.5625;"/><path d="M496.6797,335.9863 L496.6797,338.7451 L501.4648,338.7451 L501.4648,337.7197 Q501.4648,337.0605 501.709,336.7676 Q501.9775,336.4746 502.3926,336.4746 Q502.8076,336.4746 503.0762,336.7676 Q503.3447,337.0605 503.3447,337.7197 L503.3447,340.625 L494.5068,340.625 Q493.8232,340.625 493.5303,340.3809 Q493.2373,340.1123 493.2373,339.6729 Q493.2373,339.2578 493.5303,339.0137 Q493.8232,338.7451 494.5068,338.7451 L494.7998,338.7451 L494.7998,331.3965 L494.5068,331.3965 Q493.8232,331.3965 493.5303,331.1523 Q493.2373,330.8838 493.2373,330.4688 Q493.2373,330.0293 493.5303,329.7852 Q493.8232,329.5166 494.5068,329.5166 L502.9297,329.5166 L502.9297,332.373 Q502.9297,333.0566 502.6611,333.3496 Q502.417,333.6182 501.9775,333.6182 Q501.5625,333.6182 501.2939,333.3496 Q501.0498,333.0566 501.0498,332.373 L501.0498,331.3965 L496.6797,331.3965 L496.6797,334.1064 L498.3154,334.1064 Q498.3154,333.374 498.4619,333.1787 Q498.7305,332.7148 499.2676,332.7148 Q499.6826,332.7148 499.9268,333.0078 Q500.1953,333.3008 500.1953,333.9844 L500.1953,336.1328 Q500.1953,336.7432 500.0488,336.9629 Q499.7559,337.4023 499.2676,337.4023 Q498.7305,337.4023 498.4619,336.9385 Q498.3154,336.7432 498.3154,335.9863 L496.6797,335.9863 Z "/><text fill="#000000" font-family="sans-serif" font-size="18.75" lengthAdjust="spacingAndGlyphs" textLength="109.375" x="517.1875" y="342.0471">ChangeType</text><line style="stroke: #383838; stroke-width: 2.34375;" x1="476.5625" x2="629.6875" y1="357.8125" y2="357.8125"/><text fill="#000000" font-family="sans-serif" font-size="18.75" lengthAdjust="spacingAndGlyphs" textLength="48.4375" x="484.375" y="383.5266">Insert</text><text fill="#000000" font-family="sans-serif" font-size="18.75" lengthAdjust="spacingAndGlyphs" textLength="62.5" x="484.375" y="407.1106">Update</text><text fill="#000000" font-family="sans-serif" font-size="18.75" lengthAdjust="spacingAndGlyphs" textLength="56.25" x="484.375" y="430.6946">Delete</text><!--class Table--><rect fill="#F8F8F8" filter="url(#f13tyyhgb4t6nb)" height="82.959" id="Table" style="stroke: #383838; stroke-width: 2.34375;" width="126.5625" x="686.7188" y="334.375"/><ellipse cx="722.6563" cy="357.8125" fill="#C2C2C2" rx="15.625" ry="15.625" style="stroke: #383838; stroke-width: 1.5625;"/><path d="M724.9756,353.4424 Q725.1465,353.1982 725.3418,353.0762 Q725.5615,352.9541 725.8057,352.9541 Q726.2207,352.9541 726.4648,353.2471 Q726.7334,353.54 726.7334,354.1992 L726.7334,355.8105 Q726.7334,356.4697 726.4648,356.7627 Q726.2207,357.0557 725.8057,357.0557 Q725.415,357.0557 725.1953,356.8359 Q724.9756,356.6406 724.8535,356.0547 Q724.8047,355.6641 724.6094,355.4688 Q724.2188,355.0537 723.5352,354.8096 Q722.876,354.5654 722.1924,354.5654 Q721.3623,354.5654 720.6543,354.9316 Q719.9463,355.2979 719.4092,356.1279 Q718.8721,356.9336 718.8721,358.0811 L718.8721,359.3018 Q718.8721,360.6445 719.8486,361.5479 Q720.8496,362.4512 722.583,362.4512 Q723.6328,362.4512 724.3652,362.1826 Q724.7803,362.0117 725.2441,361.5234 Q725.5371,361.2305 725.708,361.1572 Q725.8789,361.0596 726.0742,361.0596 Q726.4648,361.0596 726.7334,361.3525 Q727.0264,361.6211 727.0264,362.0117 Q727.0264,362.4023 726.6357,362.8418 Q726.0742,363.4766 725.1953,363.8428 Q724.0234,364.3311 722.6074,364.3311 Q720.9229,364.3311 719.6045,363.6475 Q718.5059,363.1104 717.749,361.9141 Q716.9922,360.7178 716.9922,359.3262 L716.9922,358.0566 Q716.9922,356.5918 717.6758,355.3223 Q718.3594,354.0527 719.5557,353.3691 Q720.7764,352.6855 722.1191,352.6855 Q722.9492,352.6855 723.6572,352.8809 Q724.3652,353.0518 724.9756,353.4424 Z "/><text fill="#000000" font-family="sans-serif" font-size="18.75" lengthAdjust="spacingAndGlyphs" textLength="48.4375" x="746.0938" y="365.4846">Table</text><line style="stroke: #383838; stroke-width: 2.34375;" x1="688.2813" x2="811.7188" y1="381.25" y2="381.25"/><text fill="#000000" font-family="sans-serif" font-size="18.75" lengthAdjust="spacingAndGlyphs" textLength="107.8125" x="696.0938" y="406.9641">name: string</text><!--class Column--><rect fill="#F8F8F8" filter="url(#f13tyyhgb4t6nb)" height="106.543" id="Column" style="stroke: #383838; stroke-width: 2.34375;" width="126.5625" x="683.5938" y="161.7188"/><ellipse cx="710.3906" cy="185.1563" fill="#C2C2C2" rx="15.625" ry="15.625" style="stroke: #383838; stroke-width: 1.5625;"/><path d="M712.71,180.7861 Q712.8809,180.542 713.0762,180.4199 Q713.2959,180.2979 713.54,180.2979 Q713.9551,180.2979 714.1992,180.5908 Q714.4678,180.8838 714.4678,181.543 L714.4678,183.1543 Q714.4678,183.8135 714.1992,184.1064 Q713.9551,184.3994 713.54,184.3994 Q713.1494,184.3994 712.9297,184.1797 Q712.71,183.9844 712.5879,183.3984 Q712.5391,183.0078 712.3438,182.8125 Q711.9531,182.3975 711.2695,182.1533 Q710.6104,181.9092 709.9268,181.9092 Q709.0967,181.9092 708.3887,182.2754 Q707.6807,182.6416 707.1436,183.4717 Q706.6064,184.2773 706.6064,185.4248 L706.6064,186.6455 Q706.6064,187.9883 707.583,188.8916 Q708.584,189.7949 710.3174,189.7949 Q711.3672,189.7949 712.0996,189.5264 Q712.5146,189.3555 712.9785,188.8672 Q713.2715,188.5742 713.4424,188.501 Q713.6133,188.4033 713.8086,188.4033 Q714.1992,188.4033 714.4678,188.6963 Q714.7607,188.9648 714.7607,189.3555 Q714.7607,189.7461 714.3701,190.1855 Q713.8086,190.8203 712.9297,191.1865 Q711.7578,191.6748 710.3418,191.6748 Q708.6572,191.6748 707.3389,190.9912 Q706.2402,190.4541 705.4834,189.2578 Q704.7266,188.0615 704.7266,186.6699 L704.7266,185.4004 Q704.7266,183.9355 705.4102,182.666 Q706.0938,181.3965 707.29,180.7129 Q708.5107,180.0293 709.8535,180.0293 Q710.6836,180.0293 711.3916,180.2246 Q712.0996,180.3955 712.71,180.7861 Z "/><text fill="#000000" font-family="sans-serif" font-size="18.75" lengthAdjust="spacingAndGlyphs" textLength="68.75" x="731.7969" y="192.8284">Column</text><line style="stroke: #383838; stroke-width: 2.34375;" x1="685.1563" x2="808.5938" y1="208.5938" y2="208.5938"/><text fill="#000000" font-family="sans-serif" font-size="18.75" lengthAdjust="spacingAndGlyphs" textLength="107.8125" x="692.9688" y="234.3079">name: string</text><text fill="#000000" font-family="sans-serif" font-size="18.75" lengthAdjust="spacingAndGlyphs" textLength="92.1875" x="692.9688" y="257.8918">type: string</text><!--class Value--><rect fill="#F8F8F8" filter="url(#f13tyyhgb4t6nb)" height="106.543" id="Value" style="stroke: #383838; stroke-width: 2.34375;" width="160.9375" x="567.9688" y="12.5"/><ellipse cx="619.375" cy="35.9375" fill="#C2C2C2" rx="15.625" ry="15.625" style="stroke: #383838; stroke-width: 1.5625;"/><path d="M621.6943,31.5674 Q621.8652,31.3232 622.0605,31.2012 Q622.2803,31.0791 622.5244,31.0791 Q622.9395,31.0791 623.1836,31.3721 Q623.4521,31.665 623.4521,32.3242 L623.4521,33.9355 Q623.4521,34.5947 623.1836,34.8877 Q622.9395,35.1807 622.5244,35.1807 Q622.1338,35.1807 621.9141,34.9609 Q621.6943,34.7656 621.5723,34.1797 Q621.5234,33.7891 621.3281,33.5938 Q620.9375,33.1787 620.2539,32.9346 Q619.5947,32.6904 618.9111,32.6904 Q618.0811,32.6904 617.373,33.0566 Q616.665,33.4229 616.1279,34.2529 Q615.5908,35.0586 615.5908,36.2061 L615.5908,37.4268 Q615.5908,38.7695 616.5674,39.6729 Q617.5684,40.5762 619.3018,40.5762 Q620.3516,40.5762 621.084,40.3076 Q621.499,40.1367 621.9629,39.6484 Q622.2559,39.3555 622.4268,39.2822 Q622.5977,39.1846 622.793,39.1846 Q623.1836,39.1846 623.4521,39.4775 Q623.7451,39.7461 623.7451,40.1367 Q623.7451,40.5273 623.3545,40.9668 Q622.793,41.6016 621.9141,41.9678 Q620.7422,42.4561 619.3262,42.4561 Q617.6416,42.4561 616.3232,41.7725 Q615.2246,41.2354 614.4678,40.0391 Q613.7109,38.8428 613.7109,37.4512 L613.7109,36.1816 Q613.7109,34.7168 614.3945,33.4473 Q615.0781,32.1777 616.2744,31.4941 Q617.4951,30.8105 618.8379,30.8105 Q619.668,30.8105 620.376,31.0059 Q621.084,31.1768 621.6943,31.5674 Z "/><text fill="#000000" font-family="sans-serif" font-size="18.75" lengthAdjust="spacingAndGlyphs" textLength="48.4375" x="646.25" y="43.6096">Value</text><line style="stroke: #383838; stroke-width: 2.34375;" x1="569.5313" x2="727.3438" y1="59.375" y2="59.375"/><text fill="#000000" font-family="sans-serif" font-size="18.75" lengthAdjust="spacingAndGlyphs" textLength="132.8125" x="577.3438" y="85.0891">oldValue: string</text><text fill="#000000" font-family="sans-serif" font-size="18.75" lengthAdjust="spacingAndGlyphs" textLength="142.1875" x="577.3438" y="108.6731">newValue: string</text><!--class Channel--><rect fill="#F8F8F8" filter="url(#f13tyyhgb4t6nb)" height="59.375" id="Channel" style="stroke: #383838; stroke-width: 2.34375;" width="120.3125" x="572.6563" y="483.5938"/><ellipse cx="594.5313" cy="507.0313" fill="#C2C2C2" rx="15.625" ry="15.625" style="stroke: #383838; stroke-width: 1.5625;"/><path d="M596.8506,502.6611 Q597.0215,502.417 597.2168,502.2949 Q597.4365,502.1729 597.6807,502.1729 Q598.0957,502.1729 598.3398,502.4658 Q598.6084,502.7588 598.6084,503.418 L598.6084,505.0293 Q598.6084,505.6885 598.3398,505.9814 Q598.0957,506.2744 597.6807,506.2744 Q597.29,506.2744 597.0703,506.0547 Q596.8506,505.8594 596.7285,505.2734 Q596.6797,504.8828 596.4844,504.6875 Q596.0938,504.2725 595.4102,504.0283 Q594.751,503.7842 594.0674,503.7842 Q593.2373,503.7842 592.5293,504.1504 Q591.8213,504.5166 591.2842,505.3467 Q590.7471,506.1523 590.7471,507.2998 L590.7471,508.5205 Q590.7471,509.8633 591.7236,510.7666 Q592.7246,511.6699 594.458,511.6699 Q595.5078,511.6699 596.2402,511.4014 Q596.6553,511.2305 597.1191,510.7422 Q597.4121,510.4492 597.583,510.376 Q597.7539,510.2783 597.9492,510.2783 Q598.3398,510.2783 598.6084,510.5713 Q598.9014,510.8398 598.9014,511.2305 Q598.9014,511.6211 598.5107,512.0605 Q597.9492,512.6953 597.0703,513.0615 Q595.8984,513.5498 594.4824,513.5498 Q592.7979,513.5498 591.4795,512.8662 Q590.3809,512.3291 589.624,511.1328 Q588.8672,509.9365 588.8672,508.5449 L588.8672,507.2754 Q588.8672,505.8105 589.5508,504.541 Q590.2344,503.2715 591.4307,502.5879 Q592.6514,501.9043 593.9941,501.9043 Q594.8242,501.9043 595.5322,502.0996 Q596.2402,502.2705 596.8506,502.6611 Z "/><text fill="#000000" font-family="sans-serif" font-size="18.75" lengthAdjust="spacingAndGlyphs" textLength="73.4375" x="614.8438" y="514.7034">Channel</text><line style="stroke: #383838; stroke-width: 2.34375;" x1="574.2188" x2="691.4063" y1="530.4688" y2="530.4688"/><!--class ChannelStatus--><rect fill="#F8F8F8" filter="url(#f13tyyhgb4t6nb)" height="153.7109" id="ChannelStatus" style="stroke: #383838; stroke-width: 2.34375;" width="175" x="545.3125" y="585.9375"/><ellipse cx="567.1875" cy="609.375" fill="#ABABAB" rx="15.625" ry="15.625" style="stroke: #383838; stroke-width: 1.5625;"/><path d="M566.9922,610.9863 L566.9922,613.7451 L571.7773,613.7451 L571.7773,612.7197 Q571.7773,612.0605 572.0215,611.7676 Q572.29,611.4746 572.7051,611.4746 Q573.1201,611.4746 573.3887,611.7676 Q573.6572,612.0605 573.6572,612.7197 L573.6572,615.625 L564.8193,615.625 Q564.1357,615.625 563.8428,615.3809 Q563.5498,615.1123 563.5498,614.6729 Q563.5498,614.2578 563.8428,614.0137 Q564.1357,613.7451 564.8193,613.7451 L565.1123,613.7451 L565.1123,606.3965 L564.8193,606.3965 Q564.1357,606.3965 563.8428,606.1523 Q563.5498,605.8838 563.5498,605.4688 Q563.5498,605.0293 563.8428,604.7852 Q564.1357,604.5166 564.8193,604.5166 L573.2422,604.5166 L573.2422,607.373 Q573.2422,608.0566 572.9736,608.3496 Q572.7295,608.6182 572.29,608.6182 Q571.875,608.6182 571.6064,608.3496 Q571.3623,608.0566 571.3623,607.373 L571.3623,606.3965 L566.9922,606.3965 L566.9922,609.1064 L568.6279,609.1064 Q568.6279,608.374 568.7744,608.1787 Q569.043,607.7148 569.5801,607.7148 Q569.9951,607.7148 570.2393,608.0078 Q570.5078,608.3008 570.5078,608.9844 L570.5078,611.1328 Q570.5078,611.7432 570.3613,611.9629 Q570.0684,612.4023 569.5801,612.4023 Q569.043,612.4023 568.7744,611.9385 Q568.6279,611.7432 568.6279,610.9863 L566.9922,610.9863 Z "/><text fill="#000000" font-family="sans-serif" font-size="18.75" lengthAdjust="spacingAndGlyphs" textLength="128.125" x="587.5" y="617.0471">ChannelStatus</text><line style="stroke: #383838; stroke-width: 2.34375;" x1="546.875" x2="718.75" y1="632.8125" y2="632.8125"/><text fill="#000000" font-family="sans-serif" font-size="18.75" lengthAdjust="spacingAndGlyphs" textLength="54.6875" x="554.6875" y="658.5266">Ready</text><text fill="#000000" font-family="sans-serif" font-size="18.75" lengthAdjust="spacingAndGlyphs" textLength="73.4375" x="554.6875" y="682.1106">Undoing</text><text fill="#000000" font-family="sans-serif" font-size="18.75" lengthAdjust="spacingAndGlyphs" textLength="89.0625" x="554.6875" y="705.6946">Recording</text><text fill="#000000" font-family="sans-serif" font-size="18.75" lengthAdjust="spacingAndGlyphs" textLength="73.4375" x="554.6875" y="729.2786">Redoing</text><!--class CleanUpTask--><rect fill="#F8F8F8" filter="url(#f13tyyhgb4t6nb)" height="106.543" id="CleanUpTask" style="stroke: #383838; stroke-width: 2.34375;" width="200" x="12.5" y="12.5"/><ellipse cx="49.8438" cy="35.9375" fill="#C2C2C2" rx="15.625" ry="15.625" style="stroke: #383838; stroke-width: 1.5625;"/><path d="M52.1631,31.5674 Q52.334,31.3232 52.5293,31.2012 Q52.749,31.0791 52.9932,31.0791 Q53.4082,31.0791 53.6523,31.3721 Q53.9209,31.665 53.9209,32.3242 L53.9209,33.9355 Q53.9209,34.5947 53.6523,34.8877 Q53.4082,35.1807 52.9932,35.1807 Q52.6025,35.1807 52.3828,34.9609 Q52.1631,34.7656 52.041,34.1797 Q51.9922,33.7891 51.7969,33.5938 Q51.4063,33.1787 50.7227,32.9346 Q50.0635,32.6904 49.3799,32.6904 Q48.5498,32.6904 47.8418,33.0566 Q47.1338,33.4229 46.5967,34.2529 Q46.0596,35.0586 46.0596,36.2061 L46.0596,37.4268 Q46.0596,38.7695 47.0361,39.6729 Q48.0371,40.5762 49.7705,40.5762 Q50.8203,40.5762 51.5527,40.3076 Q51.9678,40.1367 52.4316,39.6484 Q52.7246,39.3555 52.8955,39.2822 Q53.0664,39.1846 53.2617,39.1846 Q53.6523,39.1846 53.9209,39.4775 Q54.2139,39.7461 54.2139,40.1367 Q54.2139,40.5273 53.8232,40.9668 Q53.2617,41.6016 52.3828,41.9678 Q51.2109,42.4561 49.7949,42.4561 Q48.1104,42.4561 46.792,41.7725 Q45.6934,41.2354 44.9365,40.0391 Q44.1797,38.8428 44.1797,37.4512 L44.1797,36.1816 Q44.1797,34.7168 44.8633,33.4473 Q45.5469,32.1777 46.7432,31.4941 Q47.9639,30.8105 49.3066,30.8105 Q50.1367,30.8105 50.8447,31.0059 Q51.5527,31.1768 52.1631,31.5674 Z "/><text fill="#000000" font-family="sans-serif" font-size="18.75" lengthAdjust="spacingAndGlyphs" textLength="118.75" x="73.5938" y="43.6096">CleanUpTask</text><line style="stroke: #383838; stroke-width: 2.34375;" x1="14.0625" x2="210.9375" y1="59.375" y2="59.375"/><text fill="#000000" font-family="sans-serif" font-size="18.75" lengthAdjust="spacingAndGlyphs" textLength="107.8125" x="21.875" y="85.0891">name: string</text><text fill="#000000" font-family="sans-serif" font-size="18.75" lengthAdjust="spacingAndGlyphs" textLength="181.25" x="21.875" y="108.6731">refTableName: string</text><!--class CleanUpTaskType--><rect fill="#F8F8F8" filter="url(#f13tyyhgb4t6nb)" height="130.127" id="CleanUpTaskType" style="stroke: #383838; stroke-width: 2.34375;" width="206.25" x="9.375" y="150"/><ellipse cx="31.25" cy="173.4375" fill="#ABABAB" rx="15.625" ry="15.625" style="stroke: #383838; stroke-width: 1.5625;"/><path d="M31.0547,175.0488 L31.0547,177.8076 L35.8398,177.8076 L35.8398,176.7822 Q35.8398,176.123 36.084,175.8301 Q36.3525,175.5371 36.7676,175.5371 Q37.1826,175.5371 37.4512,175.8301 Q37.7197,176.123 37.7197,176.7822 L37.7197,179.6875 L28.8818,179.6875 Q28.1982,179.6875 27.9053,179.4434 Q27.6123,179.1748 27.6123,178.7354 Q27.6123,178.3203 27.9053,178.0762 Q28.1982,177.8076 28.8818,177.8076 L29.1748,177.8076 L29.1748,170.459 L28.8818,170.459 Q28.1982,170.459 27.9053,170.2148 Q27.6123,169.9463 27.6123,169.5313 Q27.6123,169.0918 27.9053,168.8477 Q28.1982,168.5791 28.8818,168.5791 L37.3047,168.5791 L37.3047,171.4355 Q37.3047,172.1191 37.0361,172.4121 Q36.792,172.6807 36.3525,172.6807 Q35.9375,172.6807 35.6689,172.4121 Q35.4248,172.1191 35.4248,171.4355 L35.4248,170.459 L31.0547,170.459 L31.0547,173.1689 L32.6904,173.1689 Q32.6904,172.4365 32.8369,172.2412 Q33.1055,171.7773 33.6426,171.7773 Q34.0576,171.7773 34.3018,172.0703 Q34.5703,172.3633 34.5703,173.0469 L34.5703,175.1953 Q34.5703,175.8057 34.4238,176.0254 Q34.1309,176.4648 33.6426,176.4648 Q33.1055,176.4648 32.8369,176.001 Q32.6904,175.8057 32.6904,175.0488 L31.0547,175.0488 Z "/><text fill="#000000" font-family="sans-serif" font-size="18.75" lengthAdjust="spacingAndGlyphs" textLength="159.375" x="51.5625" y="181.1096">CleanUpTaskType</text><line style="stroke: #383838; stroke-width: 2.34375;" x1="10.9375" x2="214.0625" y1="196.875" y2="196.875"/><text fill="#000000" font-family="sans-serif" font-size="18.75" lengthAdjust="spacingAndGlyphs" textLength="40.625" x="18.75" y="222.5891">Root</text><text fill="#000000" font-family="sans-serif" font-size="18.75" lengthAdjust="spacingAndGlyphs" textLength="48.4375" x="18.75" y="246.1731">Table</text><text fill="#000000" font-family="sans-serif" font-size="18.75" lengthAdjust="spacingAndGlyphs" textLength="60.9375" x="18.75" y="269.7571">Trigger</text><!--class Logs--><rect fill="#F8F8F8" filter="url(#f13tyyhgb4t6nb)" height="130.127" id="Logs" style="stroke: #383838; stroke-width: 2.34375;" width="176.5625" x="24.2188" y="310.9375"/><ellipse cx="84.7656" cy="334.375" fill="#C2C2C2" rx="15.625" ry="15.625" style="stroke: #383838; stroke-width: 1.5625;"/><path d="M87.085,330.0049 Q87.2559,329.7607 87.4512,329.6387 Q87.6709,329.5166 87.915,329.5166 Q88.3301,329.5166 88.5742,329.8096 Q88.8428,330.1025 88.8428,330.7617 L88.8428,332.373 Q88.8428,333.0322 88.5742,333.3252 Q88.3301,333.6182 87.915,333.6182 Q87.5244,333.6182 87.3047,333.3984 Q87.085,333.2031 86.9629,332.6172 Q86.9141,332.2266 86.7188,332.0313 Q86.3281,331.6162 85.6445,331.3721 Q84.9854,331.1279 84.3018,331.1279 Q83.4717,331.1279 82.7637,331.4941 Q82.0557,331.8604 81.5186,332.6904 Q80.9814,333.4961 80.9814,334.6436 L80.9814,335.8643 Q80.9814,337.207 81.958,338.1104 Q82.959,339.0137 84.6924,339.0137 Q85.7422,339.0137 86.4746,338.7451 Q86.8896,338.5742 87.3535,338.0859 Q87.6465,337.793 87.8174,337.7197 Q87.9883,337.6221 88.1836,337.6221 Q88.5742,337.6221 88.8428,337.915 Q89.1357,338.1836 89.1357,338.5742 Q89.1357,338.9648 88.7451,339.4043 Q88.1836,340.0391 87.3047,340.4053 Q86.1328,340.8936 84.7168,340.8936 Q83.0322,340.8936 81.7139,340.21 Q80.6152,339.6729 79.8584,338.4766 Q79.1016,337.2803 79.1016,335.8887 L79.1016,334.6191 Q79.1016,333.1543 79.7852,331.8848 Q80.4688,330.6152 81.665,329.9316 Q82.8857,329.248 84.2285,329.248 Q85.0586,329.248 85.7666,329.4434 Q86.4746,329.6143 87.085,330.0049 Z "/><text fill="#000000" font-family="sans-serif" font-size="18.75" lengthAdjust="spacingAndGlyphs" textLength="43.75" x="113.6719" y="342.0471">Logs</text><line style="stroke: #383838; stroke-width: 2.34375;" x1="25.7813" x2="199.2188" y1="357.8125" y2="357.8125"/><text fill="#000000" font-family="sans-serif" font-size="18.75" lengthAdjust="spacingAndGlyphs" textLength="104.6875" x="33.5938" y="383.5266">query: string</text><text fill="#000000" font-family="sans-serif" font-size="18.75" lengthAdjust="spacingAndGlyphs" textLength="157.8125" x="33.5938" y="407.1106">parameters: string</text><text fill="#000000" font-family="sans-serif" font-size="18.75" lengthAdjust="spacingAndGlyphs" textLength="125" x="33.5938" y="430.6946">location: string</text><path d="M25.7813,493.75 L25.7813,532.959 A0,0 0 0 0 25.7813,532.959 L199.2188,532.959 A0,0 0 0 0 199.2188,532.959 L199.2188,509.375 L183.5938,493.75 L118.75,493.75 L112.5,440.9844 L106.25,493.75 L25.7813,493.75 A0,0 0 0 0 25.7813,493.75 " fill="#ECECEC" filter="url(#f13tyyhgb4t6nb)" style="stroke: #383838; stroke-width: 1.5625;"/><path d="M183.5938,493.75 L183.5938,509.375 L199.2188,509.375 L183.5938,493.75 " fill="#ECECEC" style="stroke: #383838; stroke-width: 1.5625;"/><text fill="#000000" font-family="sans-serif" font-size="18.75" lengthAdjust="spacingAndGlyphs" textLength="140.625" x="35.1563" y="521.0266">when DEBUG=1</text><!--link Channel to ChannelStatus--><path d="M632.8125,563.8438 C632.8125,570.8281 632.8125,578.1406 632.8125,585.4844 " fill="none" id="Channel-ChannelStatus" style="stroke: #383838; stroke-width: 1.5625;"/><polygon fill="#FFFFFF" points="632.8125,543.0156,626.5625,552.3906,632.8125,561.7656,639.0625,552.3906,632.8125,543.0156" style="stroke: #383838; stroke-width: 1.5625;"/><!--link Action to Channel--><path d="M438.0312,436.2969 C441,437.7813 443.9531,439.2344 446.875,440.625 C487.7344,460.1094 535.4688,478.2656 572.3438,491.3594 " fill="none" id="Action-Channel" style="stroke: #383838; stroke-width: 1.5625;"/><polygon fill="#FFFFFF" points="419.7656,426.7813,425.1964,436.6534,436.3979,435.4375,430.9672,425.5653,419.7656,426.7813" style="stroke: #383838; stroke-width: 1.5625;"/><!--link Action to Category--><path d="M337.5,461.625 C337.5,464.9219 337.5,468.1406 337.5,471.2813 " fill="none" id="Action-Category" style="stroke: #383838; stroke-width: 1.5625;"/><polygon fill="#FFFFFF" points="337.5,440.9844,331.25,450.3594,337.5,459.7344,343.75,450.3594,337.5,440.9844" style="stroke: #383838; stroke-width: 1.5625;"/><!--link Change to Table--><path d="M634.5156,280.9062 C656.7188,298.8594 680.2031,317.8281 700.1563,333.9375 " fill="none" id="Change-Table" style="stroke: #383838; stroke-width: 1.5625;"/><polygon fill="#FFFFFF" points="618.6406,268.0781,622.0053,278.8314,633.2255,279.8614,629.8608,269.1081,618.6406,268.0781" style="stroke: #383838; stroke-width: 1.5625;"/><!--link Change to Action--><path d="M467.9844,279.4063 C452.2188,290.8594 435.8125,302.7812 420.1719,314.1563 " fill="none" id="Change-Action" style="stroke: #383838; stroke-width: 1.5625;"/><polygon fill="#FFFFFF" points="484.7656,267.2031,473.5072,267.6526,469.592,278.2179,480.8504,277.7684,484.7656,267.2031" style="stroke: #383838; stroke-width: 1.5625;"/><!--link Change to ChangeType--><path d="M553.9688,288.5938 C553.9063,296.0156 553.8281,303.5313 553.75,310.8594 " fill="none" id="Change-ChangeType" style="stroke: #383838; stroke-width: 1.5625;"/><polygon fill="#FFFFFF" points="554.1719,268.0781,547.8295,277.3909,553.9864,286.8272,560.3289,277.5145,554.1719,268.0781" style="stroke: #383838; stroke-width: 1.5625;"/><!--link Table to Channel--><path d="M701.3594,433.125 C686.2656,450.4219 670.2813,468.7656 657.5313,483.375 " fill="none" id="Table-Channel" style="stroke: #383838; stroke-width: 1.5625;"/><polygon fill="#FFFFFF" points="714.8438,417.6563,703.9722,420.6162,702.5231,431.79,713.3947,428.83,714.8438,417.6563" style="stroke: #383838; stroke-width: 1.5625;"/><!--link Column to Table--><path d="M748.3125,288.7969 C748.6094,304.3125 748.9375,320.1719 749.2031,333.9375 " fill="none" id="Column-Table" style="stroke: #383838; stroke-width: 1.5625;"/><polygon fill="#FFFFFF" points="747.8906,268.0781,741.8273,277.5749,748.2614,286.8245,754.3248,277.3277,747.8906,268.0781" style="stroke: #383838; stroke-width: 1.5625;"/><!--link Value to Column--><path d="M695,136.2969 C700.7188,144.7813 706.5,153.3594 712,161.5313 " fill="none" id="Value-Column" style="stroke: #383838; stroke-width: 1.5625;"/><polygon fill="#FFFFFF" points="683.4219,119.1094,683.47,130.3766,693.889,134.6658,693.8409,123.3986,683.4219,119.1094" style="stroke: #383838; stroke-width: 1.5625;"/><!--link Value to Change--><path d="M604.0938,136.2969 C598.6406,144.7813 593.1406,153.3594 587.8906,161.5313 " fill="none" id="Value-Change" style="stroke: #383838; stroke-width: 1.5625;"/><polygon fill="#FFFFFF" points="615.125,119.1094,604.7998,123.6198,604.992,134.8855,615.3172,130.3751,615.125,119.1094" style="stroke: #383838; stroke-width: 1.5625;"/><!--link CleanUpTask to CleanUpTaskType--><path d="M112.5,139.4531 C112.5,142.8125 112.5,146.1719 112.5,149.5156 " fill="none" id="CleanUpTask-CleanUpTaskType" style="stroke: #383838; stroke-width: 1.5625;"/><polygon fill="#FFFFFF" points="112.5,119.1094,106.25,128.4844,112.5,137.8594,118.75,128.4844,112.5,119.1094" style="stroke: #383838; stroke-width: 1.5625;"/><!--link CleanUpTaskType to Logs--><!--
@startuml Tables
skinparam monochrome true
skinparam ranksep 20
skinparam dpi 150
skinparam packageTitleAlignment left
skinparam usecaseBorderThickness 0.4
skinparam defaultFontSize 12
skinparam rectangleBorderThickness 1
hide methods

class Category {
  name: string
}

class Action {
  createdAt: Date
  orderIndex: int
  undone: boolean
}

class Change {
  rowId: int
  orderIndex: int
}

enum ChangeType {
  Insert
  Update
  Delete
}

class Table {
  name: string
}

class Column {
  name: string
  type: string
}

class Value {
  oldValue: string
  newValue: string
}

class Channel {
}

enum ChannelStatus {
  Ready
  Undoing
  Recording
  Redoing
}

class CleanUpTask {
  name: string
  refTableName: string
}

enum CleanUpTaskType {
  Root
  Table
  Trigger
}

class Logs {
  query: string
  parameters: string
  location: string
}

note as NoteLogs
when DEBUG=1
end note

Channel o- - ChannelStatus
Action o- - Channel
Action o- - Category
Change o- - Table
Change o- - Action
Change o- - ChangeType
Table o- - Channel
Column o- - Table 
Value o- - Column
Value o- - Change
CleanUpTask o- - CleanUpTaskType
Logs -[hidden]up- CleanUpTaskType
NoteLogs -[hidden]up- Logs 
@enduml

PlantUML version 1.2019.06(Fri May 24 19:10:25 CEST 2019)
(GPL source distribution)
Java Runtime: OpenJDK Runtime Environment
JVM: OpenJDK 64-Bit Server VM
Java Version: 18.0.1+10
Operating System: Windows 10
OS Version: 10.0
Default Encoding: UTF-8
Language: de
Country: DE
--></g></svg>