<?xml version="1.0" encoding="UTF-8" standalone="no"?><svg xmlns="http://www.w3.org/2000/svg" xmlns:xlink="http://www.w3.org/1999/xlink" contentScriptType="application/ecmascript" contentStyleType="text/css" height="732.8125px" preserveAspectRatio="none" style="width:584px;height:732px;" version="1.1" viewBox="0 0 584 732" width="584.375px" zoomAndPan="magnify"><defs><filter height="300%" id="f1kdt9xxbspgbb" width="300%" x="-1" y="-1"><feGaussianBlur result="blurOut" stdDeviation="3.125"/><feColorMatrix in="blurOut" result="blurOut2" type="matrix" values="0 0 0 0 0 0 0 0 0 0 0 0 0 0 0 0 0 0 .4 0"/><feOffset dx="6.25" dy="6.25" in="blurOut2" result="blurOut3"/><feBlend in="SourceGraphic" in2="blurOut3" mode="normal"/></filter></defs><g><!--class Category--><rect fill="#F8F8F8" filter="url(#f1kdt9xxbspgbb)" height="82.959" id="Category" style="stroke: #383838; stroke-width: 2.34375;" width="126.5625" x="28.125" y="448.4375"/><ellipse cx="51.4063" cy="471.875" fill="#C2C2C2" rx="15.625" ry="15.625" style="stroke: #383838; stroke-width: 1.5625;"/><path d="M53.7256,467.5049 Q53.8965,467.2607 54.104,467.1387 Q54.3115,467.0166 54.5557,467.0166 Q54.9707,467.0166 55.2271,467.3096 Q55.4834,467.6025 55.4834,468.2617 L55.4834,469.873 Q55.4834,470.5322 55.2271,470.8252 Q54.9707,471.1182 54.5557,471.1182 Q54.165,471.1182 53.9453,470.8984 Q53.7256,470.7031 53.6035,470.1172 Q53.5547,469.7266 53.3594,469.5313 Q52.9688,469.1162 52.2974,468.8721 Q51.626,468.6279 50.9424,468.6279 Q50.1123,468.6279 49.4043,468.9941 Q48.6963,469.3604 48.1592,470.1782 Q47.6221,470.9961 47.6221,472.1436 L47.6221,473.3643 Q47.6221,474.707 48.6108,475.6104 Q49.5996,476.5137 51.333,476.5137 Q52.3828,476.5137 53.1152,476.2451 Q53.5303,476.0742 53.9941,475.5859 Q54.2871,475.293 54.458,475.2075 Q54.6289,475.1221 54.8242,475.1221 Q55.2148,475.1221 55.4956,475.4028 Q55.7764,475.6836 55.7764,476.0742 Q55.7764,476.4648 55.3857,476.9043 Q54.8242,477.5391 53.9453,477.9053 Q52.7734,478.3936 51.3574,478.3936 Q49.6729,478.3936 48.3545,477.71 Q47.2559,477.1729 46.499,475.9766 Q45.7422,474.7803 45.7422,473.3887 L45.7422,472.1191 Q45.7422,470.6543 46.4258,469.3848 Q47.1094,468.1152 48.3179,467.4316 Q49.5264,466.748 50.8691,466.748 Q51.6992,466.748 52.4072,466.9312 Q53.1152,467.1143 53.7256,467.5049 Z "/><text fill="#000000" font-family="sans-serif" font-size="18.75" lengthAdjust="spacingAndGlyphs" textLength="76.5625" x="72.0312" y="479.5471">Category</text><line style="stroke: #383838; stroke-width: 2.34375;" x1="29.6875" x2="153.125" y1="495.3125" y2="495.3125"/><text fill="#000000" font-family="sans-serif" font-size="18.75" lengthAdjust="spacingAndGlyphs" textLength="107.8125" x="37.5" y="521.0266">name: string</text><!--class Action--><rect fill="#F8F8F8" filter="url(#f1kdt9xxbspgbb)" height="130.127" id="Action" style="stroke: #383838; stroke-width: 2.34375;" width="164.0625" x="9.375" y="287.5"/><ellipse cx="60.7813" cy="310.9375" fill="#C2C2C2" rx="15.625" ry="15.625" style="stroke: #383838; stroke-width: 1.5625;"/><path d="M63.1006,306.5674 Q63.2715,306.3232 63.479,306.2012 Q63.6865,306.0791 63.9307,306.0791 Q64.3457,306.0791 64.6021,306.3721 Q64.8584,306.665 64.8584,307.3242 L64.8584,308.9355 Q64.8584,309.5947 64.6021,309.8877 Q64.3457,310.1807 63.9307,310.1807 Q63.54,310.1807 63.3203,309.9609 Q63.1006,309.7656 62.9785,309.1797 Q62.9297,308.7891 62.7344,308.5938 Q62.3438,308.1787 61.6724,307.9346 Q61.001,307.6904 60.3174,307.6904 Q59.4873,307.6904 58.7793,308.0566 Q58.0713,308.4229 57.5342,309.2407 Q56.9971,310.0586 56.9971,311.2061 L56.9971,312.4268 Q56.9971,313.7695 57.9858,314.6729 Q58.9746,315.5762 60.708,315.5762 Q61.7578,315.5762 62.4902,315.3076 Q62.9053,315.1367 63.3691,314.6484 Q63.6621,314.3555 63.833,314.27 Q64.0039,314.1846 64.1992,314.1846 Q64.5898,314.1846 64.8706,314.4653 Q65.1514,314.7461 65.1514,315.1367 Q65.1514,315.5273 64.7607,315.9668 Q64.1992,316.6016 63.3203,316.9678 Q62.1484,317.4561 60.7324,317.4561 Q59.0479,317.4561 57.7295,316.7725 Q56.6309,316.2354 55.874,315.0391 Q55.1172,313.8428 55.1172,312.4512 L55.1172,311.1816 Q55.1172,309.7168 55.8008,308.4473 Q56.4844,307.1777 57.6929,306.4941 Q58.9014,305.8105 60.2441,305.8105 Q61.0742,305.8105 61.7822,305.9937 Q62.4902,306.1768 63.1006,306.5674 Z "/><text fill="#000000" font-family="sans-serif" font-size="18.75" lengthAdjust="spacingAndGlyphs" textLength="51.5625" x="87.6563" y="318.6096">Action</text><line style="stroke: #383838; stroke-width: 2.34375;" x1="10.9375" x2="171.875" y1="334.375" y2="334.375"/><text fill="#000000" font-family="sans-serif" font-size="18.75" lengthAdjust="spacingAndGlyphs" textLength="129.6875" x="18.75" y="360.0891">createdAt: Date</text><text fill="#000000" font-family="sans-serif" font-size="18.75" lengthAdjust="spacingAndGlyphs" textLength="120.3125" x="18.75" y="383.6731">orderIndex: int</text><text fill="#000000" font-family="sans-serif" font-size="18.75" lengthAdjust="spacingAndGlyphs" textLength="145.3125" x="18.75" y="407.2571">undone: boolean</text><!--class Change--><rect fill="#F8F8F8" filter="url(#f1kdt9xxbspgbb)" height="106.543" id="Change" style="stroke: #383838; stroke-width: 2.34375;" width="139.0625" x="242.1875" y="150"/><ellipse cx="274.6094" cy="173.4375" fill="#C2C2C2" rx="15.625" ry="15.625" style="stroke: #383838; stroke-width: 1.5625;"/><path d="M276.9287,169.0674 Q277.0996,168.8232 277.3071,168.7012 Q277.5146,168.5791 277.7588,168.5791 Q278.1738,168.5791 278.4302,168.8721 Q278.6865,169.165 278.6865,169.8242 L278.6865,171.4355 Q278.6865,172.0947 278.4302,172.3877 Q278.1738,172.6807 277.7588,172.6807 Q277.3682,172.6807 277.1484,172.4609 Q276.9287,172.2656 276.8066,171.6797 Q276.7578,171.2891 276.5625,171.0938 Q276.1719,170.6787 275.5005,170.4346 Q274.8291,170.1904 274.1455,170.1904 Q273.3154,170.1904 272.6074,170.5566 Q271.8994,170.9229 271.3623,171.7407 Q270.8252,172.5586 270.8252,173.7061 L270.8252,174.9268 Q270.8252,176.2695 271.814,177.1729 Q272.8027,178.0762 274.5361,178.0762 Q275.5859,178.0762 276.3184,177.8076 Q276.7334,177.6367 277.1973,177.1484 Q277.4902,176.8555 277.6611,176.77 Q277.832,176.6846 278.0273,176.6846 Q278.418,176.6846 278.6987,176.9653 Q278.9795,177.2461 278.9795,177.6367 Q278.9795,178.0273 278.5889,178.4668 Q278.0273,179.1016 277.1484,179.4678 Q275.9766,179.9561 274.5605,179.9561 Q272.876,179.9561 271.5576,179.2725 Q270.459,178.7354 269.7021,177.5391 Q268.9453,176.3428 268.9453,174.9512 L268.9453,173.6816 Q268.9453,172.2168 269.6289,170.9473 Q270.3125,169.6777 271.521,168.9941 Q272.7295,168.3105 274.0723,168.3105 Q274.9023,168.3105 275.6104,168.4937 Q276.3184,168.6768 276.9287,169.0674 Z "/><text fill="#000000" font-family="sans-serif" font-size="18.75" lengthAdjust="spacingAndGlyphs" textLength="68.75" x="297.2656" y="181.1096">Change</text><line style="stroke: #383838; stroke-width: 2.34375;" x1="243.75" x2="379.6875" y1="196.875" y2="196.875"/><text fill="#000000" font-family="sans-serif" font-size="18.75" lengthAdjust="spacingAndGlyphs" textLength="76.5625" x="251.5625" y="222.5891">rowId: int</text><text fill="#000000" font-family="sans-serif" font-size="18.75" lengthAdjust="spacingAndGlyphs" textLength="120.3125" x="251.5625" y="246.1731">orderIndex: int</text><!--class ChangeType--><rect fill="#F8F8F8" filter="url(#f1kdt9xxbspgbb)" height="130.127" id="ChangeType" style="stroke: #383838; stroke-width: 2.34375;" width="156.25" x="228.9063" y="287.5"/><ellipse cx="250.7813" cy="310.9375" fill="#ABABAB" rx="15.625" ry="15.625" style="stroke: #383838; stroke-width: 1.5625;"/><path d="M250.5859,312.5488 L250.5859,315.3076 L255.3711,315.3076 L255.3711,314.2822 Q255.3711,313.623 255.6274,313.3301 Q255.8838,313.0371 256.2988,313.0371 Q256.7139,313.0371 256.9824,313.3301 Q257.251,313.623 257.251,314.2822 L257.251,317.1875 L248.4131,317.1875 Q247.7295,317.1875 247.4365,316.9312 Q247.1436,316.6748 247.1436,316.2354 Q247.1436,315.8203 247.4365,315.564 Q247.7295,315.3076 248.4131,315.3076 L248.7061,315.3076 L248.7061,307.959 L248.4131,307.959 Q247.7295,307.959 247.4365,307.7026 Q247.1436,307.4463 247.1436,307.0313 Q247.1436,306.5918 247.4365,306.3354 Q247.7295,306.0791 248.4131,306.0791 L256.8359,306.0791 L256.8359,308.9355 Q256.8359,309.6191 256.5796,309.8999 Q256.3232,310.1807 255.8838,310.1807 Q255.4688,310.1807 255.2124,309.8999 Q254.9561,309.6191 254.9561,308.9355 L254.9561,307.959 L250.5859,307.959 L250.5859,310.6689 L252.2217,310.6689 Q252.2217,309.9365 252.3682,309.7412 Q252.6367,309.2773 253.1738,309.2773 Q253.5889,309.2773 253.8452,309.5703 Q254.1016,309.8633 254.1016,310.5469 L254.1016,312.6953 Q254.1016,313.3057 253.9551,313.5254 Q253.6621,313.9648 253.1738,313.9648 Q252.6367,313.9648 252.3682,313.501 Q252.2217,313.3057 252.2217,312.5488 L250.5859,312.5488 Z "/><text fill="#000000" font-family="sans-serif" font-size="18.75" lengthAdjust="spacingAndGlyphs" textLength="109.375" x="271.0938" y="318.6096">ChangeType</text><line style="stroke: #383838; stroke-width: 2.34375;" x1="230.4688" x2="383.5938" y1="334.375" y2="334.375"/><text fill="#000000" font-family="sans-serif" font-size="18.75" lengthAdjust="spacingAndGlyphs" textLength="48.4375" x="238.2813" y="360.0891">Insert</text><text fill="#000000" font-family="sans-serif" font-size="18.75" lengthAdjust="spacingAndGlyphs" textLength="62.5" x="238.2813" y="383.6731">Update</text><text fill="#000000" font-family="sans-serif" font-size="18.75" lengthAdjust="spacingAndGlyphs" textLength="56.25" x="238.2813" y="407.2571">Delete</text><!--class Table--><rect fill="#F8F8F8" filter="url(#f1kdt9xxbspgbb)" height="82.959" id="Table" style="stroke: #383838; stroke-width: 2.34375;" width="126.5625" x="440.625" y="310.9375"/><ellipse cx="476.5625" cy="334.375" fill="#C2C2C2" rx="15.625" ry="15.625" style="stroke: #383838; stroke-width: 1.5625;"/><path d="M478.8818,330.0049 Q479.0527,329.7607 479.2603,329.6387 Q479.4678,329.5166 479.7119,329.5166 Q480.127,329.5166 480.3833,329.8096 Q480.6396,330.1025 480.6396,330.7617 L480.6396,332.373 Q480.6396,333.0322 480.3833,333.3252 Q480.127,333.6182 479.7119,333.6182 Q479.3213,333.6182 479.1016,333.3984 Q478.8818,333.2031 478.7598,332.6172 Q478.7109,332.2266 478.5156,332.0313 Q478.125,331.6162 477.4536,331.3721 Q476.7822,331.1279 476.0986,331.1279 Q475.2686,331.1279 474.5605,331.4941 Q473.8525,331.8604 473.3154,332.6782 Q472.7783,333.4961 472.7783,334.6436 L472.7783,335.8643 Q472.7783,337.207 473.7671,338.1104 Q474.7559,339.0137 476.4893,339.0137 Q477.5391,339.0137 478.2715,338.7451 Q478.6865,338.5742 479.1504,338.0859 Q479.4434,337.793 479.6143,337.7075 Q479.7852,337.6221 479.9805,337.6221 Q480.3711,337.6221 480.6519,337.9028 Q480.9326,338.1836 480.9326,338.5742 Q480.9326,338.9648 480.542,339.4043 Q479.9805,340.0391 479.1016,340.4053 Q477.9297,340.8936 476.5137,340.8936 Q474.8291,340.8936 473.5107,340.21 Q472.4121,339.6729 471.6553,338.4766 Q470.8984,337.2803 470.8984,335.8887 L470.8984,334.6191 Q470.8984,333.1543 471.582,331.8848 Q472.2656,330.6152 473.4741,329.9316 Q474.6826,329.248 476.0254,329.248 Q476.8555,329.248 477.5635,329.4312 Q478.2715,329.6143 478.8818,330.0049 Z "/><text fill="#000000" font-family="sans-serif" font-size="18.75" lengthAdjust="spacingAndGlyphs" textLength="48.4375" x="500" y="342.0471">Table</text><line style="stroke: #383838; stroke-width: 2.34375;" x1="442.1875" x2="565.625" y1="357.8125" y2="357.8125"/><text fill="#000000" font-family="sans-serif" font-size="18.75" lengthAdjust="spacingAndGlyphs" textLength="107.8125" x="450" y="383.5266">name: string</text><!--class Column--><rect fill="#F8F8F8" filter="url(#f1kdt9xxbspgbb)" height="106.543" id="Column" style="stroke: #383838; stroke-width: 2.34375;" width="126.5625" x="437.5" y="150"/><ellipse cx="464.2969" cy="173.4375" fill="#C2C2C2" rx="15.625" ry="15.625" style="stroke: #383838; stroke-width: 1.5625;"/><path d="M466.6162,169.0674 Q466.7871,168.8232 466.9946,168.7012 Q467.2021,168.5791 467.4463,168.5791 Q467.8613,168.5791 468.1177,168.8721 Q468.374,169.165 468.374,169.8242 L468.374,171.4355 Q468.374,172.0947 468.1177,172.3877 Q467.8613,172.6807 467.4463,172.6807 Q467.0557,172.6807 466.8359,172.4609 Q466.6162,172.2656 466.4941,171.6797 Q466.4453,171.2891 466.25,171.0938 Q465.8594,170.6787 465.188,170.4346 Q464.5166,170.1904 463.833,170.1904 Q463.0029,170.1904 462.2949,170.5566 Q461.5869,170.9229 461.0498,171.7407 Q460.5127,172.5586 460.5127,173.7061 L460.5127,174.9268 Q460.5127,176.2695 461.5015,177.1729 Q462.4902,178.0762 464.2236,178.0762 Q465.2734,178.0762 466.0059,177.8076 Q466.4209,177.6367 466.8848,177.1484 Q467.1777,176.8555 467.3486,176.77 Q467.5195,176.6846 467.7148,176.6846 Q468.1055,176.6846 468.3862,176.9653 Q468.667,177.2461 468.667,177.6367 Q468.667,178.0273 468.2764,178.4668 Q467.7148,179.1016 466.8359,179.4678 Q465.6641,179.9561 464.248,179.9561 Q462.5635,179.9561 461.2451,179.2725 Q460.1465,178.7354 459.3896,177.5391 Q458.6328,176.3428 458.6328,174.9512 L458.6328,173.6816 Q458.6328,172.2168 459.3164,170.9473 Q460,169.6777 461.2085,168.9941 Q462.417,168.3105 463.7598,168.3105 Q464.5898,168.3105 465.2979,168.4937 Q466.0059,168.6768 466.6162,169.0674 Z "/><text fill="#000000" font-family="sans-serif" font-size="18.75" lengthAdjust="spacingAndGlyphs" textLength="68.75" x="485.7031" y="181.1096">Column</text><line style="stroke: #383838; stroke-width: 2.34375;" x1="439.0625" x2="562.5" y1="196.875" y2="196.875"/><text fill="#000000" font-family="sans-serif" font-size="18.75" lengthAdjust="spacingAndGlyphs" textLength="107.8125" x="446.875" y="222.5891">name: string</text><text fill="#000000" font-family="sans-serif" font-size="18.75" lengthAdjust="spacingAndGlyphs" textLength="92.1875" x="446.875" y="246.1731">type: string</text><!--class Value--><rect fill="#F8F8F8" filter="url(#f1kdt9xxbspgbb)" height="106.543" id="Value" style="stroke: #383838; stroke-width: 2.34375;" width="160.9375" x="325" y="12.5"/><ellipse cx="376.4063" cy="35.9375" fill="#C2C2C2" rx="15.625" ry="15.625" style="stroke: #383838; stroke-width: 1.5625;"/><path d="M378.7256,31.5674 Q378.8965,31.3232 379.104,31.2012 Q379.3115,31.0791 379.5557,31.0791 Q379.9707,31.0791 380.2271,31.3721 Q380.4834,31.665 380.4834,32.3242 L380.4834,33.9355 Q380.4834,34.5947 380.2271,34.8877 Q379.9707,35.1807 379.5557,35.1807 Q379.165,35.1807 378.9453,34.9609 Q378.7256,34.7656 378.6035,34.1797 Q378.5547,33.7891 378.3594,33.5938 Q377.9688,33.1787 377.2974,32.9346 Q376.626,32.6904 375.9424,32.6904 Q375.1123,32.6904 374.4043,33.0566 Q373.6963,33.4229 373.1592,34.2407 Q372.6221,35.0586 372.6221,36.2061 L372.6221,37.4268 Q372.6221,38.7695 373.6108,39.6729 Q374.5996,40.5762 376.333,40.5762 Q377.3828,40.5762 378.1152,40.3076 Q378.5303,40.1367 378.9941,39.6484 Q379.2871,39.3555 379.458,39.27 Q379.6289,39.1846 379.8242,39.1846 Q380.2148,39.1846 380.4956,39.4653 Q380.7764,39.7461 380.7764,40.1367 Q380.7764,40.5273 380.3857,40.9668 Q379.8242,41.6016 378.9453,41.9678 Q377.7734,42.4561 376.3574,42.4561 Q374.6729,42.4561 373.3545,41.7725 Q372.2559,41.2354 371.499,40.0391 Q370.7422,38.8428 370.7422,37.4512 L370.7422,36.1816 Q370.7422,34.7168 371.4258,33.4473 Q372.1094,32.1777 373.3179,31.4941 Q374.5264,30.8105 375.8691,30.8105 Q376.6992,30.8105 377.4072,30.9937 Q378.1152,31.1768 378.7256,31.5674 Z "/><text fill="#000000" font-family="sans-serif" font-size="18.75" lengthAdjust="spacingAndGlyphs" textLength="48.4375" x="403.2813" y="43.6096">Value</text><line style="stroke: #383838; stroke-width: 2.34375;" x1="326.5625" x2="484.375" y1="59.375" y2="59.375"/><text fill="#000000" font-family="sans-serif" font-size="18.75" lengthAdjust="spacingAndGlyphs" textLength="132.8125" x="334.375" y="85.0891">oldValue: string</text><text fill="#000000" font-family="sans-serif" font-size="18.75" lengthAdjust="spacingAndGlyphs" textLength="142.1875" x="334.375" y="108.6731">newValue: string</text><!--class Channel--><rect fill="#F8F8F8" filter="url(#f1kdt9xxbspgbb)" height="82.959" id="Channel" style="stroke: #383838; stroke-width: 2.34375;" width="120.3125" x="326.5625" y="448.4375"/><ellipse cx="348.4375" cy="471.875" fill="#C2C2C2" rx="15.625" ry="15.625" style="stroke: #383838; stroke-width: 1.5625;"/><path d="M350.7568,467.5049 Q350.9277,467.2607 351.1353,467.1387 Q351.3428,467.0166 351.5869,467.0166 Q352.002,467.0166 352.2583,467.3096 Q352.5146,467.6025 352.5146,468.2617 L352.5146,469.873 Q352.5146,470.5322 352.2583,470.8252 Q352.002,471.1182 351.5869,471.1182 Q351.1963,471.1182 350.9766,470.8984 Q350.7568,470.7031 350.6348,470.1172 Q350.5859,469.7266 350.3906,469.5313 Q350,469.1162 349.3286,468.8721 Q348.6572,468.6279 347.9736,468.6279 Q347.1436,468.6279 346.4355,468.9941 Q345.7275,469.3604 345.1904,470.1782 Q344.6533,470.9961 344.6533,472.1436 L344.6533,473.3643 Q344.6533,474.707 345.6421,475.6104 Q346.6309,476.5137 348.3643,476.5137 Q349.4141,476.5137 350.1465,476.2451 Q350.5615,476.0742 351.0254,475.5859 Q351.3184,475.293 351.4893,475.2075 Q351.6602,475.1221 351.8555,475.1221 Q352.2461,475.1221 352.5269,475.4028 Q352.8076,475.6836 352.8076,476.0742 Q352.8076,476.4648 352.417,476.9043 Q351.8555,477.5391 350.9766,477.9053 Q349.8047,478.3936 348.3887,478.3936 Q346.7041,478.3936 345.3857,477.71 Q344.2871,477.1729 343.5303,475.9766 Q342.7734,474.7803 342.7734,473.3887 L342.7734,472.1191 Q342.7734,470.6543 343.457,469.3848 Q344.1406,468.1152 345.3491,467.4316 Q346.5576,466.748 347.9004,466.748 Q348.7305,466.748 349.4385,466.9312 Q350.1465,467.1143 350.7568,467.5049 Z "/><text fill="#000000" font-family="sans-serif" font-size="18.75" lengthAdjust="spacingAndGlyphs" textLength="73.4375" x="368.75" y="479.5471">Channel</text><line style="stroke: #383838; stroke-width: 2.34375;" x1="328.125" x2="445.3125" y1="495.3125" y2="495.3125"/><text fill="#000000" font-family="sans-serif" font-size="18.75" lengthAdjust="spacingAndGlyphs" textLength="45.3125" x="335.9375" y="521.0266">id: int</text><!--class ChannelStatus--><rect fill="#F8F8F8" filter="url(#f1kdt9xxbspgbb)" height="153.7109" id="ChannelStatus" style="stroke: #383838; stroke-width: 2.34375;" width="175" x="299.2188" y="562.5"/><ellipse cx="321.0938" cy="585.9375" fill="#ABABAB" rx="15.625" ry="15.625" style="stroke: #383838; stroke-width: 1.5625;"/><path d="M320.8984,587.5488 L320.8984,590.3076 L325.6836,590.3076 L325.6836,589.2822 Q325.6836,588.623 325.9399,588.3301 Q326.1963,588.0371 326.6113,588.0371 Q327.0264,588.0371 327.2949,588.3301 Q327.5635,588.623 327.5635,589.2822 L327.5635,592.1875 L318.7256,592.1875 Q318.042,592.1875 317.749,591.9312 Q317.4561,591.6748 317.4561,591.2354 Q317.4561,590.8203 317.749,590.564 Q318.042,590.3076 318.7256,590.3076 L319.0186,590.3076 L319.0186,582.959 L318.7256,582.959 Q318.042,582.959 317.749,582.7026 Q317.4561,582.4463 317.4561,582.0313 Q317.4561,581.5918 317.749,581.3354 Q318.042,581.0791 318.7256,581.0791 L327.1484,581.0791 L327.1484,583.9355 Q327.1484,584.6191 326.8921,584.8999 Q326.6357,585.1807 326.1963,585.1807 Q325.7813,585.1807 325.5249,584.8999 Q325.2686,584.6191 325.2686,583.9355 L325.2686,582.959 L320.8984,582.959 L320.8984,585.6689 L322.5342,585.6689 Q322.5342,584.9365 322.6807,584.7412 Q322.9492,584.2773 323.4863,584.2773 Q323.9014,584.2773 324.1577,584.5703 Q324.4141,584.8633 324.4141,585.5469 L324.4141,587.6953 Q324.4141,588.3057 324.2676,588.5254 Q323.9746,588.9648 323.4863,588.9648 Q322.9492,588.9648 322.6807,588.501 Q322.5342,588.3057 322.5342,587.5488 L320.8984,587.5488 Z "/><text fill="#000000" font-family="sans-serif" font-size="18.75" lengthAdjust="spacingAndGlyphs" textLength="128.125" x="341.4063" y="593.6096">ChannelStatus</text><line style="stroke: #383838; stroke-width: 2.34375;" x1="300.7813" x2="472.6563" y1="609.375" y2="609.375"/><text fill="#000000" font-family="sans-serif" font-size="18.75" lengthAdjust="spacingAndGlyphs" textLength="54.6875" x="308.5938" y="635.0891">Ready</text><text fill="#000000" font-family="sans-serif" font-size="18.75" lengthAdjust="spacingAndGlyphs" textLength="73.4375" x="308.5938" y="658.6731">Undoing</text><text fill="#000000" font-family="sans-serif" font-size="18.75" lengthAdjust="spacingAndGlyphs" textLength="89.0625" x="308.5938" y="682.2571">Recording</text><text fill="#000000" font-family="sans-serif" font-size="18.75" lengthAdjust="spacingAndGlyphs" textLength="73.4375" x="308.5938" y="705.8411">Redoing</text><!--link Channel to ChannelStatus--><path d="M386.7188,551.7813 C386.7188,555.2344 386.7188,558.7344 386.7188,562.2344 " fill="none" id="Channel-ChannelStatus" style="stroke: #383838; stroke-width: 1.5625;"/><polygon fill="#FFFFFF" points="386.7188,531.3281,380.4688,540.7031,386.7188,550.0781,392.9688,540.7031,386.7188,531.3281" style="stroke: #383838; stroke-width: 1.5625;"/><!--link Action to Channel--><path d="M191.9375,412.8594 C194.9063,414.3438 197.8594,415.7969 200.7813,417.1875 C241.6406,436.6719 289.375,454.8281 326.25,467.9219 " fill="none" id="Action-Channel" style="stroke: #383838; stroke-width: 1.5625;"/><polygon fill="#FFFFFF" points="173.6719,403.3438,179.1026,413.2159,190.3042,412,184.8734,402.1278,173.6719,403.3438" style="stroke: #383838; stroke-width: 1.5625;"/><!--link Action to Category--><path d="M91.4063,438.1875 C91.4063,441.4844 91.4063,444.7031 91.4063,447.8438 " fill="none" id="Action-Category" style="stroke: #383838; stroke-width: 1.5625;"/><polygon fill="#FFFFFF" points="91.4063,417.5469,85.1563,426.9219,91.4063,436.2969,97.6563,426.9219,91.4063,417.5469" style="stroke: #383838; stroke-width: 1.5625;"/><!--link Change to Table--><path d="M396.7188,269.2969 C415.1563,283.3125 434.1563,297.75 450.9219,310.5156 " fill="none" id="Change-Table" style="stroke: #383838; stroke-width: 1.5625;"/><polygon fill="#FFFFFF" points="380.0156,256.6094,383.7072,267.2548,394.9536,267.9416,391.262,257.2962,380.0156,256.6094" style="stroke: #383838; stroke-width: 1.5625;"/><!--link Change to Action--><path d="M224.8281,262.3125 C208,273.4688 190.4219,285.125 173.75,296.1719 " fill="none" id="Change-Action" style="stroke: #383838; stroke-width: 1.5625;"/><polygon fill="#FFFFFF" points="242.0156,250.9062,230.7483,250.8822,226.3925,261.2736,237.6598,261.2976,242.0156,250.9062" style="stroke: #383838; stroke-width: 1.5625;"/><!--link Change to ChangeType--><path d="M309.4063,276.9531 C309.2969,280.3125 309.1875,283.6719 309.0781,287.0156 " fill="none" id="Change-ChangeType" style="stroke: #383838; stroke-width: 1.5625;"/><polygon fill="#FFFFFF" points="310.0469,256.6094,303.5011,265.7803,309.449,275.3498,315.9948,266.1789,310.0469,256.6094" style="stroke: #383838; stroke-width: 1.5625;"/><!--link Table to Channel--><path d="M455.0313,409.9531 C443.8906,422.7187 432.2813,436.0313 421.8594,448 " fill="none" id="Table-Channel" style="stroke: #383838; stroke-width: 1.5625;"/><polygon fill="#FFFFFF" points="468.75,394.2188,457.8784,397.1787,456.4293,408.3525,467.3009,405.3925,468.75,394.2188" style="stroke: #383838; stroke-width: 1.5625;"/><!--link Column to Table--><path d="M502.3281,277.0469 C502.5781,288.5625 502.8281,300.0938 503.0469,310.5156 " fill="none" id="Column-Table" style="stroke: #383838; stroke-width: 1.5625;"/><polygon fill="#FFFFFF" points="501.8906,256.6094,495.8377,266.1128,502.282,275.3553,508.335,265.8519,501.8906,256.6094" style="stroke: #383838; stroke-width: 1.5625;"/><!--link Value to Column--><path d="M454.1406,135.7969 C457.5,140.5469 460.8594,145.2813 464.1406,149.9063 " fill="none" id="Value-Column" style="stroke: #383838; stroke-width: 1.5625;"/><polygon fill="#FFFFFF" points="442.0469,118.75,442.3799,130.0124,452.9041,134.0367,452.5711,122.7743,442.0469,118.75" style="stroke: #383838; stroke-width: 1.5625;"/><!--link Value to Change--><path d="M357.5938,135.7969 C354.2813,140.5469 350.9844,145.2813 347.75,149.9063 " fill="none" id="Value-Change" style="stroke: #383838; stroke-width: 1.5625;"/><polygon fill="#FFFFFF" points="369.4844,118.75,358.995,122.8641,358.7582,134.129,369.2476,130.0149,369.4844,118.75" style="stroke: #383838; stroke-width: 1.5625;"/><!--
@startuml Tables
skinparam monochrome true
skinparam ranksep 20
skinparam dpi 150
skinparam packageTitleAlignment left
skinparam usecaseBorderThickness 0.4
skinparam defaultFontSize 12
skinparam rectangleBorderThickness 1
hide methods

class Category {
  name: string
}

class Action {
  createdAt: Date
  orderIndex: int
  undone: boolean
}

class Change {
  rowId: int
  orderIndex: int
}

enum ChangeType {
  Insert
  Update
  Delete
}

class Table {
  name: string
}

class Column {
  name: string
  type: string
}

class Value {
  oldValue: string
  newValue: string
}

class Channel {
  id: int
}

enum ChannelStatus {
  Ready
  Undoing
  Recording
  Redoing
}

Channel o- - ChannelStatus
Action o- - Channel
Action o- - Category
Change o- - Table
Change o- - Action
Change o- - ChangeType
Table o- - Channel
Column o- - Table 
Value o- - Column
Value o- - Change
@enduml

PlantUML version 1.2019.06(Fri May 24 19:10:25 CEST 2019)
(GPL source distribution)
Java Runtime: Java(TM) SE Runtime Environment
JVM: Java HotSpot(TM) 64-Bit Server VM
Java Version: 1.8.0_211-b12
Operating System: Windows 10
OS Version: 10.0
Default Encoding: Cp1252
Language: de
Country: DE
--></g></svg>