<?xml version="1.0" encoding="UTF-8" standalone="no"?><svg xmlns="http://www.w3.org/2000/svg" xmlns:xlink="http://www.w3.org/1999/xlink" contentScriptType="application/ecmascript" contentStyleType="text/css" height="756.25px" preserveAspectRatio="none" style="width:864px;height:756px;" version="1.1" viewBox="0 0 864 756" width="864.0625px" zoomAndPan="magnify"><defs><filter height="300%" id="f1dnax5k3gdd8l" width="300%" x="-1" y="-1"><feGaussianBlur result="blurOut" stdDeviation="3.125"/><feColorMatrix in="blurOut" result="blurOut2" type="matrix" values="0 0 0 0 0 0 0 0 0 0 0 0 0 0 0 0 0 0 .4 0"/><feOffset dx="6.25" dy="6.25" in="blurOut2" result="blurOut3"/><feBlend in="SourceGraphic" in2="blurOut3" mode="normal"/></filter></defs><g><!--class Category--><rect fill="#F8F8F8" filter="url(#f1dnax5k3gdd8l)" height="82.959" id="Category" style="stroke: #383838; stroke-width: 2.34375;" width="126.5625" x="308.5938" y="471.875"/><ellipse cx="331.875" cy="495.3125" fill="#C2C2C2" rx="15.625" ry="15.625" style="stroke: #383838; stroke-width: 1.5625;"/><path d="M334.1943,490.9424 Q334.3652,490.6982 334.5605,490.5762 Q334.7803,490.4541 335.0244,490.4541 Q335.4395,490.4541 335.6836,490.7471 Q335.9521,491.04 335.9521,491.6992 L335.9521,493.3105 Q335.9521,493.9697 335.6836,494.2627 Q335.4395,494.5557 335.0244,494.5557 Q334.6338,494.5557 334.4141,494.3359 Q334.1943,494.1406 334.0723,493.5547 Q334.0234,493.1641 333.8281,492.9688 Q333.4375,492.5537 332.7539,492.3096 Q332.0947,492.0654 331.4111,492.0654 Q330.5811,492.0654 329.873,492.4316 Q329.165,492.7979 328.6279,493.6279 Q328.0908,494.4336 328.0908,495.5811 L328.0908,496.8018 Q328.0908,498.1445 329.0674,499.0479 Q330.0684,499.9512 331.8018,499.9512 Q332.8516,499.9512 333.584,499.6826 Q333.999,499.5117 334.4629,499.0234 Q334.7559,498.7305 334.9268,498.6572 Q335.0977,498.5596 335.293,498.5596 Q335.6836,498.5596 335.9521,498.8525 Q336.2451,499.1211 336.2451,499.5117 Q336.2451,499.9023 335.8545,500.3418 Q335.293,500.9766 334.4141,501.3428 Q333.2422,501.8311 331.8262,501.8311 Q330.1416,501.8311 328.8232,501.1475 Q327.7246,500.6104 326.9678,499.4141 Q326.2109,498.2178 326.2109,496.8262 L326.2109,495.5566 Q326.2109,494.0918 326.8945,492.8223 Q327.5781,491.5527 328.7744,490.8691 Q329.9951,490.1855 331.3379,490.1855 Q332.168,490.1855 332.876,490.3809 Q333.584,490.5518 334.1943,490.9424 Z "/><text fill="#000000" font-family="sans-serif" font-size="18.75" lengthAdjust="spacingAndGlyphs" textLength="76.5625" x="352.5" y="502.9846">Category</text><line style="stroke: #383838; stroke-width: 2.34375;" x1="310.1563" x2="433.5938" y1="518.75" y2="518.75"/><text fill="#000000" font-family="sans-serif" font-size="18.75" lengthAdjust="spacingAndGlyphs" textLength="107.8125" x="317.9688" y="544.4641">name: string</text><!--class Action--><rect fill="#F8F8F8" filter="url(#f1dnax5k3gdd8l)" height="130.127" id="Action" style="stroke: #383838; stroke-width: 2.34375;" width="164.0625" x="289.8438" y="310.9375"/><ellipse cx="341.25" cy="334.375" fill="#C2C2C2" rx="15.625" ry="15.625" style="stroke: #383838; stroke-width: 1.5625;"/><path d="M343.5693,330.0049 Q343.7402,329.7607 343.9355,329.6387 Q344.1553,329.5166 344.3994,329.5166 Q344.8145,329.5166 345.0586,329.8096 Q345.3271,330.1025 345.3271,330.7617 L345.3271,332.373 Q345.3271,333.0322 345.0586,333.3252 Q344.8145,333.6182 344.3994,333.6182 Q344.0088,333.6182 343.7891,333.3984 Q343.5693,333.2031 343.4473,332.6172 Q343.3984,332.2266 343.2031,332.0313 Q342.8125,331.6162 342.1289,331.3721 Q341.4697,331.1279 340.7861,331.1279 Q339.9561,331.1279 339.248,331.4941 Q338.54,331.8604 338.0029,332.6904 Q337.4658,333.4961 337.4658,334.6436 L337.4658,335.8643 Q337.4658,337.207 338.4424,338.1104 Q339.4434,339.0137 341.1768,339.0137 Q342.2266,339.0137 342.959,338.7451 Q343.374,338.5742 343.8379,338.0859 Q344.1309,337.793 344.3018,337.7197 Q344.4727,337.6221 344.668,337.6221 Q345.0586,337.6221 345.3271,337.915 Q345.6201,338.1836 345.6201,338.5742 Q345.6201,338.9648 345.2295,339.4043 Q344.668,340.0391 343.7891,340.4053 Q342.6172,340.8936 341.2012,340.8936 Q339.5166,340.8936 338.1982,340.21 Q337.0996,339.6729 336.3428,338.4766 Q335.5859,337.2803 335.5859,335.8887 L335.5859,334.6191 Q335.5859,333.1543 336.2695,331.8848 Q336.9531,330.6152 338.1494,329.9316 Q339.3701,329.248 340.7129,329.248 Q341.543,329.248 342.251,329.4434 Q342.959,329.6143 343.5693,330.0049 Z "/><text fill="#000000" font-family="sans-serif" font-size="18.75" lengthAdjust="spacingAndGlyphs" textLength="51.5625" x="368.125" y="342.0471">Action</text><line style="stroke: #383838; stroke-width: 2.34375;" x1="291.4063" x2="452.3438" y1="357.8125" y2="357.8125"/><text fill="#000000" font-family="sans-serif" font-size="18.75" lengthAdjust="spacingAndGlyphs" textLength="129.6875" x="299.2188" y="383.5266">createdAt: Date</text><text fill="#000000" font-family="sans-serif" font-size="18.75" lengthAdjust="spacingAndGlyphs" textLength="120.3125" x="299.2188" y="407.1106">orderIndex: int</text><text fill="#000000" font-family="sans-serif" font-size="18.75" lengthAdjust="spacingAndGlyphs" textLength="145.3125" x="299.2188" y="430.6946">undone: boolean</text><!--class Change--><rect fill="#F8F8F8" filter="url(#f1dnax5k3gdd8l)" height="106.543" id="Change" style="stroke: #383838; stroke-width: 2.34375;" width="139.0625" x="519.5313" y="161.7188"/><ellipse cx="551.9531" cy="185.1563" fill="#C2C2C2" rx="15.625" ry="15.625" style="stroke: #383838; stroke-width: 1.5625;"/><path d="M554.2725,180.7861 Q554.4434,180.542 554.6387,180.4199 Q554.8584,180.2979 555.1025,180.2979 Q555.5176,180.2979 555.7617,180.5908 Q556.0303,180.8838 556.0303,181.543 L556.0303,183.1543 Q556.0303,183.8135 555.7617,184.1064 Q555.5176,184.3994 555.1025,184.3994 Q554.7119,184.3994 554.4922,184.1797 Q554.2725,183.9844 554.1504,183.3984 Q554.1016,183.0078 553.9063,182.8125 Q553.5156,182.3975 552.832,182.1533 Q552.1729,181.9092 551.4893,181.9092 Q550.6592,181.9092 549.9512,182.2754 Q549.2432,182.6416 548.7061,183.4717 Q548.1689,184.2773 548.1689,185.4248 L548.1689,186.6455 Q548.1689,187.9883 549.1455,188.8916 Q550.1465,189.7949 551.8799,189.7949 Q552.9297,189.7949 553.6621,189.5264 Q554.0771,189.3555 554.541,188.8672 Q554.834,188.5742 555.0049,188.501 Q555.1758,188.4033 555.3711,188.4033 Q555.7617,188.4033 556.0303,188.6963 Q556.3232,188.9648 556.3232,189.3555 Q556.3232,189.7461 555.9326,190.1855 Q555.3711,190.8203 554.4922,191.1865 Q553.3203,191.6748 551.9043,191.6748 Q550.2197,191.6748 548.9014,190.9912 Q547.8027,190.4541 547.0459,189.2578 Q546.2891,188.0615 546.2891,186.6699 L546.2891,185.4004 Q546.2891,183.9355 546.9727,182.666 Q547.6563,181.3965 548.8525,180.7129 Q550.0732,180.0293 551.416,180.0293 Q552.2461,180.0293 552.9541,180.2246 Q553.6621,180.3955 554.2725,180.7861 Z "/><text fill="#000000" font-family="sans-serif" font-size="18.75" lengthAdjust="spacingAndGlyphs" textLength="68.75" x="574.6094" y="192.8284">Change</text><line style="stroke: #383838; stroke-width: 2.34375;" x1="521.0938" x2="657.0313" y1="208.5938" y2="208.5938"/><text fill="#000000" font-family="sans-serif" font-size="18.75" lengthAdjust="spacingAndGlyphs" textLength="76.5625" x="528.9063" y="234.3079">rowId: int</text><text fill="#000000" font-family="sans-serif" font-size="18.75" lengthAdjust="spacingAndGlyphs" textLength="120.3125" x="528.9063" y="257.8918">orderIndex: int</text><!--class ChangeType--><rect fill="#F8F8F8" filter="url(#f1dnax5k3gdd8l)" height="130.127" id="ChangeType" style="stroke: #383838; stroke-width: 2.34375;" width="156.25" x="509.375" y="310.9375"/><ellipse cx="531.25" cy="334.375" fill="#ABABAB" rx="15.625" ry="15.625" style="stroke: #383838; stroke-width: 1.5625;"/><path d="M531.0547,335.9863 L531.0547,338.7451 L535.8398,338.7451 L535.8398,337.7197 Q535.8398,337.0605 536.084,336.7676 Q536.3525,336.4746 536.7676,336.4746 Q537.1826,336.4746 537.4512,336.7676 Q537.7197,337.0605 537.7197,337.7197 L537.7197,340.625 L528.8818,340.625 Q528.1982,340.625 527.9053,340.3809 Q527.6123,340.1123 527.6123,339.6729 Q527.6123,339.2578 527.9053,339.0137 Q528.1982,338.7451 528.8818,338.7451 L529.1748,338.7451 L529.1748,331.3965 L528.8818,331.3965 Q528.1982,331.3965 527.9053,331.1523 Q527.6123,330.8838 527.6123,330.4688 Q527.6123,330.0293 527.9053,329.7852 Q528.1982,329.5166 528.8818,329.5166 L537.3047,329.5166 L537.3047,332.373 Q537.3047,333.0566 537.0361,333.3496 Q536.792,333.6182 536.3525,333.6182 Q535.9375,333.6182 535.6689,333.3496 Q535.4248,333.0566 535.4248,332.373 L535.4248,331.3965 L531.0547,331.3965 L531.0547,334.1064 L532.6904,334.1064 Q532.6904,333.374 532.8369,333.1787 Q533.1055,332.7148 533.6426,332.7148 Q534.0576,332.7148 534.3018,333.0078 Q534.5703,333.3008 534.5703,333.9844 L534.5703,336.1328 Q534.5703,336.7432 534.4238,336.9629 Q534.1309,337.4023 533.6426,337.4023 Q533.1055,337.4023 532.8369,336.9385 Q532.6904,336.7432 532.6904,335.9863 L531.0547,335.9863 Z "/><text fill="#000000" font-family="sans-serif" font-size="18.75" lengthAdjust="spacingAndGlyphs" textLength="109.375" x="551.5625" y="342.0471">ChangeType</text><line style="stroke: #383838; stroke-width: 2.34375;" x1="510.9375" x2="664.0625" y1="357.8125" y2="357.8125"/><text fill="#000000" font-family="sans-serif" font-size="18.75" lengthAdjust="spacingAndGlyphs" textLength="48.4375" x="518.75" y="383.5266">Insert</text><text fill="#000000" font-family="sans-serif" font-size="18.75" lengthAdjust="spacingAndGlyphs" textLength="62.5" x="518.75" y="407.1106">Update</text><text fill="#000000" font-family="sans-serif" font-size="18.75" lengthAdjust="spacingAndGlyphs" textLength="56.25" x="518.75" y="430.6946">Delete</text><!--class Table--><rect fill="#F8F8F8" filter="url(#f1dnax5k3gdd8l)" height="82.959" id="Table" style="stroke: #383838; stroke-width: 2.34375;" width="126.5625" x="721.0938" y="334.375"/><ellipse cx="757.0313" cy="357.8125" fill="#C2C2C2" rx="15.625" ry="15.625" style="stroke: #383838; stroke-width: 1.5625;"/><path d="M759.3506,353.4424 Q759.5215,353.1982 759.7168,353.0762 Q759.9365,352.9541 760.1807,352.9541 Q760.5957,352.9541 760.8398,353.2471 Q761.1084,353.54 761.1084,354.1992 L761.1084,355.8105 Q761.1084,356.4697 760.8398,356.7627 Q760.5957,357.0557 760.1807,357.0557 Q759.79,357.0557 759.5703,356.8359 Q759.3506,356.6406 759.2285,356.0547 Q759.1797,355.6641 758.9844,355.4688 Q758.5938,355.0537 757.9102,354.8096 Q757.251,354.5654 756.5674,354.5654 Q755.7373,354.5654 755.0293,354.9316 Q754.3213,355.2979 753.7842,356.1279 Q753.2471,356.9336 753.2471,358.0811 L753.2471,359.3018 Q753.2471,360.6445 754.2236,361.5479 Q755.2246,362.4512 756.958,362.4512 Q758.0078,362.4512 758.7402,362.1826 Q759.1553,362.0117 759.6191,361.5234 Q759.9121,361.2305 760.083,361.1572 Q760.2539,361.0596 760.4492,361.0596 Q760.8398,361.0596 761.1084,361.3525 Q761.4014,361.6211 761.4014,362.0117 Q761.4014,362.4023 761.0107,362.8418 Q760.4492,363.4766 759.5703,363.8428 Q758.3984,364.3311 756.9824,364.3311 Q755.2979,364.3311 753.9795,363.6475 Q752.8809,363.1104 752.124,361.9141 Q751.3672,360.7178 751.3672,359.3262 L751.3672,358.0566 Q751.3672,356.5918 752.0508,355.3223 Q752.7344,354.0527 753.9307,353.3691 Q755.1514,352.6855 756.4941,352.6855 Q757.3242,352.6855 758.0322,352.8809 Q758.7402,353.0518 759.3506,353.4424 Z "/><text fill="#000000" font-family="sans-serif" font-size="18.75" lengthAdjust="spacingAndGlyphs" textLength="48.4375" x="780.4688" y="365.4846">Table</text><line style="stroke: #383838; stroke-width: 2.34375;" x1="722.6563" x2="846.0938" y1="381.25" y2="381.25"/><text fill="#000000" font-family="sans-serif" font-size="18.75" lengthAdjust="spacingAndGlyphs" textLength="107.8125" x="730.4688" y="406.9641">name: string</text><!--class Column--><rect fill="#F8F8F8" filter="url(#f1dnax5k3gdd8l)" height="106.543" id="Column" style="stroke: #383838; stroke-width: 2.34375;" width="126.5625" x="717.9688" y="161.7188"/><ellipse cx="744.7656" cy="185.1563" fill="#C2C2C2" rx="15.625" ry="15.625" style="stroke: #383838; stroke-width: 1.5625;"/><path d="M747.085,180.7861 Q747.2559,180.542 747.4512,180.4199 Q747.6709,180.2979 747.915,180.2979 Q748.3301,180.2979 748.5742,180.5908 Q748.8428,180.8838 748.8428,181.543 L748.8428,183.1543 Q748.8428,183.8135 748.5742,184.1064 Q748.3301,184.3994 747.915,184.3994 Q747.5244,184.3994 747.3047,184.1797 Q747.085,183.9844 746.9629,183.3984 Q746.9141,183.0078 746.7188,182.8125 Q746.3281,182.3975 745.6445,182.1533 Q744.9854,181.9092 744.3018,181.9092 Q743.4717,181.9092 742.7637,182.2754 Q742.0557,182.6416 741.5186,183.4717 Q740.9814,184.2773 740.9814,185.4248 L740.9814,186.6455 Q740.9814,187.9883 741.958,188.8916 Q742.959,189.7949 744.6924,189.7949 Q745.7422,189.7949 746.4746,189.5264 Q746.8896,189.3555 747.3535,188.8672 Q747.6465,188.5742 747.8174,188.501 Q747.9883,188.4033 748.1836,188.4033 Q748.5742,188.4033 748.8428,188.6963 Q749.1357,188.9648 749.1357,189.3555 Q749.1357,189.7461 748.7451,190.1855 Q748.1836,190.8203 747.3047,191.1865 Q746.1328,191.6748 744.7168,191.6748 Q743.0322,191.6748 741.7139,190.9912 Q740.6152,190.4541 739.8584,189.2578 Q739.1016,188.0615 739.1016,186.6699 L739.1016,185.4004 Q739.1016,183.9355 739.7852,182.666 Q740.4688,181.3965 741.665,180.7129 Q742.8857,180.0293 744.2285,180.0293 Q745.0586,180.0293 745.7666,180.2246 Q746.4746,180.3955 747.085,180.7861 Z "/><text fill="#000000" font-family="sans-serif" font-size="18.75" lengthAdjust="spacingAndGlyphs" textLength="68.75" x="766.1719" y="192.8284">Column</text><line style="stroke: #383838; stroke-width: 2.34375;" x1="719.5313" x2="842.9688" y1="208.5938" y2="208.5938"/><text fill="#000000" font-family="sans-serif" font-size="18.75" lengthAdjust="spacingAndGlyphs" textLength="107.8125" x="727.3438" y="234.3079">name: string</text><text fill="#000000" font-family="sans-serif" font-size="18.75" lengthAdjust="spacingAndGlyphs" textLength="92.1875" x="727.3438" y="257.8918">type: string</text><!--class Value--><rect fill="#F8F8F8" filter="url(#f1dnax5k3gdd8l)" height="106.543" id="Value" style="stroke: #383838; stroke-width: 2.34375;" width="160.9375" x="602.3438" y="12.5"/><ellipse cx="653.75" cy="35.9375" fill="#C2C2C2" rx="15.625" ry="15.625" style="stroke: #383838; stroke-width: 1.5625;"/><path d="M656.0693,31.5674 Q656.2402,31.3232 656.4355,31.2012 Q656.6553,31.0791 656.8994,31.0791 Q657.3145,31.0791 657.5586,31.3721 Q657.8271,31.665 657.8271,32.3242 L657.8271,33.9355 Q657.8271,34.5947 657.5586,34.8877 Q657.3145,35.1807 656.8994,35.1807 Q656.5088,35.1807 656.2891,34.9609 Q656.0693,34.7656 655.9473,34.1797 Q655.8984,33.7891 655.7031,33.5938 Q655.3125,33.1787 654.6289,32.9346 Q653.9697,32.6904 653.2861,32.6904 Q652.4561,32.6904 651.748,33.0566 Q651.04,33.4229 650.5029,34.2529 Q649.9658,35.0586 649.9658,36.2061 L649.9658,37.4268 Q649.9658,38.7695 650.9424,39.6729 Q651.9434,40.5762 653.6768,40.5762 Q654.7266,40.5762 655.459,40.3076 Q655.874,40.1367 656.3379,39.6484 Q656.6309,39.3555 656.8018,39.2822 Q656.9727,39.1846 657.168,39.1846 Q657.5586,39.1846 657.8271,39.4775 Q658.1201,39.7461 658.1201,40.1367 Q658.1201,40.5273 657.7295,40.9668 Q657.168,41.6016 656.2891,41.9678 Q655.1172,42.4561 653.7012,42.4561 Q652.0166,42.4561 650.6982,41.7725 Q649.5996,41.2354 648.8428,40.0391 Q648.0859,38.8428 648.0859,37.4512 L648.0859,36.1816 Q648.0859,34.7168 648.7695,33.4473 Q649.4531,32.1777 650.6494,31.4941 Q651.8701,30.8105 653.2129,30.8105 Q654.043,30.8105 654.751,31.0059 Q655.459,31.1768 656.0693,31.5674 Z "/><text fill="#000000" font-family="sans-serif" font-size="18.75" lengthAdjust="spacingAndGlyphs" textLength="48.4375" x="680.625" y="43.6096">Value</text><line style="stroke: #383838; stroke-width: 2.34375;" x1="603.9063" x2="761.7188" y1="59.375" y2="59.375"/><text fill="#000000" font-family="sans-serif" font-size="18.75" lengthAdjust="spacingAndGlyphs" textLength="132.8125" x="611.7188" y="85.0891">oldValue: string</text><text fill="#000000" font-family="sans-serif" font-size="18.75" lengthAdjust="spacingAndGlyphs" textLength="142.1875" x="611.7188" y="108.6731">newValue: string</text><!--class Channel--><rect fill="#F8F8F8" filter="url(#f1dnax5k3gdd8l)" height="59.375" id="Channel" style="stroke: #383838; stroke-width: 2.34375;" width="120.3125" x="607.0313" y="483.5938"/><ellipse cx="628.9063" cy="507.0313" fill="#C2C2C2" rx="15.625" ry="15.625" style="stroke: #383838; stroke-width: 1.5625;"/><path d="M631.2256,502.6611 Q631.3965,502.417 631.5918,502.2949 Q631.8115,502.1729 632.0557,502.1729 Q632.4707,502.1729 632.7148,502.4658 Q632.9834,502.7588 632.9834,503.418 L632.9834,505.0293 Q632.9834,505.6885 632.7148,505.9814 Q632.4707,506.2744 632.0557,506.2744 Q631.665,506.2744 631.4453,506.0547 Q631.2256,505.8594 631.1035,505.2734 Q631.0547,504.8828 630.8594,504.6875 Q630.4688,504.2725 629.7852,504.0283 Q629.126,503.7842 628.4424,503.7842 Q627.6123,503.7842 626.9043,504.1504 Q626.1963,504.5166 625.6592,505.3467 Q625.1221,506.1523 625.1221,507.2998 L625.1221,508.5205 Q625.1221,509.8633 626.0986,510.7666 Q627.0996,511.6699 628.833,511.6699 Q629.8828,511.6699 630.6152,511.4014 Q631.0303,511.2305 631.4941,510.7422 Q631.7871,510.4492 631.958,510.376 Q632.1289,510.2783 632.3242,510.2783 Q632.7148,510.2783 632.9834,510.5713 Q633.2764,510.8398 633.2764,511.2305 Q633.2764,511.6211 632.8857,512.0605 Q632.3242,512.6953 631.4453,513.0615 Q630.2734,513.5498 628.8574,513.5498 Q627.1729,513.5498 625.8545,512.8662 Q624.7559,512.3291 623.999,511.1328 Q623.2422,509.9365 623.2422,508.5449 L623.2422,507.2754 Q623.2422,505.8105 623.9258,504.541 Q624.6094,503.2715 625.8057,502.5879 Q627.0264,501.9043 628.3691,501.9043 Q629.1992,501.9043 629.9072,502.0996 Q630.6152,502.2705 631.2256,502.6611 Z "/><text fill="#000000" font-family="sans-serif" font-size="18.75" lengthAdjust="spacingAndGlyphs" textLength="73.4375" x="649.2188" y="514.7034">Channel</text><line style="stroke: #383838; stroke-width: 2.34375;" x1="608.5938" x2="725.7813" y1="530.4688" y2="530.4688"/><!--class ChannelStatus--><rect fill="#F8F8F8" filter="url(#f1dnax5k3gdd8l)" height="153.7109" id="ChannelStatus" style="stroke: #383838; stroke-width: 2.34375;" width="175" x="579.6875" y="585.9375"/><ellipse cx="601.5625" cy="609.375" fill="#ABABAB" rx="15.625" ry="15.625" style="stroke: #383838; stroke-width: 1.5625;"/><path d="M601.3672,610.9863 L601.3672,613.7451 L606.1523,613.7451 L606.1523,612.7197 Q606.1523,612.0605 606.3965,611.7676 Q606.665,611.4746 607.0801,611.4746 Q607.4951,611.4746 607.7637,611.7676 Q608.0322,612.0605 608.0322,612.7197 L608.0322,615.625 L599.1943,615.625 Q598.5107,615.625 598.2178,615.3809 Q597.9248,615.1123 597.9248,614.6729 Q597.9248,614.2578 598.2178,614.0137 Q598.5107,613.7451 599.1943,613.7451 L599.4873,613.7451 L599.4873,606.3965 L599.1943,606.3965 Q598.5107,606.3965 598.2178,606.1523 Q597.9248,605.8838 597.9248,605.4688 Q597.9248,605.0293 598.2178,604.7852 Q598.5107,604.5166 599.1943,604.5166 L607.6172,604.5166 L607.6172,607.373 Q607.6172,608.0566 607.3486,608.3496 Q607.1045,608.6182 606.665,608.6182 Q606.25,608.6182 605.9814,608.3496 Q605.7373,608.0566 605.7373,607.373 L605.7373,606.3965 L601.3672,606.3965 L601.3672,609.1064 L603.0029,609.1064 Q603.0029,608.374 603.1494,608.1787 Q603.418,607.7148 603.9551,607.7148 Q604.3701,607.7148 604.6143,608.0078 Q604.8828,608.3008 604.8828,608.9844 L604.8828,611.1328 Q604.8828,611.7432 604.7363,611.9629 Q604.4434,612.4023 603.9551,612.4023 Q603.418,612.4023 603.1494,611.9385 Q603.0029,611.7432 603.0029,610.9863 L601.3672,610.9863 Z "/><text fill="#000000" font-family="sans-serif" font-size="18.75" lengthAdjust="spacingAndGlyphs" textLength="128.125" x="621.875" y="617.0471">ChannelStatus</text><line style="stroke: #383838; stroke-width: 2.34375;" x1="581.25" x2="753.125" y1="632.8125" y2="632.8125"/><text fill="#000000" font-family="sans-serif" font-size="18.75" lengthAdjust="spacingAndGlyphs" textLength="54.6875" x="589.0625" y="658.5266">Ready</text><text fill="#000000" font-family="sans-serif" font-size="18.75" lengthAdjust="spacingAndGlyphs" textLength="73.4375" x="589.0625" y="682.1106">Undoing</text><text fill="#000000" font-family="sans-serif" font-size="18.75" lengthAdjust="spacingAndGlyphs" textLength="89.0625" x="589.0625" y="705.6946">Recording</text><text fill="#000000" font-family="sans-serif" font-size="18.75" lengthAdjust="spacingAndGlyphs" textLength="73.4375" x="589.0625" y="729.2786">Redoing</text><!--class CleanUpTask--><rect fill="#F8F8F8" filter="url(#f1dnax5k3gdd8l)" height="106.543" id="CleanUpTask" style="stroke: #383838; stroke-width: 2.34375;" width="200" x="31.25" y="12.5"/><ellipse cx="68.5938" cy="35.9375" fill="#C2C2C2" rx="15.625" ry="15.625" style="stroke: #383838; stroke-width: 1.5625;"/><path d="M70.9131,31.5674 Q71.084,31.3232 71.2793,31.2012 Q71.499,31.0791 71.7432,31.0791 Q72.1582,31.0791 72.4023,31.3721 Q72.6709,31.665 72.6709,32.3242 L72.6709,33.9355 Q72.6709,34.5947 72.4023,34.8877 Q72.1582,35.1807 71.7432,35.1807 Q71.3525,35.1807 71.1328,34.9609 Q70.9131,34.7656 70.791,34.1797 Q70.7422,33.7891 70.5469,33.5938 Q70.1563,33.1787 69.4727,32.9346 Q68.8135,32.6904 68.1299,32.6904 Q67.2998,32.6904 66.5918,33.0566 Q65.8838,33.4229 65.3467,34.2529 Q64.8096,35.0586 64.8096,36.2061 L64.8096,37.4268 Q64.8096,38.7695 65.7861,39.6729 Q66.7871,40.5762 68.5205,40.5762 Q69.5703,40.5762 70.3027,40.3076 Q70.7178,40.1367 71.1816,39.6484 Q71.4746,39.3555 71.6455,39.2822 Q71.8164,39.1846 72.0117,39.1846 Q72.4023,39.1846 72.6709,39.4775 Q72.9639,39.7461 72.9639,40.1367 Q72.9639,40.5273 72.5732,40.9668 Q72.0117,41.6016 71.1328,41.9678 Q69.9609,42.4561 68.5449,42.4561 Q66.8604,42.4561 65.542,41.7725 Q64.4434,41.2354 63.6865,40.0391 Q62.9297,38.8428 62.9297,37.4512 L62.9297,36.1816 Q62.9297,34.7168 63.6133,33.4473 Q64.2969,32.1777 65.4932,31.4941 Q66.7139,30.8105 68.0566,30.8105 Q68.8867,30.8105 69.5947,31.0059 Q70.3027,31.1768 70.9131,31.5674 Z "/><text fill="#000000" font-family="sans-serif" font-size="18.75" lengthAdjust="spacingAndGlyphs" textLength="118.75" x="92.3438" y="43.6096">CleanUpTask</text><line style="stroke: #383838; stroke-width: 2.34375;" x1="32.8125" x2="229.6875" y1="59.375" y2="59.375"/><text fill="#000000" font-family="sans-serif" font-size="18.75" lengthAdjust="spacingAndGlyphs" textLength="107.8125" x="40.625" y="85.0891">name: string</text><text fill="#000000" font-family="sans-serif" font-size="18.75" lengthAdjust="spacingAndGlyphs" textLength="181.25" x="40.625" y="108.6731">refTableName: string</text><!--class CleanUpTaskType--><rect fill="#F8F8F8" filter="url(#f1dnax5k3gdd8l)" height="130.127" id="CleanUpTaskType" style="stroke: #383838; stroke-width: 2.34375;" width="206.25" x="28.125" y="150"/><ellipse cx="50" cy="173.4375" fill="#ABABAB" rx="15.625" ry="15.625" style="stroke: #383838; stroke-width: 1.5625;"/><path d="M49.8047,175.0488 L49.8047,177.8076 L54.5898,177.8076 L54.5898,176.7822 Q54.5898,176.123 54.834,175.8301 Q55.1025,175.5371 55.5176,175.5371 Q55.9326,175.5371 56.2012,175.8301 Q56.4697,176.123 56.4697,176.7822 L56.4697,179.6875 L47.6318,179.6875 Q46.9482,179.6875 46.6553,179.4434 Q46.3623,179.1748 46.3623,178.7354 Q46.3623,178.3203 46.6553,178.0762 Q46.9482,177.8076 47.6318,177.8076 L47.9248,177.8076 L47.9248,170.459 L47.6318,170.459 Q46.9482,170.459 46.6553,170.2148 Q46.3623,169.9463 46.3623,169.5313 Q46.3623,169.0918 46.6553,168.8477 Q46.9482,168.5791 47.6318,168.5791 L56.0547,168.5791 L56.0547,171.4355 Q56.0547,172.1191 55.7861,172.4121 Q55.542,172.6807 55.1025,172.6807 Q54.6875,172.6807 54.4189,172.4121 Q54.1748,172.1191 54.1748,171.4355 L54.1748,170.459 L49.8047,170.459 L49.8047,173.1689 L51.4404,173.1689 Q51.4404,172.4365 51.5869,172.2412 Q51.8555,171.7773 52.3926,171.7773 Q52.8076,171.7773 53.0518,172.0703 Q53.3203,172.3633 53.3203,173.0469 L53.3203,175.1953 Q53.3203,175.8057 53.1738,176.0254 Q52.8809,176.4648 52.3926,176.4648 Q51.8555,176.4648 51.5869,176.001 Q51.4404,175.8057 51.4404,175.0488 L49.8047,175.0488 Z "/><text fill="#000000" font-family="sans-serif" font-size="18.75" lengthAdjust="spacingAndGlyphs" textLength="159.375" x="70.3125" y="181.1096">CleanUpTaskType</text><line style="stroke: #383838; stroke-width: 2.34375;" x1="29.6875" x2="232.8125" y1="196.875" y2="196.875"/><text fill="#000000" font-family="sans-serif" font-size="18.75" lengthAdjust="spacingAndGlyphs" textLength="40.625" x="37.5" y="222.5891">Root</text><text fill="#000000" font-family="sans-serif" font-size="18.75" lengthAdjust="spacingAndGlyphs" textLength="48.4375" x="37.5" y="246.1731">Table</text><text fill="#000000" font-family="sans-serif" font-size="18.75" lengthAdjust="spacingAndGlyphs" textLength="60.9375" x="37.5" y="269.7571">Trigger</text><!--class Logs--><rect fill="#F8F8F8" filter="url(#f1dnax5k3gdd8l)" height="130.127" id="Logs" style="stroke: #383838; stroke-width: 2.34375;" width="176.5625" x="42.9688" y="310.9375"/><ellipse cx="103.5156" cy="334.375" fill="#C2C2C2" rx="15.625" ry="15.625" style="stroke: #383838; stroke-width: 1.5625;"/><path d="M105.835,330.0049 Q106.0059,329.7607 106.2012,329.6387 Q106.4209,329.5166 106.665,329.5166 Q107.0801,329.5166 107.3242,329.8096 Q107.5928,330.1025 107.5928,330.7617 L107.5928,332.373 Q107.5928,333.0322 107.3242,333.3252 Q107.0801,333.6182 106.665,333.6182 Q106.2744,333.6182 106.0547,333.3984 Q105.835,333.2031 105.7129,332.6172 Q105.6641,332.2266 105.4688,332.0313 Q105.0781,331.6162 104.3945,331.3721 Q103.7354,331.1279 103.0518,331.1279 Q102.2217,331.1279 101.5137,331.4941 Q100.8057,331.8604 100.2686,332.6904 Q99.7314,333.4961 99.7314,334.6436 L99.7314,335.8643 Q99.7314,337.207 100.708,338.1104 Q101.709,339.0137 103.4424,339.0137 Q104.4922,339.0137 105.2246,338.7451 Q105.6396,338.5742 106.1035,338.0859 Q106.3965,337.793 106.5674,337.7197 Q106.7383,337.6221 106.9336,337.6221 Q107.3242,337.6221 107.5928,337.915 Q107.8857,338.1836 107.8857,338.5742 Q107.8857,338.9648 107.4951,339.4043 Q106.9336,340.0391 106.0547,340.4053 Q104.8828,340.8936 103.4668,340.8936 Q101.7822,340.8936 100.4639,340.21 Q99.3652,339.6729 98.6084,338.4766 Q97.8516,337.2803 97.8516,335.8887 L97.8516,334.6191 Q97.8516,333.1543 98.5352,331.8848 Q99.2188,330.6152 100.415,329.9316 Q101.6357,329.248 102.9785,329.248 Q103.8086,329.248 104.5166,329.4434 Q105.2246,329.6143 105.835,330.0049 Z "/><text fill="#000000" font-family="sans-serif" font-size="18.75" lengthAdjust="spacingAndGlyphs" textLength="43.75" x="132.4219" y="342.0471">Logs</text><line style="stroke: #383838; stroke-width: 2.34375;" x1="44.5313" x2="217.9688" y1="357.8125" y2="357.8125"/><text fill="#000000" font-family="sans-serif" font-size="18.75" lengthAdjust="spacingAndGlyphs" textLength="104.6875" x="52.3438" y="383.5266">query: string</text><text fill="#000000" font-family="sans-serif" font-size="18.75" lengthAdjust="spacingAndGlyphs" textLength="157.8125" x="52.3438" y="407.1106">parameters: string</text><text fill="#000000" font-family="sans-serif" font-size="18.75" lengthAdjust="spacingAndGlyphs" textLength="125" x="52.3438" y="430.6946">location: string</text><rect fill="#F8F8F8" filter="url(#f1dnax5k3gdd8l)" height="65.918" style="stroke: #383838; stroke-width: 2.34375;" width="157.8125" x="52.3438" y="629.6875"/><text fill="#000000" font-family="sans-serif" font-size="18.75" lengthAdjust="spacingAndGlyphs" textLength="56.25" x="103.125" y="652.2766">Config</text><line style="stroke: #383838; stroke-width: 2.34375;" x1="53.9063" x2="208.5938" y1="659.5215" y2="659.5215"/><text fill="#000000" font-family="sans-serif" font-size="18.75" lengthAdjust="spacingAndGlyphs" textLength="139.0625" x="61.7188" y="685.2356">debug: boolean;</text><path d="M9.375,493.75 L9.375,532.959 L253.125,532.959 L253.125,509.375 L237.5,493.75 L9.375,493.75 " fill="#ECECEC" filter="url(#f1dnax5k3gdd8l)" style="stroke: #383838; stroke-width: 1.5625;"/><path d="M237.5,493.75 L237.5,509.375 L253.125,509.375 L237.5,493.75 " fill="#ECECEC" style="stroke: #383838; stroke-width: 1.5625;"/><text fill="#000000" font-family="sans-serif" font-size="18.75" lengthAdjust="spacingAndGlyphs" textLength="210.9375" x="18.75" y="521.0266">when Config.debug=true</text><!--link Channel to ChannelStatus--><path d="M667.1875,563.8438 C667.1875,570.8281 667.1875,578.1406 667.1875,585.4844 " fill="none" id="Channel-ChannelStatus" style="stroke: #383838; stroke-width: 1.5625;"/><polygon fill="#FFFFFF" points="667.1875,543.0156,660.9375,552.3906,667.1875,561.7656,673.4375,552.3906,667.1875,543.0156" style="stroke: #383838; stroke-width: 1.5625;"/><!--link Action to Channel--><path d="M472.4062,436.2969 C475.375,437.7813 478.3281,439.2344 481.25,440.625 C522.1094,460.1094 569.8438,478.2656 606.7188,491.3594 " fill="none" id="Action-Channel" style="stroke: #383838; stroke-width: 1.5625;"/><polygon fill="#FFFFFF" points="454.1406,426.7813,459.5714,436.6534,470.7729,435.4375,465.3422,425.5653,454.1406,426.7813" style="stroke: #383838; stroke-width: 1.5625;"/><!--link Action to Category--><path d="M371.875,461.625 C371.875,464.9219 371.875,468.1406 371.875,471.2813 " fill="none" id="Action-Category" style="stroke: #383838; stroke-width: 1.5625;"/><polygon fill="#FFFFFF" points="371.875,440.9844,365.625,450.3594,371.875,459.7344,378.125,450.3594,371.875,440.9844" style="stroke: #383838; stroke-width: 1.5625;"/><!--link Change to Table--><path d="M668.8906,280.9062 C691.0938,298.8594 714.5781,317.8281 734.5313,333.9375 " fill="none" id="Change-Table" style="stroke: #383838; stroke-width: 1.5625;"/><polygon fill="#FFFFFF" points="653.0156,268.0781,656.3803,278.8314,667.6005,279.8614,664.2358,269.1081,653.0156,268.0781" style="stroke: #383838; stroke-width: 1.5625;"/><!--link Change to Action--><path d="M502.3594,279.4063 C486.5938,290.8594 470.1875,302.7812 454.5469,314.1563 " fill="none" id="Change-Action" style="stroke: #383838; stroke-width: 1.5625;"/><polygon fill="#FFFFFF" points="519.1406,267.2031,507.8822,267.6526,503.967,278.2179,515.2254,277.7684,519.1406,267.2031" style="stroke: #383838; stroke-width: 1.5625;"/><!--link Change to ChangeType--><path d="M588.3438,288.5938 C588.2813,296.0156 588.2031,303.5313 588.125,310.8594 " fill="none" id="Change-ChangeType" style="stroke: #383838; stroke-width: 1.5625;"/><polygon fill="#FFFFFF" points="588.5469,268.0781,582.2045,277.3909,588.3614,286.8272,594.7039,277.5145,588.5469,268.0781" style="stroke: #383838; stroke-width: 1.5625;"/><!--link Table to Channel--><path d="M735.7344,433.125 C720.6406,450.4219 704.6563,468.7656 691.9063,483.375 " fill="none" id="Table-Channel" style="stroke: #383838; stroke-width: 1.5625;"/><polygon fill="#FFFFFF" points="749.2188,417.6563,738.3472,420.6162,736.8981,431.79,747.7697,428.83,749.2188,417.6563" style="stroke: #383838; stroke-width: 1.5625;"/><!--link Column to Table--><path d="M782.6875,288.7969 C782.9844,304.3125 783.3125,320.1719 783.5781,333.9375 " fill="none" id="Column-Table" style="stroke: #383838; stroke-width: 1.5625;"/><polygon fill="#FFFFFF" points="782.2656,268.0781,776.2023,277.5749,782.6364,286.8245,788.6998,277.3277,782.2656,268.0781" style="stroke: #383838; stroke-width: 1.5625;"/><!--link Value to Column--><path d="M729.375,136.2969 C735.0938,144.7813 740.875,153.3594 746.375,161.5313 " fill="none" id="Value-Column" style="stroke: #383838; stroke-width: 1.5625;"/><polygon fill="#FFFFFF" points="717.7969,119.1094,717.845,130.3766,728.264,134.6658,728.2159,123.3986,717.7969,119.1094" style="stroke: #383838; stroke-width: 1.5625;"/><!--link Value to Change--><path d="M638.4688,136.2969 C633.0156,144.7813 627.5156,153.3594 622.2656,161.5313 " fill="none" id="Value-Change" style="stroke: #383838; stroke-width: 1.5625;"/><polygon fill="#FFFFFF" points="649.5,119.1094,639.1748,123.6198,639.367,134.8855,649.6922,130.3751,649.5,119.1094" style="stroke: #383838; stroke-width: 1.5625;"/><!--link CleanUpTask to CleanUpTaskType--><path d="M131.25,139.4531 C131.25,142.8125 131.25,146.1719 131.25,149.5156 " fill="none" id="CleanUpTask-CleanUpTaskType" style="stroke: #383838; stroke-width: 1.5625;"/><polygon fill="#FFFFFF" points="131.25,119.1094,125,128.4844,131.25,137.8594,137.5,128.4844,131.25,119.1094" style="stroke: #383838; stroke-width: 1.5625;"/><!--link CleanUpTaskType to Logs--><!--link Logs to NoteLogs--><path d="M131.25,449.125 C131.25,465.6719 131.25,481.8281 131.25,493.5937 " fill="none" id="Logs-NoteLogs" style="stroke: #383838; stroke-width: 1.5625;"/><polygon fill="#383838" points="131.25,440.9844,125,455.0469,131.25,448.7969,137.5,455.0469,131.25,440.9844" style="stroke: #383838; stroke-width: 1.5625;"/><!--link NoteLogs to Config--><path d="M131.25,533.3438 C131.25,557.4531 131.25,599.9844 131.25,629.2656 " fill="none" id="NoteLogs-Config" style="stroke: #383838; stroke-width: 1.5625; stroke-dasharray: 7.0,7.0;"/><!--
@startuml Tables
skinparam monochrome true
skinparam ranksep 20
skinparam dpi 150
skinparam packageTitleAlignment left
skinparam usecaseBorderThickness 0.4
skinparam defaultFontSize 12
skinparam rectangleBorderThickness 1
hide methods

class Category {
  name: string
}

class Action {
  createdAt: Date
  orderIndex: int
  undone: boolean
}

class Change {
  rowId: int
  orderIndex: int
}

enum ChangeType {
  Insert
  Update
  Delete
}

class Table {
  name: string
}

class Column {
  name: string
  type: string
}

class Value {
  oldValue: string
  newValue: string
}

class Channel {
}

enum ChannelStatus {
  Ready
  Undoing
  Recording
  Redoing
}

class CleanUpTask {
  name: string
  refTableName: string
}

enum CleanUpTaskType {
  Root
  Table
  Trigger
}

class Logs {
  query: string
  parameters: string
  location: string
}

object Config {
  debug: boolean;
}

note as NoteLogs
when Config.debug=true
end note

Channel o- - ChannelStatus
Action o- - Channel
Action o- - Category
Change o- - Table
Change o- - Action
Change o- - ChangeType
Table o- - Channel
Column o- - Table 
Value o- - Column
Value o- - Change
CleanUpTask o- - CleanUpTaskType
Logs -[hidden]up- CleanUpTaskType
NoteLogs -up-> Logs 
NoteLogs .down. Config 
@enduml

PlantUML version 1.2019.06(Fri May 24 19:10:25 CEST 2019)
(GPL source distribution)
Java Runtime: OpenJDK Runtime Environment
JVM: OpenJDK 64-Bit Server VM
Java Version: 18.0.1+10
Operating System: Windows 10
OS Version: 10.0
Default Encoding: UTF-8
Language: de
Country: DE
--></g></svg>