<?xml version="1.0" encoding="UTF-8" standalone="no"?><svg xmlns="http://www.w3.org/2000/svg" xmlns:xlink="http://www.w3.org/1999/xlink" contentScriptType="application/ecmascript" contentStyleType="text/css" height="732.8125px" preserveAspectRatio="none" style="width:565px;height:732px;" version="1.1" viewBox="0 0 565 732" width="565.625px" zoomAndPan="magnify"><defs><filter height="300%" id="f1t92naialg7xl" width="300%" x="-1" y="-1"><feGaussianBlur result="blurOut" stdDeviation="3.125"/><feColorMatrix in="blurOut" result="blurOut2" type="matrix" values="0 0 0 0 0 0 0 0 0 0 0 0 0 0 0 0 0 0 .4 0"/><feOffset dx="6.25" dy="6.25" in="blurOut2" result="blurOut3"/><feBlend in="SourceGraphic" in2="blurOut3" mode="normal"/></filter></defs><g><!--class Category--><rect fill="#F8F8F8" filter="url(#f1t92naialg7xl)" height="106.543" id="Category" style="stroke: #383838; stroke-width: 2.34375;" width="126.5625" x="47.7813" y="173.4375"/><ellipse cx="71.0625" cy="196.875" fill="#C2C2C2" rx="15.625" ry="15.625" style="stroke: #383838; stroke-width: 1.5625;"/><path d="M73.3818,192.5049 Q73.5527,192.2607 73.7603,192.1387 Q73.9678,192.0166 74.2119,192.0166 Q74.627,192.0166 74.8833,192.3096 Q75.1396,192.6025 75.1396,193.2617 L75.1396,194.873 Q75.1396,195.5322 74.8833,195.8252 Q74.627,196.1182 74.2119,196.1182 Q73.8213,196.1182 73.6016,195.8984 Q73.3818,195.7031 73.2598,195.1172 Q73.2109,194.7266 73.0156,194.5313 Q72.625,194.1162 71.9536,193.8721 Q71.2822,193.6279 70.5986,193.6279 Q69.7686,193.6279 69.0605,193.9941 Q68.3525,194.3604 67.8154,195.1782 Q67.2783,195.9961 67.2783,197.1436 L67.2783,198.3643 Q67.2783,199.707 68.2671,200.6104 Q69.2559,201.5137 70.9893,201.5137 Q72.0391,201.5137 72.7715,201.2451 Q73.1865,201.0742 73.6504,200.5859 Q73.9434,200.293 74.1143,200.2075 Q74.2852,200.1221 74.4805,200.1221 Q74.8711,200.1221 75.1519,200.4028 Q75.4326,200.6836 75.4326,201.0742 Q75.4326,201.4648 75.042,201.9043 Q74.4805,202.5391 73.6016,202.9053 Q72.4297,203.3936 71.0137,203.3936 Q69.3291,203.3936 68.0107,202.71 Q66.9121,202.1729 66.1553,200.9766 Q65.3984,199.7803 65.3984,198.3887 L65.3984,197.1191 Q65.3984,195.6543 66.082,194.3848 Q66.7656,193.1152 67.9741,192.4316 Q69.1826,191.748 70.5254,191.748 Q71.3555,191.748 72.0635,191.9312 Q72.7715,192.1143 73.3818,192.5049 Z "/><text fill="#000000" font-family="sans-serif" font-size="18.75" lengthAdjust="spacingAndGlyphs" textLength="76.5625" x="91.6875" y="204.5471">Category</text><line style="stroke: #383838; stroke-width: 2.34375;" x1="49.3438" x2="172.7813" y1="220.3125" y2="220.3125"/><text fill="#000000" font-family="sans-serif" font-size="18.75" lengthAdjust="spacingAndGlyphs" textLength="107.8125" x="57.1563" y="246.0266">name: string</text><text fill="#000000" font-family="sans-serif" font-size="18.75" lengthAdjust="spacingAndGlyphs" textLength="93.75" x="57.1563" y="269.6106">icon: string</text><!--class Action--><rect fill="#F8F8F8" filter="url(#f1t92naialg7xl)" height="130.127" id="Action" style="stroke: #383838; stroke-width: 2.34375;" width="164.0625" x="29.0312" y="12.5"/><ellipse cx="80.4375" cy="35.9375" fill="#C2C2C2" rx="15.625" ry="15.625" style="stroke: #383838; stroke-width: 1.5625;"/><path d="M82.7568,31.5674 Q82.9277,31.3232 83.1353,31.2012 Q83.3428,31.0791 83.5869,31.0791 Q84.002,31.0791 84.2583,31.3721 Q84.5146,31.665 84.5146,32.3242 L84.5146,33.9355 Q84.5146,34.5947 84.2583,34.8877 Q84.002,35.1807 83.5869,35.1807 Q83.1963,35.1807 82.9766,34.9609 Q82.7568,34.7656 82.6348,34.1797 Q82.5859,33.7891 82.3906,33.5938 Q82,33.1787 81.3286,32.9346 Q80.6572,32.6904 79.9736,32.6904 Q79.1436,32.6904 78.4355,33.0566 Q77.7275,33.4229 77.1904,34.2407 Q76.6533,35.0586 76.6533,36.2061 L76.6533,37.4268 Q76.6533,38.7695 77.6421,39.6729 Q78.6309,40.5762 80.3643,40.5762 Q81.4141,40.5762 82.1465,40.3076 Q82.5615,40.1367 83.0254,39.6484 Q83.3184,39.3555 83.4893,39.27 Q83.6602,39.1846 83.8555,39.1846 Q84.2461,39.1846 84.5269,39.4653 Q84.8076,39.7461 84.8076,40.1367 Q84.8076,40.5273 84.417,40.9668 Q83.8555,41.6016 82.9766,41.9678 Q81.8047,42.4561 80.3887,42.4561 Q78.7041,42.4561 77.3857,41.7725 Q76.2871,41.2354 75.5303,40.0391 Q74.7734,38.8428 74.7734,37.4512 L74.7734,36.1816 Q74.7734,34.7168 75.457,33.4473 Q76.1406,32.1777 77.3491,31.4941 Q78.5576,30.8105 79.9004,30.8105 Q80.7305,30.8105 81.4385,30.9937 Q82.1465,31.1768 82.7568,31.5674 Z "/><text fill="#000000" font-family="sans-serif" font-size="18.75" lengthAdjust="spacingAndGlyphs" textLength="51.5625" x="107.3125" y="43.6096">Action</text><line style="stroke: #383838; stroke-width: 2.34375;" x1="30.5937" x2="191.5313" y1="59.375" y2="59.375"/><text fill="#000000" font-family="sans-serif" font-size="18.75" lengthAdjust="spacingAndGlyphs" textLength="129.6875" x="38.4063" y="85.0891">createdAt: Date</text><text fill="#000000" font-family="sans-serif" font-size="18.75" lengthAdjust="spacingAndGlyphs" textLength="120.3125" x="38.4063" y="108.6731">orderIndex: int</text><text fill="#000000" font-family="sans-serif" font-size="18.75" lengthAdjust="spacingAndGlyphs" textLength="145.3125" x="38.4063" y="132.2571">undone: boolean</text><!--class Change--><rect fill="#F8F8F8" filter="url(#f1t92naialg7xl)" height="106.543" id="Change" style="stroke: #383838; stroke-width: 2.34375;" width="139.0625" x="229.0313" y="173.4375"/><ellipse cx="261.4531" cy="196.875" fill="#C2C2C2" rx="15.625" ry="15.625" style="stroke: #383838; stroke-width: 1.5625;"/><path d="M263.7725,192.5049 Q263.9434,192.2607 264.1509,192.1387 Q264.3584,192.0166 264.6025,192.0166 Q265.0176,192.0166 265.2739,192.3096 Q265.5303,192.6025 265.5303,193.2617 L265.5303,194.873 Q265.5303,195.5322 265.2739,195.8252 Q265.0176,196.1182 264.6025,196.1182 Q264.2119,196.1182 263.9922,195.8984 Q263.7725,195.7031 263.6504,195.1172 Q263.6016,194.7266 263.4063,194.5313 Q263.0156,194.1162 262.3442,193.8721 Q261.6729,193.6279 260.9893,193.6279 Q260.1592,193.6279 259.4512,193.9941 Q258.7432,194.3604 258.2061,195.1782 Q257.6689,195.9961 257.6689,197.1436 L257.6689,198.3643 Q257.6689,199.707 258.6577,200.6104 Q259.6465,201.5137 261.3799,201.5137 Q262.4297,201.5137 263.1621,201.2451 Q263.5771,201.0742 264.041,200.5859 Q264.334,200.293 264.5049,200.2075 Q264.6758,200.1221 264.8711,200.1221 Q265.2617,200.1221 265.5425,200.4028 Q265.8232,200.6836 265.8232,201.0742 Q265.8232,201.4648 265.4326,201.9043 Q264.8711,202.5391 263.9922,202.9053 Q262.8203,203.3936 261.4043,203.3936 Q259.7197,203.3936 258.4014,202.71 Q257.3027,202.1729 256.5459,200.9766 Q255.7891,199.7803 255.7891,198.3887 L255.7891,197.1191 Q255.7891,195.6543 256.4727,194.3848 Q257.1563,193.1152 258.3647,192.4316 Q259.5732,191.748 260.916,191.748 Q261.7461,191.748 262.4541,191.9312 Q263.1621,192.1143 263.7725,192.5049 Z "/><text fill="#000000" font-family="sans-serif" font-size="18.75" lengthAdjust="spacingAndGlyphs" textLength="68.75" x="284.1094" y="204.5471">Change</text><line style="stroke: #383838; stroke-width: 2.34375;" x1="230.5938" x2="366.5313" y1="220.3125" y2="220.3125"/><text fill="#000000" font-family="sans-serif" font-size="18.75" lengthAdjust="spacingAndGlyphs" textLength="76.5625" x="238.4063" y="246.0266">rowId: int</text><text fill="#000000" font-family="sans-serif" font-size="18.75" lengthAdjust="spacingAndGlyphs" textLength="120.3125" x="238.4063" y="269.6106">orderIndex: int</text><!--class ChangeType--><rect fill="#F8F8F8" filter="url(#f1t92naialg7xl)" height="130.127" id="ChangeType" style="stroke: #383838; stroke-width: 2.34375;" width="156.25" x="128.25" y="310.9375"/><ellipse cx="150.125" cy="334.375" fill="#ABABAB" rx="15.625" ry="15.625" style="stroke: #383838; stroke-width: 1.5625;"/><path d="M149.9297,335.9863 L149.9297,338.7451 L154.7148,338.7451 L154.7148,337.7197 Q154.7148,337.0605 154.9712,336.7676 Q155.2275,336.4746 155.6426,336.4746 Q156.0576,336.4746 156.3262,336.7676 Q156.5947,337.0605 156.5947,337.7197 L156.5947,340.625 L147.7568,340.625 Q147.0732,340.625 146.7803,340.3687 Q146.4873,340.1123 146.4873,339.6729 Q146.4873,339.2578 146.7803,339.0015 Q147.0732,338.7451 147.7568,338.7451 L148.0498,338.7451 L148.0498,331.3965 L147.7568,331.3965 Q147.0732,331.3965 146.7803,331.1401 Q146.4873,330.8838 146.4873,330.4688 Q146.4873,330.0293 146.7803,329.7729 Q147.0732,329.5166 147.7568,329.5166 L156.1797,329.5166 L156.1797,332.373 Q156.1797,333.0566 155.9233,333.3374 Q155.667,333.6182 155.2275,333.6182 Q154.8125,333.6182 154.5562,333.3374 Q154.2998,333.0566 154.2998,332.373 L154.2998,331.3965 L149.9297,331.3965 L149.9297,334.1064 L151.5654,334.1064 Q151.5654,333.374 151.7119,333.1787 Q151.9805,332.7148 152.5176,332.7148 Q152.9326,332.7148 153.189,333.0078 Q153.4453,333.3008 153.4453,333.9844 L153.4453,336.1328 Q153.4453,336.7432 153.2988,336.9629 Q153.0059,337.4023 152.5176,337.4023 Q151.9805,337.4023 151.7119,336.9385 Q151.5654,336.7432 151.5654,335.9863 L149.9297,335.9863 Z "/><text fill="#000000" font-family="sans-serif" font-size="18.75" lengthAdjust="spacingAndGlyphs" textLength="109.375" x="170.4375" y="342.0471">ChangeType</text><line style="stroke: #383838; stroke-width: 2.34375;" x1="129.8125" x2="282.9375" y1="357.8125" y2="357.8125"/><text fill="#000000" font-family="sans-serif" font-size="18.75" lengthAdjust="spacingAndGlyphs" textLength="48.4375" x="137.625" y="383.5266">Insert</text><text fill="#000000" font-family="sans-serif" font-size="18.75" lengthAdjust="spacingAndGlyphs" textLength="62.5" x="137.625" y="407.1106">Update</text><text fill="#000000" font-family="sans-serif" font-size="18.75" lengthAdjust="spacingAndGlyphs" textLength="56.25" x="137.625" y="430.6946">Delete</text><!--class Table--><rect fill="#F8F8F8" filter="url(#f1t92naialg7xl)" height="82.959" id="Table" style="stroke: #383838; stroke-width: 2.34375;" width="126.5625" x="339.9688" y="334.375"/><ellipse cx="375.9063" cy="357.8125" fill="#C2C2C2" rx="15.625" ry="15.625" style="stroke: #383838; stroke-width: 1.5625;"/><path d="M378.2256,353.4424 Q378.3965,353.1982 378.604,353.0762 Q378.8115,352.9541 379.0557,352.9541 Q379.4707,352.9541 379.7271,353.2471 Q379.9834,353.54 379.9834,354.1992 L379.9834,355.8105 Q379.9834,356.4697 379.7271,356.7627 Q379.4707,357.0557 379.0557,357.0557 Q378.665,357.0557 378.4453,356.8359 Q378.2256,356.6406 378.1035,356.0547 Q378.0547,355.6641 377.8594,355.4688 Q377.4688,355.0537 376.7974,354.8096 Q376.126,354.5654 375.4424,354.5654 Q374.6123,354.5654 373.9043,354.9316 Q373.1963,355.2979 372.6592,356.1157 Q372.1221,356.9336 372.1221,358.0811 L372.1221,359.3018 Q372.1221,360.6445 373.1108,361.5479 Q374.0996,362.4512 375.833,362.4512 Q376.8828,362.4512 377.6152,362.1826 Q378.0303,362.0117 378.4941,361.5234 Q378.7871,361.2305 378.958,361.145 Q379.1289,361.0596 379.3242,361.0596 Q379.7148,361.0596 379.9956,361.3403 Q380.2764,361.6211 380.2764,362.0117 Q380.2764,362.4023 379.8857,362.8418 Q379.3242,363.4766 378.4453,363.8428 Q377.2734,364.3311 375.8574,364.3311 Q374.1729,364.3311 372.8545,363.6475 Q371.7559,363.1104 370.999,361.9141 Q370.2422,360.7178 370.2422,359.3262 L370.2422,358.0566 Q370.2422,356.5918 370.9258,355.3223 Q371.6094,354.0527 372.8179,353.3691 Q374.0264,352.6855 375.3691,352.6855 Q376.1992,352.6855 376.9072,352.8687 Q377.6152,353.0518 378.2256,353.4424 Z "/><text fill="#000000" font-family="sans-serif" font-size="18.75" lengthAdjust="spacingAndGlyphs" textLength="48.4375" x="399.3438" y="365.4846">Table</text><line style="stroke: #383838; stroke-width: 2.34375;" x1="341.5313" x2="464.9688" y1="381.25" y2="381.25"/><text fill="#000000" font-family="sans-serif" font-size="18.75" lengthAdjust="spacingAndGlyphs" textLength="107.8125" x="349.3438" y="406.9641">name: string</text><!--class Column--><rect fill="#F8F8F8" filter="url(#f1t92naialg7xl)" height="106.543" id="Column" style="stroke: #383838; stroke-width: 2.34375;" width="126.5625" x="422.7813" y="173.4375"/><ellipse cx="449.5781" cy="196.875" fill="#C2C2C2" rx="15.625" ry="15.625" style="stroke: #383838; stroke-width: 1.5625;"/><path d="M451.8975,192.5049 Q452.0684,192.2607 452.2759,192.1387 Q452.4834,192.0166 452.7275,192.0166 Q453.1426,192.0166 453.3989,192.3096 Q453.6553,192.6025 453.6553,193.2617 L453.6553,194.873 Q453.6553,195.5322 453.3989,195.8252 Q453.1426,196.1182 452.7275,196.1182 Q452.3369,196.1182 452.1172,195.8984 Q451.8975,195.7031 451.7754,195.1172 Q451.7266,194.7266 451.5312,194.5313 Q451.1406,194.1162 450.4692,193.8721 Q449.7979,193.6279 449.1143,193.6279 Q448.2842,193.6279 447.5762,193.9941 Q446.8682,194.3604 446.3311,195.1782 Q445.7939,195.9961 445.7939,197.1436 L445.7939,198.3643 Q445.7939,199.707 446.7827,200.6104 Q447.7715,201.5137 449.5049,201.5137 Q450.5547,201.5137 451.2871,201.2451 Q451.7021,201.0742 452.166,200.5859 Q452.459,200.293 452.6299,200.2075 Q452.8008,200.1221 452.9961,200.1221 Q453.3867,200.1221 453.6675,200.4028 Q453.9482,200.6836 453.9482,201.0742 Q453.9482,201.4648 453.5576,201.9043 Q452.9961,202.5391 452.1172,202.9053 Q450.9453,203.3936 449.5293,203.3936 Q447.8447,203.3936 446.5264,202.71 Q445.4277,202.1729 444.6709,200.9766 Q443.9141,199.7803 443.9141,198.3887 L443.9141,197.1191 Q443.9141,195.6543 444.5977,194.3848 Q445.2812,193.1152 446.4897,192.4316 Q447.6982,191.748 449.041,191.748 Q449.8711,191.748 450.5791,191.9312 Q451.2871,192.1143 451.8975,192.5049 Z "/><text fill="#000000" font-family="sans-serif" font-size="18.75" lengthAdjust="spacingAndGlyphs" textLength="68.75" x="470.9844" y="204.5471">Column</text><line style="stroke: #383838; stroke-width: 2.34375;" x1="424.3438" x2="547.7813" y1="220.3125" y2="220.3125"/><text fill="#000000" font-family="sans-serif" font-size="18.75" lengthAdjust="spacingAndGlyphs" textLength="107.8125" x="432.1563" y="246.0266">name: string</text><text fill="#000000" font-family="sans-serif" font-size="18.75" lengthAdjust="spacingAndGlyphs" textLength="92.1875" x="432.1563" y="269.6106">type: string</text><!--class Value--><rect fill="#F8F8F8" filter="url(#f1t92naialg7xl)" height="106.543" id="Value" style="stroke: #383838; stroke-width: 2.34375;" width="160.9375" x="325.9063" y="24.2188"/><ellipse cx="377.3125" cy="47.6563" fill="#C2C2C2" rx="15.625" ry="15.625" style="stroke: #383838; stroke-width: 1.5625;"/><path d="M379.6318,43.2861 Q379.8027,43.042 380.0103,42.9199 Q380.2178,42.7979 380.4619,42.7979 Q380.877,42.7979 381.1333,43.0908 Q381.3896,43.3838 381.3896,44.043 L381.3896,45.6543 Q381.3896,46.3135 381.1333,46.6064 Q380.877,46.8994 380.4619,46.8994 Q380.0713,46.8994 379.8516,46.6797 Q379.6318,46.4844 379.5098,45.8984 Q379.4609,45.5078 379.2656,45.3125 Q378.875,44.8975 378.2036,44.6533 Q377.5322,44.4092 376.8486,44.4092 Q376.0186,44.4092 375.3105,44.7754 Q374.6025,45.1416 374.0654,45.9595 Q373.5283,46.7773 373.5283,47.9248 L373.5283,49.1455 Q373.5283,50.4883 374.5171,51.3916 Q375.5059,52.2949 377.2393,52.2949 Q378.2891,52.2949 379.0215,52.0264 Q379.4365,51.8555 379.9004,51.3672 Q380.1934,51.0742 380.3643,50.9888 Q380.5352,50.9033 380.7305,50.9033 Q381.1211,50.9033 381.4019,51.1841 Q381.6826,51.4648 381.6826,51.8555 Q381.6826,52.2461 381.292,52.6855 Q380.7305,53.3203 379.8516,53.6865 Q378.6797,54.1748 377.2637,54.1748 Q375.5791,54.1748 374.2607,53.4912 Q373.1621,52.9541 372.4053,51.7578 Q371.6484,50.5615 371.6484,49.1699 L371.6484,47.9004 Q371.6484,46.4355 372.332,45.166 Q373.0156,43.8965 374.2241,43.2129 Q375.4326,42.5293 376.7754,42.5293 Q377.6055,42.5293 378.3135,42.7124 Q379.0215,42.8955 379.6318,43.2861 Z "/><text fill="#000000" font-family="sans-serif" font-size="18.75" lengthAdjust="spacingAndGlyphs" textLength="48.4375" x="404.1875" y="55.3284">Value</text><line style="stroke: #383838; stroke-width: 2.34375;" x1="327.4688" x2="485.2813" y1="71.0938" y2="71.0938"/><text fill="#000000" font-family="sans-serif" font-size="18.75" lengthAdjust="spacingAndGlyphs" textLength="132.8125" x="335.2813" y="96.8079">oldValue: string</text><text fill="#000000" font-family="sans-serif" font-size="18.75" lengthAdjust="spacingAndGlyphs" textLength="142.1875" x="335.2813" y="120.3918">newValue: string</text><!--class Channel--><rect fill="#F8F8F8" filter="url(#f1t92naialg7xl)" height="82.959" id="Channel" style="stroke: #383838; stroke-width: 2.34375;" width="120.3125" x="82.1563" y="471.875"/><ellipse cx="104.0313" cy="495.3125" fill="#C2C2C2" rx="15.625" ry="15.625" style="stroke: #383838; stroke-width: 1.5625;"/><path d="M106.3506,490.9424 Q106.5215,490.6982 106.729,490.5762 Q106.9365,490.4541 107.1807,490.4541 Q107.5957,490.4541 107.8521,490.7471 Q108.1084,491.04 108.1084,491.6992 L108.1084,493.3105 Q108.1084,493.9697 107.8521,494.2627 Q107.5957,494.5557 107.1807,494.5557 Q106.79,494.5557 106.5703,494.3359 Q106.3506,494.1406 106.2285,493.5547 Q106.1797,493.1641 105.9844,492.9688 Q105.5938,492.5537 104.9224,492.3096 Q104.251,492.0654 103.5674,492.0654 Q102.7373,492.0654 102.0293,492.4316 Q101.3213,492.7979 100.7842,493.6157 Q100.2471,494.4336 100.2471,495.5811 L100.2471,496.8018 Q100.2471,498.1445 101.2358,499.0479 Q102.2246,499.9512 103.958,499.9512 Q105.0078,499.9512 105.7402,499.6826 Q106.1553,499.5117 106.6191,499.0234 Q106.9121,498.7305 107.083,498.645 Q107.2539,498.5596 107.4492,498.5596 Q107.8398,498.5596 108.1206,498.8403 Q108.4014,499.1211 108.4014,499.5117 Q108.4014,499.9023 108.0107,500.3418 Q107.4492,500.9766 106.5703,501.3428 Q105.3984,501.8311 103.9824,501.8311 Q102.2979,501.8311 100.9795,501.1475 Q99.8809,500.6104 99.124,499.4141 Q98.3672,498.2178 98.3672,496.8262 L98.3672,495.5566 Q98.3672,494.0918 99.0508,492.8223 Q99.7344,491.5527 100.9429,490.8691 Q102.1514,490.1855 103.4941,490.1855 Q104.3242,490.1855 105.0322,490.3687 Q105.7402,490.5518 106.3506,490.9424 Z "/><text fill="#000000" font-family="sans-serif" font-size="18.75" lengthAdjust="spacingAndGlyphs" textLength="73.4375" x="124.3438" y="502.9846">Channel</text><line style="stroke: #383838; stroke-width: 2.34375;" x1="83.7188" x2="200.9062" y1="518.75" y2="518.75"/><text fill="#000000" font-family="sans-serif" font-size="18.75" lengthAdjust="spacingAndGlyphs" textLength="45.3125" x="91.5313" y="544.4641">id: int</text><!--class ChannelStatus--><rect fill="#F8F8F8" filter="url(#f1t92naialg7xl)" height="130.127" id="ChannelStatus" style="stroke: #383838; stroke-width: 2.34375;" width="175" x="54.8125" y="585.9375"/><ellipse cx="76.6875" cy="609.375" fill="#ABABAB" rx="15.625" ry="15.625" style="stroke: #383838; stroke-width: 1.5625;"/><path d="M76.4922,610.9863 L76.4922,613.7451 L81.2773,613.7451 L81.2773,612.7197 Q81.2773,612.0605 81.5337,611.7676 Q81.79,611.4746 82.2051,611.4746 Q82.6201,611.4746 82.8887,611.7676 Q83.1572,612.0605 83.1572,612.7197 L83.1572,615.625 L74.3193,615.625 Q73.6357,615.625 73.3428,615.3687 Q73.0498,615.1123 73.0498,614.6729 Q73.0498,614.2578 73.3428,614.0015 Q73.6357,613.7451 74.3193,613.7451 L74.6123,613.7451 L74.6123,606.3965 L74.3193,606.3965 Q73.6357,606.3965 73.3428,606.1401 Q73.0498,605.8838 73.0498,605.4688 Q73.0498,605.0293 73.3428,604.7729 Q73.6357,604.5166 74.3193,604.5166 L82.7422,604.5166 L82.7422,607.373 Q82.7422,608.0566 82.4858,608.3374 Q82.2295,608.6182 81.79,608.6182 Q81.375,608.6182 81.1187,608.3374 Q80.8623,608.0566 80.8623,607.373 L80.8623,606.3965 L76.4922,606.3965 L76.4922,609.1064 L78.1279,609.1064 Q78.1279,608.374 78.2744,608.1787 Q78.543,607.7148 79.0801,607.7148 Q79.4951,607.7148 79.7515,608.0078 Q80.0078,608.3008 80.0078,608.9844 L80.0078,611.1328 Q80.0078,611.7432 79.8613,611.9629 Q79.5684,612.4023 79.0801,612.4023 Q78.543,612.4023 78.2744,611.9385 Q78.1279,611.7432 78.1279,610.9863 L76.4922,610.9863 Z "/><text fill="#000000" font-family="sans-serif" font-size="18.75" lengthAdjust="spacingAndGlyphs" textLength="128.125" x="97" y="617.0471">ChannelStatus</text><line style="stroke: #383838; stroke-width: 2.34375;" x1="56.375" x2="228.25" y1="632.8125" y2="632.8125"/><text fill="#000000" font-family="sans-serif" font-size="18.75" lengthAdjust="spacingAndGlyphs" textLength="110.9375" x="64.1875" y="658.5266">Undoing = -1</text><text fill="#000000" font-family="sans-serif" font-size="18.75" lengthAdjust="spacingAndGlyphs" textLength="120.3125" x="64.1875" y="682.1106">Recording = 0</text><text fill="#000000" font-family="sans-serif" font-size="18.75" lengthAdjust="spacingAndGlyphs" textLength="115.625" x="64.1875" y="705.6946">Redoing = +1</text><!--link Channel to ChannelStatus--><path d="M142.3125,575.8438 C142.3125,579.0781 142.3125,582.3281 142.3125,585.5469 " fill="none" id="Channel-ChannelStatus" style="stroke: #383838; stroke-width: 1.5625;"/><polygon fill="#FFFFFF" points="142.3125,555.1563,136.0625,564.5313,142.3125,573.9063,148.5625,564.5313,142.3125,555.1563" style="stroke: #383838; stroke-width: 1.5625;"/><!--link Action to Channel--><path d="M27.2656,159.375 C24.6719,163.9531 22.375,168.6406 20.4375,173.4375 C2.8281,217.25 9.6875,233.7031 20.4375,279.6875 C37.4531,352.3438 82.6875,427.1406 113,471.5156 " fill="none" id="Action-Channel" style="stroke: #383838; stroke-width: 1.5625;"/><polygon fill="#FFFFFF" points="38.5469,142.4219,28.1515,146.7681,28.1653,158.0355,38.5606,153.6892,38.5469,142.4219" style="stroke: #383838; stroke-width: 1.5625;"/><!--link Action to Category--><path d="M111.0625,162.9375 C111.0625,166.4688 111.0625,169.9687 111.0625,173.3906 " fill="none" id="Action-Category" style="stroke: #383838; stroke-width: 1.5625;"/><polygon fill="#FFFFFF" points="111.0625,142.5625,104.8125,151.9375,111.0625,161.3125,117.3125,151.9375,111.0625,142.5625" style="stroke: #383838; stroke-width: 1.5625;"/><!--link Action to Change--><path d="M208.9688,155.1875 C216.875,161.3438 224.7344,167.4688 232.3281,173.3906 " fill="none" id="Action-Change" style="stroke: #383838; stroke-width: 1.5625;"/><polygon fill="#FFFFFF" points="192.7656,142.5625,196.3235,153.2534,207.5604,154.081,204.0025,143.3902,192.7656,142.5625" style="stroke: #383838; stroke-width: 1.5625;"/><!--link Change to Table--><path d="M347.6406,296.6094 C356.7969,309.3906 366.0938,322.3594 374.3906,333.9531 " fill="none" id="Change-Table" style="stroke: #383838; stroke-width: 1.5625;"/><polygon fill="#FFFFFF" points="335.7656,280.0469,336.1605,291.3073,346.7067,295.2737,346.3118,284.0133,335.7656,280.0469" style="stroke: #383838; stroke-width: 1.5625;"/><!--link Change to ChangeType--><path d="M254.7813,297.5156 C252.0625,301.8281 249.3281,306.1563 246.625,310.4531 " fill="none" id="Change-ChangeType" style="stroke: #383838; stroke-width: 1.5625;"/><polygon fill="#FFFFFF" points="265.8125,280.0469,255.5234,284.6389,255.8048,295.9027,266.0939,291.3107,265.8125,280.0469" style="stroke: #383838; stroke-width: 1.5625;"/><!--link Table to Channel--><path d="M331.3125,428.7344 C324.5781,432.9375 317.7656,436.9687 311.0625,440.625 C276.3281,459.6094 235.4687,476.9375 202.6562,489.7344 " fill="none" id="Table-Channel" style="stroke: #383838; stroke-width: 1.5625;"/><polygon fill="#FFFFFF" points="348.8438,417.375,337.5772,417.2445,333.1234,427.5943,344.39,427.7247,348.8438,417.375" style="stroke: #383838; stroke-width: 1.5625;"/><!--link Column to Table--><path d="M446.5156,297.9063 C439.5,310.2656 432.4219,322.75 426.0781,333.9531 " fill="none" id="Column-Table" style="stroke: #383838; stroke-width: 1.5625;"/><polygon fill="#FFFFFF" points="456.6406,280.0469,446.58,285.1201,447.3935,296.358,457.4541,291.2848,456.6406,280.0469" style="stroke: #383838; stroke-width: 1.5625;"/><!--link Value to Column--><path d="M444.4375,148.6875 C448.9531,156.9531 453.5,165.2812 457.8438,173.25 " fill="none" id="Value-Column" style="stroke: #383838; stroke-width: 1.5625;"/><polygon fill="#FFFFFF" points="434.7031,130.8281,433.7075,142.0514,443.6845,147.2871,444.6801,136.0638,434.7031,130.8281" style="stroke: #383838; stroke-width: 1.5625;"/><!--link Value to Change--><path d="M355.875,147.3438 C349.4375,156.0625 342.9531,164.8594 336.75,173.25 " fill="none" id="Value-Change" style="stroke: #383838; stroke-width: 1.5625;"/><polygon fill="#FFFFFF" points="368.0625,130.8281,357.4675,134.6621,356.9316,145.9167,367.5266,142.0827,368.0625,130.8281" style="stroke: #383838; stroke-width: 1.5625;"/><!--
@startuml
skinparam monochrome true
skinparam ranksep 20
skinparam dpi 150
skinparam packageTitleAlignment left
skinparam usecaseBorderThickness 0.4
skinparam defaultFontSize 12
skinparam rectangleBorderThickness 1
hide methods

class Category {
  name: string
  icon: string
}

class Action {
  createdAt: Date
  orderIndex: int
  undone: boolean
}

class Change {
  rowId: int
  orderIndex: int
}

enum ChangeType {
  Insert
  Update
  Delete
}

class Table {
  name: string
}

class Column {
  name: string
  type: string
}

class Value {
  oldValue: string
  newValue: string
}

class Channel {
  id: int
}

enum ChannelStatus {
  Undoing = -1
  Recording = 0
  Redoing = +1
}

Channel o- - ChannelStatus
Action o- - Channel
Action o- - Category
Action o- - Change
Change o- - Table
Change o- - ChangeType
Table o- - Channel
Column o- - Table 
Value o- - Column
Value o- - Change

@enduml

PlantUML version 1.2019.06(Fri May 24 19:10:25 CEST 2019)
(GPL source distribution)
Java Runtime: Java(TM) SE Runtime Environment
JVM: Java HotSpot(TM) 64-Bit Server VM
Java Version: 1.8.0_211-b12
Operating System: Windows 10
OS Version: 10.0
Default Encoding: Cp1252
Language: de
Country: DE
--></g></svg>