<?xml version="1.0" encoding="UTF-8" standalone="no"?><svg xmlns="http://www.w3.org/2000/svg" xmlns:xlink="http://www.w3.org/1999/xlink" contentScriptType="application/ecmascript" contentStyleType="text/css" height="571.875px" preserveAspectRatio="none" style="width:603px;height:571px;" version="1.1" viewBox="0 0 603 571" width="603.125px" zoomAndPan="magnify"><defs><filter height="300%" id="f1hy7pu1usha0k" width="300%" x="-1" y="-1"><feGaussianBlur result="blurOut" stdDeviation="3.125"/><feColorMatrix in="blurOut" result="blurOut2" type="matrix" values="0 0 0 0 0 0 0 0 0 0 0 0 0 0 0 0 0 0 .4 0"/><feOffset dx="6.25" dy="6.25" in="blurOut2" result="blurOut3"/><feBlend in="SourceGraphic" in2="blurOut3" mode="normal"/></filter></defs><g><!--class Category--><rect fill="#F8F8F8" filter="url(#f1hy7pu1usha0k)" height="106.543" id="Category" style="stroke: #383838; stroke-width: 2.34375;" width="126.5625" x="51.2031" y="161.7188"/><ellipse cx="74.4844" cy="185.1563" fill="#C2C2C2" rx="15.625" ry="15.625" style="stroke: #383838; stroke-width: 1.5625;"/><path d="M76.8037,180.7861 Q76.9746,180.542 77.1821,180.4199 Q77.3896,180.2979 77.6338,180.2979 Q78.0488,180.2979 78.3052,180.5908 Q78.5615,180.8838 78.5615,181.543 L78.5615,183.1543 Q78.5615,183.8135 78.3052,184.1064 Q78.0488,184.3994 77.6338,184.3994 Q77.2432,184.3994 77.0234,184.1797 Q76.8037,183.9844 76.6816,183.3984 Q76.6328,183.0078 76.4375,182.8125 Q76.0469,182.3975 75.3755,182.1533 Q74.7041,181.9092 74.0205,181.9092 Q73.1904,181.9092 72.4824,182.2754 Q71.7744,182.6416 71.2373,183.4595 Q70.7002,184.2773 70.7002,185.4248 L70.7002,186.6455 Q70.7002,187.9883 71.689,188.8916 Q72.6777,189.7949 74.4111,189.7949 Q75.4609,189.7949 76.1934,189.5264 Q76.6084,189.3555 77.0723,188.8672 Q77.3652,188.5742 77.5361,188.4888 Q77.707,188.4033 77.9023,188.4033 Q78.293,188.4033 78.5737,188.6841 Q78.8545,188.9648 78.8545,189.3555 Q78.8545,189.7461 78.4639,190.1855 Q77.9023,190.8203 77.0234,191.1865 Q75.8516,191.6748 74.4355,191.6748 Q72.751,191.6748 71.4326,190.9912 Q70.334,190.4541 69.5771,189.2578 Q68.8203,188.0615 68.8203,186.6699 L68.8203,185.4004 Q68.8203,183.9355 69.5039,182.666 Q70.1875,181.3965 71.396,180.7129 Q72.6045,180.0293 73.9473,180.0293 Q74.7773,180.0293 75.4854,180.2124 Q76.1934,180.3955 76.8037,180.7861 Z "/><text fill="#000000" font-family="sans-serif" font-size="18.75" lengthAdjust="spacingAndGlyphs" textLength="76.5625" x="95.1094" y="192.8284">Category</text><line style="stroke: #383838; stroke-width: 2.34375;" x1="52.7656" x2="176.2031" y1="208.5938" y2="208.5938"/><text fill="#000000" font-family="sans-serif" font-size="18.75" lengthAdjust="spacingAndGlyphs" textLength="107.8125" x="60.5781" y="234.3079">name: string</text><text fill="#000000" font-family="sans-serif" font-size="18.75" lengthAdjust="spacingAndGlyphs" textLength="93.75" x="60.5781" y="257.8918">icon: string</text><!--class Action--><rect fill="#F8F8F8" filter="url(#f1hy7pu1usha0k)" height="82.959" id="Action" style="stroke: #383838; stroke-width: 2.34375;" width="148.4375" x="40.2656" y="24.2188"/><ellipse cx="84.6406" cy="47.6563" fill="#C2C2C2" rx="15.625" ry="15.625" style="stroke: #383838; stroke-width: 1.5625;"/><path d="M86.96,43.2861 Q87.1309,43.042 87.3384,42.9199 Q87.5459,42.7979 87.79,42.7979 Q88.2051,42.7979 88.4614,43.0908 Q88.7178,43.3838 88.7178,44.043 L88.7178,45.6543 Q88.7178,46.3135 88.4614,46.6064 Q88.2051,46.8994 87.79,46.8994 Q87.3994,46.8994 87.1797,46.6797 Q86.96,46.4844 86.8379,45.8984 Q86.7891,45.5078 86.5938,45.3125 Q86.2031,44.8975 85.5317,44.6533 Q84.8604,44.4092 84.1768,44.4092 Q83.3467,44.4092 82.6387,44.7754 Q81.9307,45.1416 81.3936,45.9595 Q80.8564,46.7773 80.8564,47.9248 L80.8564,49.1455 Q80.8564,50.4883 81.8452,51.3916 Q82.834,52.2949 84.5674,52.2949 Q85.6172,52.2949 86.3496,52.0264 Q86.7646,51.8555 87.2285,51.3672 Q87.5215,51.0742 87.6924,50.9888 Q87.8633,50.9033 88.0586,50.9033 Q88.4492,50.9033 88.73,51.1841 Q89.0107,51.4648 89.0107,51.8555 Q89.0107,52.2461 88.6201,52.6855 Q88.0586,53.3203 87.1797,53.6865 Q86.0078,54.1748 84.5918,54.1748 Q82.9072,54.1748 81.5889,53.4912 Q80.4902,52.9541 79.7334,51.7578 Q78.9766,50.5615 78.9766,49.1699 L78.9766,47.9004 Q78.9766,46.4355 79.6602,45.166 Q80.3438,43.8965 81.5522,43.2129 Q82.7607,42.5293 84.1035,42.5293 Q84.9336,42.5293 85.6416,42.7124 Q86.3496,42.8955 86.96,43.2861 Z "/><text fill="#000000" font-family="sans-serif" font-size="18.75" lengthAdjust="spacingAndGlyphs" textLength="51.5625" x="109.9531" y="55.3284">Action</text><line style="stroke: #383838; stroke-width: 2.34375;" x1="41.8281" x2="187.1406" y1="71.0938" y2="71.0938"/><text fill="#000000" font-family="sans-serif" font-size="18.75" lengthAdjust="spacingAndGlyphs" textLength="129.6875" x="49.6406" y="96.8079">createdAt: Date</text><!--class Change--><rect fill="#F8F8F8" filter="url(#f1hy7pu1usha0k)" height="130.127" id="Change" style="stroke: #383838; stroke-width: 2.34375;" width="171.875" x="233.2344" y="150"/><ellipse cx="280.4219" cy="173.4375" fill="#C2C2C2" rx="15.625" ry="15.625" style="stroke: #383838; stroke-width: 1.5625;"/><path d="M282.7412,169.0674 Q282.9121,168.8232 283.1196,168.7012 Q283.3271,168.5791 283.5713,168.5791 Q283.9863,168.5791 284.2427,168.8721 Q284.499,169.165 284.499,169.8242 L284.499,171.4355 Q284.499,172.0947 284.2427,172.3877 Q283.9863,172.6807 283.5713,172.6807 Q283.1807,172.6807 282.9609,172.4609 Q282.7412,172.2656 282.6191,171.6797 Q282.5703,171.2891 282.375,171.0938 Q281.9844,170.6787 281.313,170.4346 Q280.6416,170.1904 279.958,170.1904 Q279.1279,170.1904 278.4199,170.5566 Q277.7119,170.9229 277.1748,171.7407 Q276.6377,172.5586 276.6377,173.7061 L276.6377,174.9268 Q276.6377,176.2695 277.6265,177.1729 Q278.6152,178.0762 280.3486,178.0762 Q281.3984,178.0762 282.1309,177.8076 Q282.5459,177.6367 283.0098,177.1484 Q283.3027,176.8555 283.4736,176.77 Q283.6445,176.6846 283.8398,176.6846 Q284.2305,176.6846 284.5112,176.9653 Q284.792,177.2461 284.792,177.6367 Q284.792,178.0273 284.4014,178.4668 Q283.8398,179.1016 282.9609,179.4678 Q281.7891,179.9561 280.373,179.9561 Q278.6885,179.9561 277.3701,179.2725 Q276.2715,178.7354 275.5146,177.5391 Q274.7578,176.3428 274.7578,174.9512 L274.7578,173.6816 Q274.7578,172.2168 275.4414,170.9473 Q276.125,169.6777 277.3335,168.9941 Q278.542,168.3105 279.8848,168.3105 Q280.7148,168.3105 281.4229,168.4937 Q282.1309,168.6768 282.7412,169.0674 Z "/><text fill="#000000" font-family="sans-serif" font-size="18.75" lengthAdjust="spacingAndGlyphs" textLength="68.75" x="306.3594" y="181.1096">Change</text><line style="stroke: #383838; stroke-width: 2.34375;" x1="234.7969" x2="403.5469" y1="196.875" y2="196.875"/><text fill="#000000" font-family="sans-serif" font-size="18.75" lengthAdjust="spacingAndGlyphs" textLength="153.125" x="242.6094" y="222.5891">type: ChangeType</text><text fill="#000000" font-family="sans-serif" font-size="18.75" lengthAdjust="spacingAndGlyphs" textLength="76.5625" x="242.6094" y="246.1731">rowId: int</text><text fill="#000000" font-family="sans-serif" font-size="18.75" lengthAdjust="spacingAndGlyphs" textLength="120.3125" x="242.6094" y="269.7571">orderIndex: int</text><!--class ChangeType--><rect fill="#F8F8F8" filter="url(#f1hy7pu1usha0k)" height="130.127" id="ChangeType" style="stroke: #383838; stroke-width: 2.34375;" width="156.25" x="145.7344" y="310.9375"/><ellipse cx="167.6094" cy="334.375" fill="#ABABAB" rx="15.625" ry="15.625" style="stroke: #383838; stroke-width: 1.5625;"/><path d="M167.4141,335.9863 L167.4141,338.7451 L172.1992,338.7451 L172.1992,337.7197 Q172.1992,337.0605 172.4556,336.7676 Q172.7119,336.4746 173.127,336.4746 Q173.542,336.4746 173.8105,336.7676 Q174.0791,337.0605 174.0791,337.7197 L174.0791,340.625 L165.2412,340.625 Q164.5576,340.625 164.2646,340.3687 Q163.9717,340.1123 163.9717,339.6729 Q163.9717,339.2578 164.2646,339.0015 Q164.5576,338.7451 165.2412,338.7451 L165.5342,338.7451 L165.5342,331.3965 L165.2412,331.3965 Q164.5576,331.3965 164.2646,331.1401 Q163.9717,330.8838 163.9717,330.4688 Q163.9717,330.0293 164.2646,329.7729 Q164.5576,329.5166 165.2412,329.5166 L173.6641,329.5166 L173.6641,332.373 Q173.6641,333.0566 173.4077,333.3374 Q173.1514,333.6182 172.7119,333.6182 Q172.2969,333.6182 172.0405,333.3374 Q171.7842,333.0566 171.7842,332.373 L171.7842,331.3965 L167.4141,331.3965 L167.4141,334.1064 L169.0498,334.1064 Q169.0498,333.374 169.1963,333.1787 Q169.4648,332.7148 170.002,332.7148 Q170.417,332.7148 170.6733,333.0078 Q170.9297,333.3008 170.9297,333.9844 L170.9297,336.1328 Q170.9297,336.7432 170.7832,336.9629 Q170.4902,337.4023 170.002,337.4023 Q169.4648,337.4023 169.1963,336.9385 Q169.0498,336.7432 169.0498,335.9863 L167.4141,335.9863 Z "/><text fill="#000000" font-family="sans-serif" font-size="18.75" lengthAdjust="spacingAndGlyphs" textLength="109.375" x="187.9219" y="342.0471">ChangeType</text><line style="stroke: #383838; stroke-width: 2.34375;" x1="147.2969" x2="300.4219" y1="357.8125" y2="357.8125"/><text fill="#000000" font-family="sans-serif" font-size="18.75" lengthAdjust="spacingAndGlyphs" textLength="48.4375" x="155.1094" y="383.5266">Insert</text><text fill="#000000" font-family="sans-serif" font-size="18.75" lengthAdjust="spacingAndGlyphs" textLength="62.5" x="155.1094" y="407.1106">Update</text><text fill="#000000" font-family="sans-serif" font-size="18.75" lengthAdjust="spacingAndGlyphs" textLength="56.25" x="155.1094" y="430.6946">Delete</text><!--class Table--><rect fill="#F8F8F8" filter="url(#f1hy7pu1usha0k)" height="82.959" id="Table" style="stroke: #383838; stroke-width: 2.34375;" width="126.5625" x="357.4531" y="334.375"/><ellipse cx="393.3906" cy="357.8125" fill="#C2C2C2" rx="15.625" ry="15.625" style="stroke: #383838; stroke-width: 1.5625;"/><path d="M395.71,353.4424 Q395.8809,353.1982 396.0884,353.0762 Q396.2959,352.9541 396.54,352.9541 Q396.9551,352.9541 397.2114,353.2471 Q397.4678,353.54 397.4678,354.1992 L397.4678,355.8105 Q397.4678,356.4697 397.2114,356.7627 Q396.9551,357.0557 396.54,357.0557 Q396.1494,357.0557 395.9297,356.8359 Q395.71,356.6406 395.5879,356.0547 Q395.5391,355.6641 395.3438,355.4688 Q394.9531,355.0537 394.2817,354.8096 Q393.6104,354.5654 392.9268,354.5654 Q392.0967,354.5654 391.3887,354.9316 Q390.6807,355.2979 390.1436,356.1157 Q389.6064,356.9336 389.6064,358.0811 L389.6064,359.3018 Q389.6064,360.6445 390.5952,361.5479 Q391.584,362.4512 393.3174,362.4512 Q394.3672,362.4512 395.0996,362.1826 Q395.5146,362.0117 395.9785,361.5234 Q396.2715,361.2305 396.4424,361.145 Q396.6133,361.0596 396.8086,361.0596 Q397.1992,361.0596 397.48,361.3403 Q397.7607,361.6211 397.7607,362.0117 Q397.7607,362.4023 397.3701,362.8418 Q396.8086,363.4766 395.9297,363.8428 Q394.7578,364.3311 393.3418,364.3311 Q391.6572,364.3311 390.3389,363.6475 Q389.2402,363.1104 388.4834,361.9141 Q387.7266,360.7178 387.7266,359.3262 L387.7266,358.0566 Q387.7266,356.5918 388.4102,355.3223 Q389.0938,354.0527 390.3022,353.3691 Q391.5107,352.6855 392.8535,352.6855 Q393.6836,352.6855 394.3916,352.8687 Q395.0996,353.0518 395.71,353.4424 Z "/><text fill="#000000" font-family="sans-serif" font-size="18.75" lengthAdjust="spacingAndGlyphs" textLength="48.4375" x="416.8281" y="365.4846">Table</text><line style="stroke: #383838; stroke-width: 2.34375;" x1="359.0156" x2="482.4531" y1="381.25" y2="381.25"/><text fill="#000000" font-family="sans-serif" font-size="18.75" lengthAdjust="spacingAndGlyphs" textLength="107.8125" x="366.8281" y="406.9641">name: string</text><!--class Column--><rect fill="#F8F8F8" filter="url(#f1hy7pu1usha0k)" height="106.543" id="Column" style="stroke: #383838; stroke-width: 2.34375;" width="126.5625" x="460.5781" y="161.7188"/><ellipse cx="487.375" cy="185.1563" fill="#C2C2C2" rx="15.625" ry="15.625" style="stroke: #383838; stroke-width: 1.5625;"/><path d="M489.6943,180.7861 Q489.8652,180.542 490.0728,180.4199 Q490.2803,180.2979 490.5244,180.2979 Q490.9395,180.2979 491.1958,180.5908 Q491.4521,180.8838 491.4521,181.543 L491.4521,183.1543 Q491.4521,183.8135 491.1958,184.1064 Q490.9395,184.3994 490.5244,184.3994 Q490.1338,184.3994 489.9141,184.1797 Q489.6943,183.9844 489.5723,183.3984 Q489.5234,183.0078 489.3281,182.8125 Q488.9375,182.3975 488.2661,182.1533 Q487.5947,181.9092 486.9111,181.9092 Q486.0811,181.9092 485.373,182.2754 Q484.665,182.6416 484.1279,183.4595 Q483.5908,184.2773 483.5908,185.4248 L483.5908,186.6455 Q483.5908,187.9883 484.5796,188.8916 Q485.5684,189.7949 487.3018,189.7949 Q488.3516,189.7949 489.084,189.5264 Q489.499,189.3555 489.9629,188.8672 Q490.2559,188.5742 490.4268,188.4888 Q490.5977,188.4033 490.793,188.4033 Q491.1836,188.4033 491.4644,188.6841 Q491.7451,188.9648 491.7451,189.3555 Q491.7451,189.7461 491.3545,190.1855 Q490.793,190.8203 489.9141,191.1865 Q488.7422,191.6748 487.3262,191.6748 Q485.6416,191.6748 484.3232,190.9912 Q483.2246,190.4541 482.4678,189.2578 Q481.7109,188.0615 481.7109,186.6699 L481.7109,185.4004 Q481.7109,183.9355 482.3945,182.666 Q483.0781,181.3965 484.2866,180.7129 Q485.4951,180.0293 486.8379,180.0293 Q487.668,180.0293 488.376,180.2124 Q489.084,180.3955 489.6943,180.7861 Z "/><text fill="#000000" font-family="sans-serif" font-size="18.75" lengthAdjust="spacingAndGlyphs" textLength="68.75" x="508.7813" y="192.8284">Column</text><line style="stroke: #383838; stroke-width: 2.34375;" x1="462.1406" x2="585.5781" y1="208.5938" y2="208.5938"/><text fill="#000000" font-family="sans-serif" font-size="18.75" lengthAdjust="spacingAndGlyphs" textLength="107.8125" x="469.9531" y="234.3079">name: string</text><text fill="#000000" font-family="sans-serif" font-size="18.75" lengthAdjust="spacingAndGlyphs" textLength="92.1875" x="469.9531" y="257.8918">type: string</text><!--class Value--><rect fill="#F8F8F8" filter="url(#f1hy7pu1usha0k)" height="106.543" id="Value" style="stroke: #383838; stroke-width: 2.34375;" width="160.9375" x="343.3906" y="12.5"/><ellipse cx="394.7969" cy="35.9375" fill="#C2C2C2" rx="15.625" ry="15.625" style="stroke: #383838; stroke-width: 1.5625;"/><path d="M397.1162,31.5674 Q397.2871,31.3232 397.4946,31.2012 Q397.7021,31.0791 397.9463,31.0791 Q398.3613,31.0791 398.6177,31.3721 Q398.874,31.665 398.874,32.3242 L398.874,33.9355 Q398.874,34.5947 398.6177,34.8877 Q398.3613,35.1807 397.9463,35.1807 Q397.5557,35.1807 397.3359,34.9609 Q397.1162,34.7656 396.9941,34.1797 Q396.9453,33.7891 396.75,33.5938 Q396.3594,33.1787 395.688,32.9346 Q395.0166,32.6904 394.333,32.6904 Q393.5029,32.6904 392.7949,33.0566 Q392.0869,33.4229 391.5498,34.2407 Q391.0127,35.0586 391.0127,36.2061 L391.0127,37.4268 Q391.0127,38.7695 392.0015,39.6729 Q392.9902,40.5762 394.7236,40.5762 Q395.7734,40.5762 396.5059,40.3076 Q396.9209,40.1367 397.3848,39.6484 Q397.6777,39.3555 397.8486,39.27 Q398.0195,39.1846 398.2148,39.1846 Q398.6055,39.1846 398.8862,39.4653 Q399.167,39.7461 399.167,40.1367 Q399.167,40.5273 398.7764,40.9668 Q398.2148,41.6016 397.3359,41.9678 Q396.1641,42.4561 394.748,42.4561 Q393.0635,42.4561 391.7451,41.7725 Q390.6465,41.2354 389.8896,40.0391 Q389.1328,38.8428 389.1328,37.4512 L389.1328,36.1816 Q389.1328,34.7168 389.8164,33.4473 Q390.5,32.1777 391.7085,31.4941 Q392.917,30.8105 394.2598,30.8105 Q395.0898,30.8105 395.7979,30.9937 Q396.5059,31.1768 397.1162,31.5674 Z "/><text fill="#000000" font-family="sans-serif" font-size="18.75" lengthAdjust="spacingAndGlyphs" textLength="48.4375" x="421.6719" y="43.6096">Value</text><line style="stroke: #383838; stroke-width: 2.34375;" x1="344.9531" x2="502.7656" y1="59.375" y2="59.375"/><text fill="#000000" font-family="sans-serif" font-size="18.75" lengthAdjust="spacingAndGlyphs" textLength="132.8125" x="352.7656" y="85.0891">oldValue: string</text><text fill="#000000" font-family="sans-serif" font-size="18.75" lengthAdjust="spacingAndGlyphs" textLength="142.1875" x="352.7656" y="108.6731">newValue: string</text><!--class Channel--><rect fill="#F8F8F8" filter="url(#f1hy7pu1usha0k)" height="82.959" id="Channel" style="stroke: #383838; stroke-width: 2.34375;" width="120.3125" x="85.5781" y="471.875"/><ellipse cx="107.4531" cy="495.3125" fill="#C2C2C2" rx="15.625" ry="15.625" style="stroke: #383838; stroke-width: 1.5625;"/><path d="M109.7725,490.9424 Q109.9434,490.6982 110.1509,490.5762 Q110.3584,490.4541 110.6025,490.4541 Q111.0176,490.4541 111.2739,490.7471 Q111.5303,491.04 111.5303,491.6992 L111.5303,493.3105 Q111.5303,493.9697 111.2739,494.2627 Q111.0176,494.5557 110.6025,494.5557 Q110.2119,494.5557 109.9922,494.3359 Q109.7725,494.1406 109.6504,493.5547 Q109.6016,493.1641 109.4063,492.9688 Q109.0156,492.5537 108.3442,492.3096 Q107.6729,492.0654 106.9893,492.0654 Q106.1592,492.0654 105.4512,492.4316 Q104.7432,492.7979 104.2061,493.6157 Q103.6689,494.4336 103.6689,495.5811 L103.6689,496.8018 Q103.6689,498.1445 104.6577,499.0479 Q105.6465,499.9512 107.3799,499.9512 Q108.4297,499.9512 109.1621,499.6826 Q109.5771,499.5117 110.041,499.0234 Q110.334,498.7305 110.5049,498.645 Q110.6758,498.5596 110.8711,498.5596 Q111.2617,498.5596 111.5425,498.8403 Q111.8232,499.1211 111.8232,499.5117 Q111.8232,499.9023 111.4326,500.3418 Q110.8711,500.9766 109.9922,501.3428 Q108.8203,501.8311 107.4043,501.8311 Q105.7197,501.8311 104.4014,501.1475 Q103.3027,500.6104 102.5459,499.4141 Q101.7891,498.2178 101.7891,496.8262 L101.7891,495.5566 Q101.7891,494.0918 102.4727,492.8223 Q103.1563,491.5527 104.3647,490.8691 Q105.5732,490.1855 106.916,490.1855 Q107.7461,490.1855 108.4541,490.3687 Q109.1621,490.5518 109.7725,490.9424 Z "/><text fill="#000000" font-family="sans-serif" font-size="18.75" lengthAdjust="spacingAndGlyphs" textLength="73.4375" x="127.7656" y="502.9846">Channel</text><line style="stroke: #383838; stroke-width: 2.34375;" x1="87.1406" x2="204.3281" y1="518.75" y2="518.75"/><text fill="#000000" font-family="sans-serif" font-size="18.75" lengthAdjust="spacingAndGlyphs" textLength="45.3125" x="94.9531" y="544.4641">id: int</text><!--link Channel to Action--><path d="M105.5312,454.4219 C76.4531,409.2969 39.6094,343.5625 23.8594,279.6875 C10.0625,223.7188 0.6094,202.7344 23.8594,150 C31,133.8125 43.0313,119.4219 56.0313,107.3594 " fill="none" id="Channel-Action" style="stroke: #383838; stroke-width: 1.5625;"/><polygon fill="#FFFFFF" points="117.0313,471.8281,117.0828,460.5609,106.7021,456.1798,106.6506,467.447,117.0313,471.8281" style="stroke: #383838; stroke-width: 1.5625;"/><!--link Action to Category--><path d="M114.4844,127.7656 C114.4844,138.9219 114.4844,150.4688 114.4844,161.3438 " fill="none" id="Action-Category" style="stroke: #383838; stroke-width: 1.5625;"/><polygon fill="#FFFFFF" points="114.4844,107.1094,108.2344,116.4844,114.4844,125.8594,120.7344,116.4844,114.4844,107.1094" style="stroke: #383838; stroke-width: 1.5625;"/><!--link Action to Change--><path d="M187.1719,119.0625 C201.8594,129.5469 217.4375,140.6719 232.5469,151.4531 " fill="none" id="Action-Change" style="stroke: #383838; stroke-width: 1.5625;"/><polygon fill="#FFFFFF" points="170.4219,107.1094,174.4206,117.6433,185.6822,118.0037,181.6835,107.4698,170.4219,107.1094" style="stroke: #383838; stroke-width: 1.5625;"/><!--link Change to Table--><path d="M371.3594,297.5 C379.5938,310.2969 387.7813,323.0156 395.0469,334.3125 " fill="none" id="Change-Table" style="stroke: #383838; stroke-width: 1.5625;"/><polygon fill="#FFFFFF" points="360.1875,280.1406,360.002,291.4064,370.3298,295.9107,370.5154,284.6449,360.1875,280.1406" style="stroke: #383838; stroke-width: 1.5625;"/><!--link Change to ChangeType--><path d="M269.9844,297.8594 C267.3594,302.1875 264.75,306.5 262.1875,310.7656 " fill="none" id="Change-ChangeType" style="stroke: #383838; stroke-width: 1.5625;"/><polygon fill="#FFFFFF" points="280.6875,280.1406,270.493,284.9391,271.0013,296.1949,281.1959,291.3965,280.6875,280.1406" style="stroke: #383838; stroke-width: 1.5625;"/><!--link Table to Channel--><path d="M349.7813,428.4063 C342.7344,432.75 335.5938,436.9063 328.5469,440.625 C289.2656,461.3906 242.5156,479.4531 206.1406,492.1875 " fill="none" id="Table-Channel" style="stroke: #383838; stroke-width: 1.5625;"/><polygon fill="#FFFFFF" points="366.9531,417.3125,355.6869,417.1545,351.2079,427.4933,362.4741,427.6513,366.9531,417.3125" style="stroke: #383838; stroke-width: 1.5625;"/><!--link Column to Table--><path d="M478.9688,285.1094 C468.0625,301.7813 456.7656,319.0781 447.0469,333.9375 " fill="none" id="Column-Table" style="stroke: #383838; stroke-width: 1.5625;"/><polygon fill="#FFFFFF" points="490.0938,268.0781,479.7332,272.5066,479.8362,283.7735,490.1967,279.345,490.0938,268.0781" style="stroke: #383838; stroke-width: 1.5625;"/><!--link Value to Column--><path d="M471.1563,136.2969 C476.9844,144.7813 482.8438,153.3594 488.4375,161.5313 " fill="none" id="Value-Column" style="stroke: #383838; stroke-width: 1.5625;"/><polygon fill="#FFFFFF" points="459.3906,119.1094,459.528,130.3759,469.9807,134.5824,469.8433,123.3159,459.3906,119.1094" style="stroke: #383838; stroke-width: 1.5625;"/><!--link Value to Change--><path d="M374.8281,135.625 C371.5,140.25 368.1719,144.9063 364.875,149.5156 " fill="none" id="Value-Change" style="stroke: #383838; stroke-width: 1.5625;"/><polygon fill="#FFFFFF" points="386.6563,119.1094,376.1127,123.0825,375.725,134.3432,386.2685,130.3701,386.6563,119.1094" style="stroke: #383838; stroke-width: 1.5625;"/><!--
@startuml
skinparam monochrome true
skinparam ranksep 20
skinparam dpi 150
skinparam packageTitleAlignment left
skinparam usecaseBorderThickness 0.4
skinparam defaultFontSize 12
skinparam rectangleBorderThickness 1
hide methods

class Category {
  name: string
  icon: string
}

class Action {
  createdAt: Date
}

class Change {
  type: ChangeType
  rowId: int
  orderIndex: int
}

enum ChangeType {
  Insert
  Update
  Delete
}

class Table {
  name: string
}

class Column {
  name: string
  type: string
}

class Value {
  oldValue: string
  newValue: string
}

class Channel {
  id: int
}

Channel o- - Action
Action o- - Category
Action o- - Change
Change o- - Table
Change o- - ChangeType
Table o- - Channel
Column o-down- Table 
Value o- - Column
Value o- - Change

@enduml

PlantUML version 1.2019.06(Fri May 24 19:10:25 CEST 2019)
(GPL source distribution)
Java Runtime: Java(TM) SE Runtime Environment
JVM: Java HotSpot(TM) 64-Bit Server VM
Java Version: 1.8.0_211-b12
Operating System: Windows 10
OS Version: 10.0
Default Encoding: Cp1252
Language: de
Country: DE
--></g></svg>